{
.appVersion = "937";
classes = (
{
automatic = 1;

glyphs = (
{
glyphname = A;
lastChange = "2016-11-15 08:48:58 +0000";
layers = (
{
anchors = (
{
name = bottom;
position = "{269, 0}";
},
{
name = ogonek;
position = "{566, 0}";
},
{
name = top;
position = "{415, 710}";
}
);
background = {
anchors = (
{
name = bottom;
position = "{347, 0}";
},
{
name = ogonek;
position = "{655, 0}";
},
{
name = top;
position = "{337, 707}";
}
);
paths = (
{
closed = 1;
nodes = (
"18 0 LINE",
"40 0 LINE",
"151 254 LINE",
"522 254 LINE",
"633 0 LINE",
"655 0 LINE",
"346 710 LINE",
"328 710 LINE"
);
},
{
closed = 1;
nodes = (
"159 274 LINE",
"337 681 LINE",
"513 274 LINE"
);
}
);
};
layerId = "D38D3CE8-FE00-46D7-8A67-935B0885B622";
paths = (
{
closed = 1;
nodes = (
"-39 0 LINE",
"-17 0 LINE",
"142 254 LINE",
"493 254 LINE",
"544 0 LINE",
"566 0 LINE",
"424 710 LINE",
"406 710 LINE"
);
},
{
closed = 1;
nodes = (
"154 274 LINE",
"409 681 LINE",
"489 274 LINE"
);
}
);
width = 647;
},
{
anchors = (
{
name = bottom;
position = "{271, 0}";
},
{
name = ogonek;
position = "{578, 0}";
},
{
name = top;
position = "{419, 710}";
}
);
background = {
anchors = (
{
name = bottom;
position = "{348, 0}";
},
{
name = ogonek;
position = "{667, 0}";
},
{
name = top;
position = "{339, 708}";
}
);
paths = (
{
closed = 1;
nodes = (
"10 0 LINE",
"106 0 LINE",
"189 208 LINE",
"487 208 LINE",
"571 0 LINE",
"667 0 LINE",
"377 710 LINE",
"301 710 LINE"
);
},
{
closed = 1;
nodes = (
"207 278 LINE",
"339 606 LINE",
"467 278 LINE"
);
}
);
};
layerId = "51AEF656-B224-4228-B44D-D7CFD243EB09";
paths = (
{
closed = 1;
nodes = (
"-47 0 LINE",
"49 0 LINE",
"170 208 LINE",
"448 208 LINE",
"482 0 LINE",
"578 0 LINE",
"455 710 LINE",
"378 710 LINE"
);
},
{
closed = 1;
nodes = (
"202 278 LINE",
"395 606 LINE",
"444 278 LINE"
);
}
);
width = 652;
},
{
anchors = (
{
name = bottom;
position = "{262, 0}";
},
{
name = ogonek;
position = "{578, 0}";
},
{
name = top;
position = "{410, 710}";
}
);
background = {
anchors = (
{
name = bottom;
position = "{345, 0}";
},
{
name = ogonek;
position = "{669, 0}";
},
{
name = top;
position = "{334, 710}";
}
);
paths = (
{
closed = 1;
nodes = (
"-2 0 LINE",
"197 0 LINE",
"239 139 LINE",
"428 139 LINE",
"471 0 LINE",
"669 0 LINE",
"443 710 LINE",
"225 710 LINE"
);
},
{
closed = 1;
nodes = (
"268 269 LINE",
"334 519 LINE",
"397 269 LINE"
);
}
);
};
layerId = "985A8054-912F-442C-AEAA-CDACF2D0DECF";
paths = (
{
closed = 1;
nodes = (
"-61 0 LINE",
"138 0 LINE",
"203 139 LINE",
"373 139 LINE",
"380 0 LINE",
"578 0 LINE",
"499 710 LINE",
"320 710 LINE"
);
},
{
closed = 1;
nodes = (
"259 269 LINE",
"362 489 LINE",
"370 269 LINE"
);
}
);
width = 636;
}
);
leftKerningGroup = A;
rightKerningGroup = A;
unicode = 0041;
},
{
glyphname = Aacute;
lastChange = "2016-11-14 08:05:02 +0000";
layers = (
{
background = {
anchors = (
{
name = bottom;
position = "{347, 0}";
},
{
name = ogonek;
position = "{655, 0}";
},
{
name = top;
position = "{376, 918}";
}
);
paths = (
{
closed = 1;
nodes = (
"18 0 LINE",
"40 0 LINE",
"151 254 LINE",
"522 254 LINE",
"633 0 LINE",
"655 0 LINE",
"346 710 LINE",
"328 710 LINE"
);
},
{
closed = 1;
nodes = (
"159 274 LINE",
"337 681 LINE",
"513 274 LINE"
);
},
{
closed = 1;
nodes = (
"425 918 LINE",
"391 918 LINE",
"327 845 LINE",
"343 833 LINE"
);
}
);
};
components = (
{
name = A;
},
{
name = acutecomb;
transform = "{1, 0, 0, 1, 294, 191}";
}
);
layerId = "D38D3CE8-FE00-46D7-8A67-935B0885B622";
width = 647;
},
{
background = {
anchors = (
{
name = bottom;
position = "{348, 0}";
},
{
name = ogonek;
position = "{667, 0}";
},
{
name = top;
position = "{385, 916}";
}
);
paths = (
{
closed = 1;
nodes = (
"10 0 LINE",
"106 0 LINE",
"189 208 LINE",
"487 208 LINE",
"571 0 LINE",
"667 0 LINE",
"377 710 LINE",
"301 710 LINE"
);
},
{
closed = 1;
nodes = (
"207 278 LINE",
"339 606 LINE",
"467 278 LINE"
);
},
{
closed = 1;
nodes = (
"458 916 LINE",
"370 916 LINE",
"312 815 LINE",
"370 795 LINE"
);
}
);
};
components = (
{
name = A;
},
{
name = acutecomb;
transform = "{1, 0, 0, 1, 303, 188}";
}
);
layerId = "51AEF656-B224-4228-B44D-D7CFD243EB09";
width = 652;
},
{
background = {
anchors = (
{
name = bottom;
position = "{345, 0}";
},
{
name = ogonek;
position = "{669, 0}";
},
{
name = top;
position = "{384, 914}";
}
);
paths = (
{
closed = 1;
nodes = (
"-2 0 LINE",
"197 0 LINE",
"239 139 LINE",
"428 139 LINE",
"471 0 LINE",
"669 0 LINE",
"443 710 LINE",
"225 710 LINE"
);
},
{
closed = 1;
nodes = (
"268 269 LINE",
"334 519 LINE",
"397 269 LINE"
);
},
{
closed = 1;
nodes = (
"493 914 LINE",
"324 914 LINE",
"274 772 LINE",
"394 740 LINE"
);
}
);
};
components = (
{
name = A;
},
{
name = acutecomb;
transform = "{1, 0, 0, 1, 238, 188}";
}
);
layerId = "985A8054-912F-442C-AEAA-CDACF2D0DECF";
width = 636;
}
);
leftKerningGroup = A;
rightKerningGroup = A;
unicode = 00C1;
},
{
glyphname = Abreve;
lastChange = "2016-11-15 12:48:19 +0000";
layers = (
{
background = {
anchors = (
{
name = bottom;
position = "{347, 0}";
},
{
name = ogonek;
position = "{655, 0}";
},
{
name = top;
position = "{337, 841}";
}
);
paths = (
{
closed = 1;
nodes = (
"18 0 LINE",
"40 0 LINE",
"151 254 LINE",
"522 254 LINE",
"633 0 LINE",
"655 0 LINE",
"346 710 LINE",
"328 710 LINE"
);
},
{
closed = 1;
nodes = (
"159 274 LINE",
"337 681 LINE",
"513 274 LINE"
);
},
{
closed = 1;
nodes = (
"337 858 CURVE SMOOTH",
"309 858 OFFCURVE",
"282 888 OFFCURVE",
"282 918 CURVE",
"263 918 LINE",
"263 877 OFFCURVE",
"298 841 OFFCURVE",
"337 841 CURVE SMOOTH",
"376 841 OFFCURVE",
"411 877 OFFCURVE",
"411 918 CURVE",
"393 918 LINE",
"389 885 OFFCURVE",
"364 858 OFFCURVE"
);
}
);
};
components = (
{
name = A;
},
{
name = brevecomb;
transform = "{1, 0, 0, 1, 240, 191}";
}
);
layerId = "D38D3CE8-FE00-46D7-8A67-935B0885B622";
width = 647;
},
{
background = {
anchors = (
{
name = bottom;
position = "{348, 0}";
},
{
name = ogonek;
position = "{667, 0}";
},
{
name = top;
position = "{339, 916}";
}
);
paths = (
{
closed = 1;
nodes = (
"10 0 LINE",
"106 0 LINE",
"189 208 LINE",
"487 208 LINE",
"571 0 LINE",
"667 0 LINE",
"377 710 LINE",
"301 710 LINE"
);
},
{
closed = 1;
nodes = (
"207 278 LINE",
"339 606 LINE",
"467 278 LINE"
);
},
{
closed = 1;
nodes = (
"339 848 CURVE SMOOTH",
"309 848 OFFCURVE",
"282 880 OFFCURVE",
"282 916 CURVE",
"231 916 LINE",
"231 853 OFFCURVE",
"278 805 OFFCURVE",
"339 805 CURVE SMOOTH",
"400 805 OFFCURVE",
"447 853 OFFCURVE",
"447 916 CURVE",
"397 916 LINE",
"393 877 OFFCURVE",
"368 848 OFFCURVE"
);
}
);
};
components = (
{
name = A;
},
{
name = brevecomb;
transform = "{1, 0, 0, 1, 207, 188}";
}
);
layerId = "51AEF656-B224-4228-B44D-D7CFD243EB09";
width = 652;
},
{
background = {
anchors = (
{
name = bottom;
position = "{345, 0}";
},
{
name = ogonek;
position = "{669, 0}";
},
{
name = top;
position = "{334, 914}";
}
);
paths = (
{
closed = 1;
nodes = (
"-2 0 LINE",
"197 0 LINE",
"239 139 LINE",
"428 139 LINE",
"471 0 LINE",
"669 0 LINE",
"443 710 LINE",
"225 710 LINE"
);
},
{
closed = 1;
nodes = (
"268 269 LINE",
"334 519 LINE",
"397 269 LINE"
);
},
{
closed = 1;
nodes = (
"334 833 CURVE SMOOTH",
"301 833 OFFCURVE",
"273 870 OFFCURVE",
"273 914 CURVE",
"175 914 LINE",
"175 819 OFFCURVE",
"240 752 OFFCURVE",
"334 752 CURVE SMOOTH",
"428 752 OFFCURVE",
"493 819 OFFCURVE",
"493 914 CURVE",
"395 914 LINE",
"391 867 OFFCURVE",
"365 833 OFFCURVE"
);
}
);
};
components = (
{
name = A;
},
{
name = brevecomb;
transform = "{1, 0, 0, 1, 147, 184}";
}
);
layerId = "985A8054-912F-442C-AEAA-CDACF2D0DECF";
width = 636;
}
);
leftKerningGroup = A;
rightKerningGroup = A;
unicode = 0102;
},
{
glyphname = Abreveacute;
lastChange = "2016-11-15 12:48:19 +0000";
layers = (
{
background = {
anchors = (
{
name = bottom;
position = "{347, 0}";
},
{
name = ogonek;
position = "{655, 0}";
},
{
name = top;
position = "{337, 1002}";
}
);
paths = (
{
closed = 1;
nodes = (
"18 0 LINE",
"40 0 LINE",
"151 254 LINE",
"522 254 LINE",
"633 0 LINE",
"655 0 LINE",
"346 710 LINE",
"328 710 LINE"
);
},
{
closed = 1;
nodes = (
"159 274 LINE",
"337 681 LINE",
"513 274 LINE"
);
},
{
closed = 1;
nodes = (
"327 802 CURVE SMOOTH",
"299 802 OFFCURVE",
"272 832 OFFCURVE",
"272 862 CURVE",
"253 862 LINE",
"253 821 OFFCURVE",
"288 785 OFFCURVE",
"327 785 CURVE SMOOTH",
"366 785 OFFCURVE",
"401 821 OFFCURVE",
"401 862 CURVE",
"383 862 LINE",
"379 829 OFFCURVE",
"354 802 OFFCURVE"
);
},
{
closed = 1;
nodes = (
"412 948 LINE",
"378 948 LINE",
"314 875 LINE",
"330 863 LINE"
);
}
);
};
components = (
{
name = A;
},
{
name = brevecomb_acutecomb;
transform = "{1, 0, 0, 1, 229, 191}";
}
);
layerId = "D38D3CE8-FE00-46D7-8A67-935B0885B622";
width = 647;
},
{
background = {
anchors = (
{
name = bottom;
position = "{348, 0}";
},
{
name = ogonek;
position = "{667, 0}";
},
{
name = top;
position = "{339, 1124}";
}
);
paths = (
{
closed = 1;
nodes = (
"10 0 LINE",
"106 0 LINE",
"189 208 LINE",
"487 208 LINE",
"571 0 LINE",
"667 0 LINE",
"377 710 LINE",
"301 710 LINE"
);
},
{
closed = 1;
nodes = (
"207 278 LINE",
"339 606 LINE",
"467 278 LINE"
);
},
{
closed = 1;
nodes = (
"339 819 CURVE SMOOTH",
"309 819 OFFCURVE",
"282 851 OFFCURVE",
"282 887 CURVE",
"231 887 LINE",
"231 824 OFFCURVE",
"278 776 OFFCURVE",
"339 776 CURVE SMOOTH",
"400 776 OFFCURVE",
"447 824 OFFCURVE",
"447 887 CURVE",
"397 887 LINE",
"393 848 OFFCURVE",
"368 819 OFFCURVE"
);
},
{
closed = 1;
nodes = (
"459 1019 LINE",
"371 1019 LINE",
"313 918 LINE",
"371 898 LINE"
);
}
);
};
components = (
{
name = A;
},
{
name = brevecomb_acutecomb;
transform = "{1, 0, 0, 1, 185, 188}";
}
);
layerId = "51AEF656-B224-4228-B44D-D7CFD243EB09";
width = 652;
},
{
background = {
anchors = (
{
name = bottom;
position = "{345, 0}";
},
{
name = ogonek;
position = "{669, 0}";
},
{
name = top;
position = "{334, 1118}";
}
);
paths = (
{
closed = 1;
nodes = (
"-2 0 LINE",
"197 0 LINE",
"239 139 LINE",
"428 139 LINE",
"471 0 LINE",
"669 0 LINE",
"443 710 LINE",
"225 710 LINE"
);
},
{
closed = 1;
nodes = (
"268 269 LINE",
"334 519 LINE",
"397 269 LINE"
);
},
{
closed = 1;
nodes = (
"325 833 CURVE SMOOTH",
"292 833 OFFCURVE",
"264 870 OFFCURVE",
"264 914 CURVE",
"166 914 LINE",
"166 819 OFFCURVE",
"231 752 OFFCURVE",
"325 752 CURVE SMOOTH",
"419 752 OFFCURVE",
"484 819 OFFCURVE",
"484 914 CURVE",
"386 914 LINE",
"382 867 OFFCURVE",
"356 833 OFFCURVE"
);
},
{
closed = 1;
nodes = (
"481 1098 LINE",
"312 1098 LINE",
"262 956 LINE",
"382 924 LINE"
);
}
);
};
components = (
{
name = A;
},
{
name = brevecomb_acutecomb;
transform = "{1, 0, 0, 1, 137, 184}";
}
);
layerId = "985A8054-912F-442C-AEAA-CDACF2D0DECF";
width = 636;
}
);
unicode = 1EAE;
},
{
glyphname = Abrevedotbelow;
lastChange = "2016-11-14 07:39:57 +0000";
layers = (
{
background = {
anchors = (
{
name = bottom;
position = "{347, -127}";
},
{
name = ogonek;
position = "{655, 0}";
},
{
name = top;
position = "{337, 841}";
}
);
paths = (
{
closed = 1;
nodes = (
"18 0 LINE",
"40 0 LINE",
"151 254 LINE",
"522 254 LINE",
"633 0 LINE",
"655 0 LINE",
"346 710 LINE",
"328 710 LINE"
);
},
{
closed = 1;
nodes = (
"159 274 LINE",
"337 681 LINE",
"513 274 LINE"
);
},
{
closed = 1;
nodes = (
"357 -127 LINE",
"357 -50 LINE",
"337 -50 LINE",
"337 -127 LINE"
);
},
{
closed = 1;
nodes = (
"337 858 CURVE SMOOTH",
"309 858 OFFCURVE",
"282 888 OFFCURVE",
"282 918 CURVE",
"263 918 LINE",
"263 877 OFFCURVE",
"298 841 OFFCURVE",
"337 841 CURVE SMOOTH",
"376 841 OFFCURVE",
"411 877 OFFCURVE",
"411 918 CURVE",
"393 918 LINE",
"389 885 OFFCURVE",
"364 858 OFFCURVE"
);
}
);
};
components = (
{
name = A;
},
{
name = dotbelowcomb;
transform = "{1, 0, 0, 1, 264, 0}";
},
{
alignment = 1;
name = brevecomb;
transform = "{1, 0, 0, 1, 240, 191}";
}
);
layerId = "D38D3CE8-FE00-46D7-8A67-935B0885B622";
width = 647;
},
{
background = {
anchors = (
{
name = bottom;
position = "{348, -187}";
},
{
name = ogonek;
position = "{667, 0}";
},
{
name = top;
position = "{339, 916}";
}
);
paths = (
{
closed = 1;
nodes = (
"10 0 LINE",
"106 0 LINE",
"189 208 LINE",
"487 208 LINE",
"571 0 LINE",
"667 0 LINE",
"377 710 LINE",
"301 710 LINE"
);
},
{
closed = 1;
nodes = (
"207 278 LINE",
"339 606 LINE",
"467 278 LINE"
);
},
{
closed = 1;
nodes = (
"388 -187 LINE",
"388 -81 LINE",
"308 -81 LINE",
"308 -187 LINE"
);
},
{
closed = 1;
nodes = (
"339 848 CURVE SMOOTH",
"309 848 OFFCURVE",
"282 880 OFFCURVE",
"282 916 CURVE",
"231 916 LINE",
"231 853 OFFCURVE",
"278 805 OFFCURVE",
"339 805 CURVE SMOOTH",
"400 805 OFFCURVE",
"447 853 OFFCURVE",
"447 916 CURVE",
"397 916 LINE",
"393 877 OFFCURVE",
"368 848 OFFCURVE"
);
}
);
};
components = (
{
name = A;
},
{
name = dotbelowcomb;
transform = "{1, 0, 0, 1, 237, 0}";
},
{
name = brevecomb;
transform = "{1, 0, 0, 1, 207, 188}";
}
);
layerId = "51AEF656-B224-4228-B44D-D7CFD243EB09";
width = 652;
},
{
background = {
anchors = (
{
name = bottom;
position = "{345, -214}";
},
{
name = ogonek;
position = "{669, 0}";
},
{
name = top;
position = "{334, 914}";
}
);
paths = (
{
closed = 1;
nodes = (
"-2 0 LINE",
"197 0 LINE",
"239 139 LINE",
"428 139 LINE",
"471 0 LINE",
"669 0 LINE",
"443 710 LINE",
"225 710 LINE"
);
},
{
closed = 1;
nodes = (
"268 269 LINE",
"334 519 LINE",
"397 269 LINE"
);
},
{
closed = 1;
nodes = (
"430 -214 LINE",
"430 -64 LINE",
"260 -64 LINE",
"260 -214 LINE"
);
},
{
closed = 1;
nodes = (
"334 833 CURVE SMOOTH",
"301 833 OFFCURVE",
"273 870 OFFCURVE",
"273 914 CURVE",
"175 914 LINE",
"175 819 OFFCURVE",
"240 752 OFFCURVE",
"334 752 CURVE SMOOTH",
"428 752 OFFCURVE",
"493 819 OFFCURVE",
"493 914 CURVE",
"395 914 LINE",
"391 867 OFFCURVE",
"365 833 OFFCURVE"
);
}
);
};
components = (
{
name = A;
},
{
name = dotbelowcomb;
transform = "{1, 0, 0, 1, 183, 0}";
},
{
name = brevecomb;
transform = "{1, 0, 0, 1, 147, 184}";
}
);
layerId = "985A8054-912F-442C-AEAA-CDACF2D0DECF";
width = 636;
}
);
unicode = 1EB6;
},
{
glyphname = Abrevegrave;
lastChange = "2016-11-15 12:48:19 +0000";
layers = (
{
background = {
anchors = (
{
name = bottom;
position = "{347, 0}";
},
{
name = ogonek;
position = "{655, 0}";
},
{
name = top;
position = "{337, 960}";
}
);
paths = (
{
closed = 1;
nodes = (
"18 0 LINE",
"40 0 LINE",
"151 254 LINE",
"522 254 LINE",
"633 0 LINE",
"655 0 LINE",
"346 710 LINE",
"328 710 LINE"
);
},
{
closed = 1;
nodes = (
"159 274 LINE",
"337 681 LINE",
"513 274 LINE"
);
},
{
closed = 1;
nodes = (
"336 801 CURVE SMOOTH",
"308 801 OFFCURVE",
"281 831 OFFCURVE",
"281 861 CURVE",
"262 861 LINE",
"262 820 OFFCURVE",
"297 784 OFFCURVE",
"336 784 CURVE SMOOTH",
"375 784 OFFCURVE",
"410 820 OFFCURVE",
"410 861 CURVE",
"392 861 LINE",
"388 828 OFFCURVE",
"363 801 OFFCURVE"
);
},
{
closed = 1;
nodes = (
"339 870 LINE",
"355 882 LINE",
"290 955 LINE",
"257 955 LINE"
);
}
);
};
components = (
{
name = A;
},
{
name = brevecomb_gravecomb;
transform = "{1, 0, 0, 1, 254, 191}";
}
);
layerId = "D38D3CE8-FE00-46D7-8A67-935B0885B622";
width = 647;
},
{
background = {
anchors = (
{
name = bottom;
position = "{348, 0}";
},
{
name = ogonek;
position = "{667, 0}";
},
{
name = top;
position = "{349, 1124}";
}
);
paths = (
{
closed = 1;
nodes = (
"10 0 LINE",
"106 0 LINE",
"189 208 LINE",
"487 208 LINE",
"571 0 LINE",
"667 0 LINE",
"377 710 LINE",
"301 710 LINE"
);
},
{
closed = 1;
nodes = (
"207 278 LINE",
"339 606 LINE",
"467 278 LINE"
);
},
{
closed = 1;
nodes = (
"332 818 CURVE SMOOTH",
"302 818 OFFCURVE",
"275 850 OFFCURVE",
"275 886 CURVE",
"224 886 LINE",
"224 823 OFFCURVE",
"271 775 OFFCURVE",
"332 775 CURVE SMOOTH",
"393 775 OFFCURVE",
"440 823 OFFCURVE",
"440 886 CURVE",
"390 886 LINE",
"386 847 OFFCURVE",
"361 818 OFFCURVE"
);
},
{
closed = 1;
nodes = (
"311 893 LINE",
"368 913 LINE",
"309 1014 LINE",
"222 1014 LINE"
);
}
);
};
components = (
{
name = A;
},
{
name = brevecomb_gravecomb;
transform = "{1, 0, 0, 1, 220, 188}";
}
);
layerId = "51AEF656-B224-4228-B44D-D7CFD243EB09";
width = 652;
},
{
background = {
anchors = (
{
name = bottom;
position = "{345, 0}";
},
{
name = ogonek;
position = "{669, 0}";
},
{
name = top;
position = "{334, 1118}";
}
);
paths = (
{
closed = 1;
nodes = (
"-2 0 LINE",
"197 0 LINE",
"239 139 LINE",
"428 139 LINE",
"471 0 LINE",
"669 0 LINE",
"443 710 LINE",
"225 710 LINE"
);
},
{
closed = 1;
nodes = (
"268 269 LINE",
"334 519 LINE",
"397 269 LINE"
);
},
{
closed = 1;
nodes = (
"326 833 CURVE SMOOTH",
"293 833 OFFCURVE",
"265 870 OFFCURVE",
"265 914 CURVE",
"167 914 LINE",
"167 819 OFFCURVE",
"232 752 OFFCURVE",
"326 752 CURVE SMOOTH",
"420 752 OFFCURVE",
"485 819 OFFCURVE",
"485 914 CURVE",
"387 914 LINE",
"383 867 OFFCURVE",
"357 833 OFFCURVE"
);
},
{
closed = 1;
nodes = (
"275 944 LINE",
"395 976 LINE",
"345 1118 LINE",
"176 1118 LINE"
);
}
);
};
components = (
{
name = A;
},
{
name = brevecomb_gravecomb;
transform = "{1, 0, 0, 1, 147, 184}";
}
);
layerId = "985A8054-912F-442C-AEAA-CDACF2D0DECF";
width = 636;
}
);
unicode = 1EB0;
},
{
glyphname = Abrevehookabove;
lastChange = "2016-11-15 23:15:38 +0000";
layers = (
{
background = {
anchors = (
{
name = bottom;
position = "{347, 0}";
},
{
name = ogonek;
position = "{655, 0}";
},
{
name = top;
position = "{337, 1005}";
}
);
paths = (
{
closed = 1;
nodes = (
"18 0 LINE",
"40 0 LINE",
"151 254 LINE",
"522 254 LINE",
"633 0 LINE",
"655 0 LINE",
"346 710 LINE",
"328 710 LINE"
);
},
{
closed = 1;
nodes = (
"159 274 LINE",
"337 681 LINE",
"513 274 LINE"
);
},
{
closed = 1;
nodes = (
"328 802 CURVE SMOOTH",
"300 802 OFFCURVE",
"273 832 OFFCURVE",
"273 862 CURVE",
"254 862 LINE",
"254 821 OFFCURVE",
"289 785 OFFCURVE",
"328 785 CURVE SMOOTH",
"367 785 OFFCURVE",
"402 821 OFFCURVE",
"402 862 CURVE",
"384 862 LINE",
"380 829 OFFCURVE",
"355 802 OFFCURVE"
);
},
{
closed = 1;
nodes = (
"293 965 OFFCURVE",
"303 973 OFFCURVE",
"321 973 CURVE SMOOTH",
"350 973 OFFCURVE",
"362 955 OFFCURVE",
"362 934 CURVE SMOOTH",
"362 918 OFFCURVE",
"349 902 OFFCURVE",
"328 878 CURVE",
"340 867 LINE",
"363 893 OFFCURVE",
"380 908 OFFCURVE",
"380 934 CURVE SMOOTH",
"380 970 OFFCURVE",
"355 991 OFFCURVE",
"323 991 CURVE SMOOTH",
"297 991 OFFCURVE",
"282 980 OFFCURVE",
"261 961 CURVE",
"273 948 LINE"
);
}
);
};
components = (
{
name = A;
},
{
name = brevecomb_hookabovecomb;
transform = "{1, 0, 0, 1, 240, 191}";
}
);
layerId = "D38D3CE8-FE00-46D7-8A67-935B0885B622";
width = 647;
},
{
background = {
anchors = (
{
name = bottom;
position = "{348, 0}";
},
{
name = ogonek;
position = "{667, 0}";
},
{
name = top;
position = "{339, 1175}";
}
);
paths = (
{
closed = 1;
nodes = (
"10 0 LINE",
"106 0 LINE",
"189 208 LINE",
"487 208 LINE",
"571 0 LINE",
"667 0 LINE",
"377 710 LINE",
"301 710 LINE"
);
},
{
closed = 1;
nodes = (
"207 278 LINE",
"339 606 LINE",
"467 278 LINE"
);
},
{
closed = 1;
nodes = (
"339 822 CURVE SMOOTH",
"309 822 OFFCURVE",
"282 854 OFFCURVE",
"282 890 CURVE",
"231 890 LINE",
"231 827 OFFCURVE",
"278 779 OFFCURVE",
"339 779 CURVE SMOOTH",
"400 779 OFFCURVE",
"447 827 OFFCURVE",
"447 890 CURVE",
"397 890 LINE",
"393 851 OFFCURVE",
"368 822 OFFCURVE"
);
},
{
closed = 1;
nodes = (
"292 979 OFFCURVE",
"302 984 OFFCURVE",
"319 984 CURVE SMOOTH",
"335 984 OFFCURVE",
"346 972 OFFCURVE",
"346 957 CURVE SMOOTH",
"346 941 OFFCURVE",
"340 927 OFFCURVE",
"317 906 CURVE",
"342 877 LINE",
"381 909 OFFCURVE",
"398 938 OFFCURVE",
"398 965 CURVE SMOOTH",
"398 998 OFFCURVE",
"375 1031 OFFCURVE",
"327 1031 CURVE SMOOTH",
"292 1031 OFFCURVE",
"265 1017 OFFCURVE",
"240 995 CURVE",
"273 962 LINE"
);
}
);
};
components = (
{
name = A;
},
{
name = brevecomb_hookabovecomb;
transform = "{1, 0, 0, 1, 205, 188}";
}
);
layerId = "51AEF656-B224-4228-B44D-D7CFD243EB09";
width = 652;
},
{
background = {
anchors = (
{
name = bottom;
position = "{345, 0}";
},
{
name = ogonek;
position = "{669, 0}";
},
{
name = top;
position = "{334, 1173}";
}
);
paths = (
{
closed = 1;
nodes = (
"-2 0 LINE",
"197 0 LINE",
"239 139 LINE",
"428 139 LINE",
"471 0 LINE",
"669 0 LINE",
"443 710 LINE",
"225 710 LINE"
);
},
{
closed = 1;
nodes = (
"268 269 LINE",
"334 519 LINE",
"397 269 LINE"
);
},
{
closed = 1;
nodes = (
"336 833 CURVE SMOOTH",
"303 833 OFFCURVE",
"275 870 OFFCURVE",
"275 914 CURVE",
"177 914 LINE",
"177 819 OFFCURVE",
"242 752 OFFCURVE",
"336 752 CURVE SMOOTH",
"430 752 OFFCURVE",
"495 819 OFFCURVE",
"495 914 CURVE",
"397 914 LINE",
"393 867 OFFCURVE",
"367 833 OFFCURVE"
);
},
{
closed = 1;
nodes = (
"272 1029 OFFCURVE",
"283 1039 OFFCURVE",
"302 1039 CURVE SMOOTH",
"321 1039 OFFCURVE",
"332 1026 OFFCURVE",
"332 1009 CURVE SMOOTH",
"332 991 OFFCURVE",
"318 976 OFFCURVE",
"296 961 CURVE",
"341 914 LINE",
"391 955 OFFCURVE",
"415 983 OFFCURVE",
"415 1037 CURVE SMOOTH",
"415 1088 OFFCURVE",
"376 1121 OFFCURVE",
"317 1121 CURVE SMOOTH",
"278 1121 OFFCURVE",
"242 1105 OFFCURVE",
"201 1062 CURVE",
"252 1012 LINE"
);
}
);
};
components = (
{
name = A;
},
{
name = brevecomb_hookabovecomb;
transform = "{1, 0, 0, 1, 151, 184}";
}
);
layerId = "985A8054-912F-442C-AEAA-CDACF2D0DECF";
width = 636;
}
);
unicode = 1EB2;
},
{
glyphname = Abrevetilde;
lastChange = "2016-11-15 12:48:19 +0000";
layers = (
{
background = {
anchors = (
{
name = bottom;
position = "{347, 0}";
},
{
name = ogonek;
position = "{655, 0}";
},
{
name = top;
position = "{337, 1000}";
}
);
paths = (
{
closed = 1;
nodes = (
"18 0 LINE",
"40 0 LINE",
"151 254 LINE",
"522 254 LINE",
"633 0 LINE",
"655 0 LINE",
"346 710 LINE",
"328 710 LINE"
);
},
{
closed = 1;
nodes = (
"159 274 LINE",
"337 681 LINE",
"513 274 LINE"
);
},
{
closed = 1;
nodes = (
"325 802 CURVE SMOOTH",
"297 802 OFFCURVE",
"270 832 OFFCURVE",
"270 862 CURVE",
"251 862 LINE",
"251 821 OFFCURVE",
"286 785 OFFCURVE",
"325 785 CURVE SMOOTH",
"364 785 OFFCURVE",
"399 821 OFFCURVE",
"399 862 CURVE",
"381 862 LINE",
"377 829 OFFCURVE",
"352 802 OFFCURVE"
);
},
{
closed = 1;
nodes = (
"392 901 CURVE SMOOTH",
"465 901 OFFCURVE",
"473 959 OFFCURVE",
"473 968 CURVE",
"453 968 LINE",
"453 964 OFFCURVE",
"449 920 OFFCURVE",
"394 920 CURVE SMOOTH",
"343 920 OFFCURVE",
"321 958 OFFCURVE",
"269 958 CURVE SMOOTH",
"203 958 OFFCURVE",
"196 897 OFFCURVE",
"196 891 CURVE",
"216 891 LINE",
"216 897 OFFCURVE",
"224 939 OFFCURVE",
"267 939 CURVE SMOOTH",
"308 939 OFFCURVE",
"333 901 OFFCURVE"
);
}
);
};
components = (
{
name = A;
},
{
name = brevecomb_tildecomb;
transform = "{1, 0, 0, 1, 217, 191}";
}
);
layerId = "D38D3CE8-FE00-46D7-8A67-935B0885B622";
width = 647;
},
{
background = {
anchors = (
{
name = bottom;
position = "{348, 0}";
},
{
name = ogonek;
position = "{667, 0}";
},
{
name = top;
position = "{344, 1124}";
}
);
paths = (
{
closed = 1;
nodes = (
"10 0 LINE",
"106 0 LINE",
"189 208 LINE",
"487 208 LINE",
"571 0 LINE",
"667 0 LINE",
"377 710 LINE",
"301 710 LINE"
);
},
{
closed = 1;
nodes = (
"207 278 LINE",
"339 606 LINE",
"467 278 LINE"
);
},
{
closed = 1;
nodes = (
"324 821 CURVE SMOOTH",
"294 821 OFFCURVE",
"267 853 OFFCURVE",
"267 889 CURVE",
"216 889 LINE",
"216 826 OFFCURVE",
"263 778 OFFCURVE",
"324 778 CURVE SMOOTH",
"385 778 OFFCURVE",
"432 826 OFFCURVE",
"432 889 CURVE",
"382 889 LINE",
"378 850 OFFCURVE",
"353 821 OFFCURVE"
);
},
{
closed = 1;
nodes = (
"386 918 CURVE SMOOTH",
"471 918 OFFCURVE",
"492 1006 OFFCURVE",
"492 1021 CURVE",
"440 1021 LINE",
"440 1017 OFFCURVE",
"435 972 OFFCURVE",
"384 972 CURVE SMOOTH",
"335 972 OFFCURVE",
"312 1015 OFFCURVE",
"255 1015 CURVE SMOOTH",
"176 1015 OFFCURVE",
"156 929 OFFCURVE",
"156 912 CURVE",
"208 912 LINE",
"208 916 OFFCURVE",
"213 960 OFFCURVE",
"257 960 CURVE SMOOTH",
"300 960 OFFCURVE",
"326 918 OFFCURVE"
);
}
);
};
components = (
{
name = A;
},
{
name = brevecomb_tildecomb;
transform = "{1, 0, 0, 1, 185, 188}";
}
);
layerId = "51AEF656-B224-4228-B44D-D7CFD243EB09";
width = 652;
},
{
background = {
anchors = (
{
name = bottom;
position = "{345, 0}";
},
{
name = ogonek;
position = "{669, 0}";
},
{
name = top;
position = "{334, 1118}";
}
);
paths = (
{
closed = 1;
nodes = (
"-2 0 LINE",
"197 0 LINE",
"239 139 LINE",
"428 139 LINE",
"471 0 LINE",
"669 0 LINE",
"443 710 LINE",
"225 710 LINE"
);
},
{
closed = 1;
nodes = (
"268 269 LINE",
"334 519 LINE",
"397 269 LINE"
);
},
{
closed = 1;
nodes = (
"309 833 CURVE SMOOTH",
"276 833 OFFCURVE",
"248 870 OFFCURVE",
"248 914 CURVE",
"150 914 LINE",
"150 819 OFFCURVE",
"215 752 OFFCURVE",
"309 752 CURVE SMOOTH",
"403 752 OFFCURVE",
"468 819 OFFCURVE",
"468 914 CURVE",
"370 914 LINE",
"366 867 OFFCURVE",
"340 833 OFFCURVE"
);
},
{
closed = 1;
nodes = (
"378 960 CURVE SMOOTH",
"481 960 OFFCURVE",
"521 1095 OFFCURVE",
"521 1118 CURVE",
"421 1118 LINE",
"421 1115 OFFCURVE",
"415 1067 OFFCURVE",
"371 1067 CURVE SMOOTH",
"325 1067 OFFCURVE",
"301 1118 OFFCURVE",
"236 1118 CURVE SMOOTH",
"136 1118 OFFCURVE",
"97 995 OFFCURVE",
"97 960 CURVE",
"198 960 LINE",
"198 962 OFFCURVE",
"199 1008 OFFCURVE",
"244 1008 CURVE SMOOTH",
"289 1008 OFFCURVE",
"317 960 OFFCURVE"
);
}
);
};
components = (
{
name = A;
},
{
name = brevecomb_tildecomb;
transform = "{1, 0, 0, 1, 125, 184}";
}
);
layerId = "985A8054-912F-442C-AEAA-CDACF2D0DECF";
width = 636;
}
);
unicode = 1EB4;
},
{
glyphname = Acircumflex;
lastChange = "2016-11-14 07:57:27 +0000";
layers = (
{
background = {
anchors = (
{
name = bottom;
position = "{347, 0}";
},
{
name = ogonek;
position = "{655, 0}";
},
{
name = top;
position = "{337, 918}";
}
);
paths = (
{
closed = 1;
nodes = (
"18 0 LINE",
"40 0 LINE",
"151 254 LINE",
"522 254 LINE",
"633 0 LINE",
"655 0 LINE",
"346 710 LINE",
"328 710 LINE"
);
},
{
closed = 1;
nodes = (
"159 274 LINE",
"337 681 LINE",
"513 274 LINE"
);
},
{
closed = 1;
nodes = (
"252 832 LINE",
"337 895 LINE",
"422 832 LINE",
"438 844 LINE",
"345 918 LINE",
"329 918 LINE",
"236 844 LINE"
);
}
);
};
components = (
{
name = A;
},
{
name = circumflexcomb;
transform = "{1, 0, 0, 1, 220, 191}";
}
);
layerId = "D38D3CE8-FE00-46D7-8A67-935B0885B622";
width = 647;
},
{
background = {
anchors = (
{
name = bottom;
position = "{348, 0}";
},
{
name = ogonek;
position = "{667, 0}";
},
{
name = top;
position = "{339, 916}";
}
);
paths = (
{
closed = 1;
nodes = (
"10 0 LINE",
"106 0 LINE",
"189 208 LINE",
"487 208 LINE",
"571 0 LINE",
"667 0 LINE",
"377 710 LINE",
"301 710 LINE"
);
},
{
closed = 1;
nodes = (
"207 278 LINE",
"339 606 LINE",
"467 278 LINE"
);
},
{
closed = 1;
nodes = (
"254 802 LINE",
"339 865 LINE",
"424 802 LINE",
"472 826 LINE",
"371 916 LINE",
"307 916 LINE",
"206 826 LINE"
);
}
);
};
components = (
{
name = A;
},
{
name = circumflexcomb;
transform = "{1, 0, 0, 1, 192, 188}";
}
);
layerId = "51AEF656-B224-4228-B44D-D7CFD243EB09";
width = 652;
},
{
background = {
anchors = (
{
name = bottom;
position = "{345, 0}";
},
{
name = ogonek;
position = "{669, 0}";
},
{
name = top;
position = "{334, 914}";
}
);
paths = (
{
closed = 1;
nodes = (
"-2 0 LINE",
"197 0 LINE",
"239 139 LINE",
"428 139 LINE",
"471 0 LINE",
"669 0 LINE",
"443 710 LINE",
"225 710 LINE"
);
},
{
closed = 1;
nodes = (
"268 269 LINE",
"334 519 LINE",
"397 269 LINE"
);
},
{
closed = 1;
nodes = (
"249 757 LINE",
"334 820 LINE",
"419 757 LINE",
"515 799 LINE",
"402 914 LINE",
"266 914 LINE",
"153 799 LINE"
);
}
);
};
components = (
{
name = A;
},
{
name = circumflexcomb;
transform = "{1, 0, 0, 1, 135, 184}";
}
);
layerId = "985A8054-912F-442C-AEAA-CDACF2D0DECF";
width = 636;
}
);
leftKerningGroup = A;
rightKerningGroup = A;
unicode = 00C2;
},
{
glyphname = Acircumflexacute;
lastChange = "2016-11-15 23:15:38 +0000";
layers = (
{
background = {
anchors = (
{
name = bottom;
position = "{347, 0}";
},
{
name = ogonek;
position = "{655, 0}";
},
{
name = top;
position = "{335, 928}";
}
);
paths = (
{
closed = 1;
nodes = (
"18 0 LINE",
"40 0 LINE",
"151 254 LINE",
"522 254 LINE",
"633 0 LINE",
"655 0 LINE",
"346 710 LINE",
"328 710 LINE"
);
},
{
closed = 1;
nodes = (
"159 274 LINE",
"337 681 LINE",
"513 274 LINE"
);
},
{
closed = 1;
nodes = (
"249 785 LINE",
"334 848 LINE",
"419 785 LINE",
"435 797 LINE",
"342 871 LINE",
"326 871 LINE",
"233 797 LINE"
);
},
{
closed = 1;
nodes = (
"514 915 LINE",
"480 915 LINE",
"416 842 LINE",
"432 830 LINE"
);
}
);
};
components = (
{
name = A;
},
{
name = circumflexcomb_acutecomb;
transform = "{1, 0, 0, 1, 214, 191}";
}
);
layerId = "D38D3CE8-FE00-46D7-8A67-935B0885B622";
width = 647;
},
{
background = {
anchors = (
{
name = bottom;
position = "{348, 0}";
},
{
name = ogonek;
position = "{667, 0}";
},
{
name = top;
position = "{289, 1124}";
}
);
paths = (
{
closed = 1;
nodes = (
"10 0 LINE",
"106 0 LINE",
"189 208 LINE",
"487 208 LINE",
"571 0 LINE",
"667 0 LINE",
"377 710 LINE",
"301 710 LINE"
);
},
{
closed = 1;
nodes = (
"207 278 LINE",
"339 606 LINE",
"467 278 LINE"
);
},
{
closed = 1;
nodes = (
"242 778 LINE",
"327 841 LINE",
"412 778 LINE",
"460 802 LINE",
"359 892 LINE",
"295 892 LINE",
"194 802 LINE"
);
},
{
closed = 1;
nodes = (
"570 989 LINE",
"482 989 LINE",
"424 888 LINE",
"482 868 LINE"
);
}
);
};
components = (
{
name = A;
},
{
name = circumflexcomb_acutecomb;
transform = "{1, 0, 0, 1, 187, 188}";
}
);
layerId = "51AEF656-B224-4228-B44D-D7CFD243EB09";
width = 652;
},
{
background = {
anchors = (
{
name = bottom;
position = "{345, 0}";
},
{
name = ogonek;
position = "{669, 0}";
},
{
name = top;
position = "{334, 1118}";
}
);
paths = (
{
closed = 1;
nodes = (
"-2 0 LINE",
"197 0 LINE",
"239 139 LINE",
"428 139 LINE",
"471 0 LINE",
"669 0 LINE",
"443 710 LINE",
"225 710 LINE"
);
},
{
closed = 1;
nodes = (
"268 269 LINE",
"334 519 LINE",
"397 269 LINE"
);
},
{
closed = 1;
nodes = (
"249 757 LINE",
"334 820 LINE",
"419 757 LINE",
"515 799 LINE",
"402 914 LINE",
"266 914 LINE",
"153 799 LINE"
);
},
{
closed = 1;
nodes = (
"663 1041 LINE",
"494 1041 LINE",
"444 899 LINE",
"564 867 LINE"
);
}
);
};
components = (
{
name = A;
},
{
name = circumflexcomb_acutecomb;
transform = "{1, 0, 0, 1, 129, 184}";
}
);
layerId = "985A8054-912F-442C-AEAA-CDACF2D0DECF";
width = 636;
}
);
unicode = 1EA4;
},
{
glyphname = Acircumflexdotbelow;
lastChange = "2016-11-14 07:57:27 +0000";
layers = (
{
background = {
anchors = (
{
name = bottom;
position = "{347, -127}";
},
{
name = ogonek;
position = "{655, 0}";
},
{
name = top;
position = "{337, 918}";
}
);
paths = (
{
closed = 1;
nodes = (
"18 0 LINE",
"40 0 LINE",
"151 254 LINE",
"522 254 LINE",
"633 0 LINE",
"655 0 LINE",
"346 710 LINE",
"328 710 LINE"
);
},
{
closed = 1;
nodes = (
"159 274 LINE",
"337 681 LINE",
"513 274 LINE"
);
},
{
closed = 1;
nodes = (
"357 -127 LINE",
"357 -50 LINE",
"337 -50 LINE",
"337 -127 LINE"
);
},
{
closed = 1;
nodes = (
"252 832 LINE",
"337 895 LINE",
"422 832 LINE",
"438 844 LINE",
"345 918 LINE",
"329 918 LINE",
"236 844 LINE"
);
}
);
};
components = (
{
name = A;
},
{
name = dotbelowcomb;
transform = "{1, 0, 0, 1, 264, 0}";
},
{
name = circumflexcomb;
transform = "{1, 0, 0, 1, 220, 191}";
}
);
layerId = "D38D3CE8-FE00-46D7-8A67-935B0885B622";
width = 647;
},
{
background = {
anchors = (
{
name = bottom;
position = "{348, -187}";
},
{
name = ogonek;
position = "{667, 0}";
},
{
name = top;
position = "{339, 916}";
}
);
paths = (
{
closed = 1;
nodes = (
"10 0 LINE",
"106 0 LINE",
"189 208 LINE",
"487 208 LINE",
"571 0 LINE",
"667 0 LINE",
"377 710 LINE",
"301 710 LINE"
);
},
{
closed = 1;
nodes = (
"207 278 LINE",
"339 606 LINE",
"467 278 LINE"
);
},
{
closed = 1;
nodes = (
"388 -187 LINE",
"388 -81 LINE",
"308 -81 LINE",
"308 -187 LINE"
);
},
{
closed = 1;
nodes = (
"254 802 LINE",
"339 865 LINE",
"424 802 LINE",
"472 826 LINE",
"371 916 LINE",
"307 916 LINE",
"206 826 LINE"
);
}
);
};
components = (
{
name = A;
},
{
name = dotbelowcomb;
transform = "{1, 0, 0, 1, 237, 0}";
},
{
name = circumflexcomb;
transform = "{1, 0, 0, 1, 192, 188}";
}
);
layerId = "51AEF656-B224-4228-B44D-D7CFD243EB09";
width = 652;
},
{
background = {
anchors = (
{
name = bottom;
position = "{345, -214}";
},
{
name = ogonek;
position = "{669, 0}";
},
{
name = top;
position = "{334, 914}";
}
);
paths = (
{
closed = 1;
nodes = (
"-2 0 LINE",
"197 0 LINE",
"239 139 LINE",
"428 139 LINE",
"471 0 LINE",
"669 0 LINE",
"443 710 LINE",
"225 710 LINE"
);
},
{
closed = 1;
nodes = (
"268 269 LINE",
"334 519 LINE",
"397 269 LINE"
);
},
{
closed = 1;
nodes = (
"430 -214 LINE",
"430 -64 LINE",
"260 -64 LINE",
"260 -214 LINE"
);
},
{
closed = 1;
nodes = (
"249 757 LINE",
"334 820 LINE",
"419 757 LINE",
"515 799 LINE",
"402 914 LINE",
"266 914 LINE",
"153 799 LINE"
);
}
);
};
components = (
{
name = A;
},
{
name = dotbelowcomb;
transform = "{1, 0, 0, 1, 183, 0}";
},
{
name = circumflexcomb;
transform = "{1, 0, 0, 1, 135, 184}";
}
);
layerId = "985A8054-912F-442C-AEAA-CDACF2D0DECF";
width = 636;
}
);
unicode = 1EAC;
},
{
glyphname = Acircumflexgrave;
lastChange = "2016-11-15 23:15:38 +0000";
layers = (
{
background = {
anchors = (
{
name = bottom;
position = "{347, 0}";
},
{
name = ogonek;
position = "{655, 0}";
},
{
name = top;
position = "{338, 988}";
}
);
paths = (
{
closed = 1;
nodes = (
"18 0 LINE",
"40 0 LINE",
"151 254 LINE",
"522 254 LINE",
"633 0 LINE",
"655 0 LINE",
"346 710 LINE",
"328 710 LINE"
);
},
{
closed = 1;
nodes = (
"159 274 LINE",
"337 681 LINE",
"513 274 LINE"
);
},
{
closed = 1;
nodes = (
"248 785 LINE",
"333 848 LINE",
"418 785 LINE",
"434 797 LINE",
"341 871 LINE",
"325 871 LINE",
"232 797 LINE"
);
},
{
closed = 1;
nodes = (
"237 846 LINE",
"253 858 LINE",
"188 931 LINE",
"155 931 LINE"
);
}
);
};
components = (
{
name = A;
},
{
name = circumflexcomb_gravecomb;
transform = "{1, 0, 0, 1, 163, 191}";
}
);
layerId = "D38D3CE8-FE00-46D7-8A67-935B0885B622";
width = 647;
},
{
background = {
anchors = (
{
name = bottom;
position = "{348, 0}";
},
{
name = ogonek;
position = "{667, 0}";
},
{
name = top;
position = "{342, 896}";
}
);
paths = (
{
closed = 1;
nodes = (
"10 0 LINE",
"106 0 LINE",
"189 208 LINE",
"487 208 LINE",
"571 0 LINE",
"667 0 LINE",
"377 710 LINE",
"301 710 LINE"
);
},
{
closed = 1;
nodes = (
"207 278 LINE",
"339 606 LINE",
"467 278 LINE"
);
},
{
closed = 1;
nodes = (
"262 779 LINE",
"347 842 LINE",
"432 779 LINE",
"480 803 LINE",
"379 893 LINE",
"315 893 LINE",
"214 803 LINE"
);
},
{
closed = 1;
nodes = (
"194 853 LINE",
"251 873 LINE",
"192 974 LINE",
"105 974 LINE"
);
}
);
};
components = (
{
name = A;
},
{
name = circumflexcomb_gravecomb;
transform = "{1, 0, 0, 1, 94, 188}";
}
);
layerId = "51AEF656-B224-4228-B44D-D7CFD243EB09";
width = 652;
},
{
background = {
anchors = (
{
name = bottom;
position = "{345, 0}";
},
{
name = ogonek;
position = "{669, 0}";
},
{
name = top;
position = "{334, 1118}";
}
);
paths = (
{
closed = 1;
nodes = (
"-2 0 LINE",
"197 0 LINE",
"239 139 LINE",
"428 139 LINE",
"471 0 LINE",
"669 0 LINE",
"443 710 LINE",
"225 710 LINE"
);
},
{
closed = 1;
nodes = (
"268 269 LINE",
"334 519 LINE",
"397 269 LINE"
);
},
{
closed = 1;
nodes = (
"239 757 LINE",
"324 820 LINE",
"409 757 LINE",
"505 799 LINE",
"392 914 LINE",
"256 914 LINE",
"143 799 LINE"
);
},
{
closed = 1;
nodes = (
"88 868 LINE",
"208 900 LINE",
"158 1042 LINE",
"-11 1042 LINE"
);
}
);
};
components = (
{
name = A;
},
{
name = circumflexcomb_gravecomb;
transform = "{1, 0, 0, 1, 3, 184}";
}
);
layerId = "985A8054-912F-442C-AEAA-CDACF2D0DECF";
width = 636;
}
);
unicode = 1EA6;
},
{
glyphname = Acircumflexhookabove;
lastChange = "2016-11-15 23:15:38 +0000";
layers = (
{
background = {
anchors = (
{
name = bottom;
position = "{347, 0}";
},
{
name = ogonek;
position = "{655, 0}";
},
{
name = top;
position = "{334, 963}";
}
);
paths = (
{
closed = 1;
nodes = (
"18 0 LINE",
"40 0 LINE",
"151 254 LINE",
"522 254 LINE",
"633 0 LINE",
"655 0 LINE",
"346 710 LINE",
"328 710 LINE"
);
},
{
closed = 1;
nodes = (
"159 274 LINE",
"337 681 LINE",
"513 274 LINE"
);
},
{
closed = 1;
nodes = (
"247 785 LINE",
"332 848 LINE",
"417 785 LINE",
"433 797 LINE",
"340 871 LINE",
"324 871 LINE",
"231 797 LINE"
);
},
{
closed = 1;
nodes = (
"382 945 OFFCURVE",
"392 953 OFFCURVE",
"410 953 CURVE SMOOTH",
"439 953 OFFCURVE",
"451 935 OFFCURVE",
"451 914 CURVE SMOOTH",
"451 898 OFFCURVE",
"438 882 OFFCURVE",
"417 858 CURVE",
"429 847 LINE",
"452 873 OFFCURVE",
"469 888 OFFCURVE",
"469 914 CURVE SMOOTH",
"469 950 OFFCURVE",
"444 971 OFFCURVE",
"412 971 CURVE SMOOTH",
"386 971 OFFCURVE",
"371 960 OFFCURVE",
"350 941 CURVE",
"362 928 LINE"
);
}
);
};
components = (
{
name = A;
},
{
name = circumflexcomb_hookabovecomb;
transform = "{1, 0, 0, 1, 214, 191}";
}
);
layerId = "D38D3CE8-FE00-46D7-8A67-935B0885B622";
width = 647;
},
{
background = {
anchors = (
{
name = bottom;
position = "{348, 0}";
},
{
name = ogonek;
position = "{667, 0}";
},
{
name = top;
position = "{339, 935}";
}
);
paths = (
{
closed = 1;
nodes = (
"10 0 LINE",
"106 0 LINE",
"189 208 LINE",
"487 208 LINE",
"571 0 LINE",
"667 0 LINE",
"377 710 LINE",
"301 710 LINE"
);
},
{
closed = 1;
nodes = (
"207 278 LINE",
"339 606 LINE",
"467 278 LINE"
);
},
{
closed = 1;
nodes = (
"242 779 LINE",
"327 842 LINE",
"412 779 LINE",
"460 803 LINE",
"359 893 LINE",
"295 893 LINE",
"194 803 LINE"
);
},
{
closed = 1;
nodes = (
"426 941 OFFCURVE",
"436 946 OFFCURVE",
"453 946 CURVE SMOOTH",
"469 946 OFFCURVE",
"480 934 OFFCURVE",
"480 919 CURVE SMOOTH",
"480 903 OFFCURVE",
"474 889 OFFCURVE",
"451 868 CURVE",
"476 839 LINE",
"515 871 OFFCURVE",
"532 900 OFFCURVE",
"532 927 CURVE SMOOTH",
"532 960 OFFCURVE",
"509 993 OFFCURVE",
"461 993 CURVE SMOOTH",
"426 993 OFFCURVE",
"399 979 OFFCURVE",
"374 957 CURVE",
"407 924 LINE"
);
}
);
};
components = (
{
name = A;
},
{
name = circumflexcomb_hookabovecomb;
transform = "{1, 0, 0, 1, 187, 188}";
}
);
layerId = "51AEF656-B224-4228-B44D-D7CFD243EB09";
width = 652;
},
{
background = {
anchors = (
{
name = bottom;
position = "{345, 0}";
},
{
name = ogonek;
position = "{669, 0}";
},
{
name = top;
position = "{334, 1173}";
}
);
paths = (
{
closed = 1;
nodes = (
"-2 0 LINE",
"197 0 LINE",
"239 139 LINE",
"428 139 LINE",
"471 0 LINE",
"669 0 LINE",
"443 710 LINE",
"225 710 LINE"
);
},
{
closed = 1;
nodes = (
"268 269 LINE",
"334 519 LINE",
"397 269 LINE"
);
},
{
closed = 1;
nodes = (
"239 757 LINE",
"324 820 LINE",
"409 757 LINE",
"505 799 LINE",
"392 914 LINE",
"256 914 LINE",
"143 799 LINE"
);
},
{
closed = 1;
nodes = (
"461 960 OFFCURVE",
"472 970 OFFCURVE",
"491 970 CURVE SMOOTH",
"510 970 OFFCURVE",
"521 957 OFFCURVE",
"521 940 CURVE SMOOTH",
"521 922 OFFCURVE",
"507 907 OFFCURVE",
"485 892 CURVE",
"530 845 LINE",
"580 886 OFFCURVE",
"604 914 OFFCURVE",
"604 968 CURVE SMOOTH",
"604 1019 OFFCURVE",
"565 1052 OFFCURVE",
"506 1052 CURVE SMOOTH",
"467 1052 OFFCURVE",
"431 1036 OFFCURVE",
"390 993 CURVE",
"441 943 LINE"
);
}
);
};
components = (
{
name = A;
},
{
alignment = 1;
name = circumflexcomb_hookabovecomb;
transform = "{1, 0, 0, 1, 129, 184}";
}
);
layerId = "985A8054-912F-442C-AEAA-CDACF2D0DECF";
width = 636;
}
);
unicode = 1EA8;
},
{
glyphname = Acircumflextilde;
lastChange = "2016-11-14 09:42:21 +0000";
layers = (
{
background = {
anchors = (
{
name = bottom;
position = "{347, 0}";
},
{
name = ogonek;
position = "{655, 0}";
},
{
name = top;
position = "{337, 877}";
}
);
paths = (
{
closed = 1;
nodes = (
"18 0 LINE",
"40 0 LINE",
"151 254 LINE",
"522 254 LINE",
"633 0 LINE",
"655 0 LINE",
"346 710 LINE",
"328 710 LINE"
);
},
{
closed = 1;
nodes = (
"159 274 LINE",
"337 681 LINE",
"513 274 LINE"
);
},
{
closed = 1;
nodes = (
"248 786 LINE",
"333 849 LINE",
"418 786 LINE",
"434 798 LINE",
"341 872 LINE",
"325 872 LINE",
"232 798 LINE"
);
},
{
closed = 1;
nodes = (
"401 896 CURVE SMOOTH",
"474 896 OFFCURVE",
"482 954 OFFCURVE",
"482 963 CURVE",
"462 963 LINE",
"462 959 OFFCURVE",
"458 915 OFFCURVE",
"403 915 CURVE SMOOTH",
"352 915 OFFCURVE",
"330 953 OFFCURVE",
"278 953 CURVE SMOOTH",
"212 953 OFFCURVE",
"205 892 OFFCURVE",
"205 886 CURVE",
"225 886 LINE",
"225 892 OFFCURVE",
"233 934 OFFCURVE",
"276 934 CURVE SMOOTH",
"317 934 OFFCURVE",
"342 896 OFFCURVE"
);
}
);
};
components = (
{
name = A;
},
{
name = circumflexcomb_tildecomb;
transform = "{1, 0, 0, 1, 197, 191}";
}
);
layerId = "D38D3CE8-FE00-46D7-8A67-935B0885B622";
width = 647;
},
{
background = {
anchors = (
{
name = bottom;
position = "{348, 0}";
},
{
name = ogonek;
position = "{667, 0}";
},
{
name = top;
position = "{343, 896}";
}
);
paths = (
{
closed = 1;
nodes = (
"10 0 LINE",
"106 0 LINE",
"189 208 LINE",
"487 208 LINE",
"571 0 LINE",
"667 0 LINE",
"377 710 LINE",
"301 710 LINE"
);
},
{
closed = 1;
nodes = (
"207 278 LINE",
"339 606 LINE",
"467 278 LINE"
);
},
{
closed = 1;
nodes = (
"242 776 LINE",
"327 839 LINE",
"412 776 LINE",
"460 800 LINE",
"359 890 LINE",
"295 890 LINE",
"194 800 LINE"
);
},
{
closed = 1;
nodes = (
"395 909 CURVE SMOOTH",
"480 909 OFFCURVE",
"501 997 OFFCURVE",
"501 1012 CURVE",
"449 1012 LINE",
"449 1008 OFFCURVE",
"444 963 OFFCURVE",
"393 963 CURVE SMOOTH",
"344 963 OFFCURVE",
"321 1006 OFFCURVE",
"264 1006 CURVE SMOOTH",
"185 1006 OFFCURVE",
"165 920 OFFCURVE",
"165 903 CURVE",
"217 903 LINE",
"217 907 OFFCURVE",
"222 951 OFFCURVE",
"266 951 CURVE SMOOTH",
"309 951 OFFCURVE",
"335 909 OFFCURVE"
);
}
);
};
components = (
{
name = A;
},
{
name = circumflexcomb_tildecomb;
transform = "{1, 0, 0, 1, 169, 188}";
}
);
layerId = "51AEF656-B224-4228-B44D-D7CFD243EB09";
width = 652;
},
{
background = {
anchors = (
{
name = bottom;
position = "{345, 0}";
},
{
name = ogonek;
position = "{669, 0}";
},
{
name = top;
position = "{334, 1118}";
}
);
paths = (
{
closed = 1;
nodes = (
"-2 0 LINE",
"197 0 LINE",
"239 139 LINE",
"428 139 LINE",
"471 0 LINE",
"669 0 LINE",
"443 710 LINE",
"225 710 LINE"
);
},
{
closed = 1;
nodes = (
"268 269 LINE",
"334 519 LINE",
"397 269 LINE"
);
},
{
closed = 1;
nodes = (
"246 757 LINE",
"331 820 LINE",
"416 757 LINE",
"512 799 LINE",
"399 914 LINE",
"263 914 LINE",
"150 799 LINE"
);
},
{
closed = 1;
nodes = (
"400 960 CURVE SMOOTH",
"503 960 OFFCURVE",
"543 1095 OFFCURVE",
"543 1118 CURVE",
"443 1118 LINE",
"443 1115 OFFCURVE",
"437 1067 OFFCURVE",
"393 1067 CURVE SMOOTH",
"347 1067 OFFCURVE",
"323 1118 OFFCURVE",
"258 1118 CURVE SMOOTH",
"158 1118 OFFCURVE",
"119 995 OFFCURVE",
"119 960 CURVE",
"220 960 LINE",
"220 962 OFFCURVE",
"221 1008 OFFCURVE",
"266 1008 CURVE SMOOTH",
"311 1008 OFFCURVE",
"339 960 OFFCURVE"
);
}
);
};
components = (
{
name = A;
},
{
alignment = -1;
name = circumflexcomb_tildecomb;
transform = "{1, 0, 0, 1, 183, 186}";
}
);
layerId = "985A8054-912F-442C-AEAA-CDACF2D0DECF";
width = 636;
}
);
unicode = 1EAA;
},
{
glyphname = Adblgrave;
lastChange = "2016-11-14 09:42:21 +0000";
layers = (
{
background = {
anchors = (
{
name = bottom;
position = "{347, 0}";
},
{
name = ogonek;
position = "{655, 0}";
},
{
name = top;
position = "{337, 707}";
}
);
paths = (
{
closed = 1;
nodes = (
"18 0 LINE",
"40 0 LINE",
"151 254 LINE",
"522 254 LINE",
"633 0 LINE",
"655 0 LINE",
"346 710 LINE",
"328 710 LINE"
);
},
{
closed = 1;
nodes = (
"159 274 LINE",
"337 681 LINE",
"513 274 LINE"
);
},
{
closed = 1;
nodes = (
"389 833 LINE",
"405 845 LINE",
"341 918 LINE",
"307 918 LINE"
);
},
{
closed = 1;
nodes = (
"289 833 LINE",
"305 845 LINE",
"241 918 LINE",
"207 918 LINE"
);
}
);
};
components = (
{
name = A;
},
{
name = dblgravecomb;
transform = "{1, 0, 0, 1, 162, 191}";
}
);
layerId = "D38D3CE8-FE00-46D7-8A67-935B0885B622";
width = 647;
},
{
background = {
anchors = (
{
name = bottom;
position = "{348, 0}";
},
{
name = ogonek;
position = "{667, 0}";
},
{
name = top;
position = "{339, 708}";
}
);
paths = (
{
closed = 1;
nodes = (
"10 0 LINE",
"106 0 LINE",
"189 208 LINE",
"487 208 LINE",
"571 0 LINE",
"667 0 LINE",
"377 710 LINE",
"301 710 LINE"
);
},
{
closed = 1;
nodes = (
"207 278 LINE",
"339 606 LINE",
"467 278 LINE"
);
},
{
closed = 1;
nodes = (
"396 796 LINE",
"442 816 LINE",
"388 917 LINE",
"312 917 LINE"
);
},
{
closed = 1;
nodes = (
"260 796 LINE",
"306 816 LINE",
"252 917 LINE",
"176 917 LINE"
);
}
);
};
components = (
{
name = A;
},
{
name = dblgravecomb;
transform = "{1, 0, 0, 1, 141, 189}";
}
);
layerId = "51AEF656-B224-4228-B44D-D7CFD243EB09";
width = 652;
},
{
background = {
anchors = (
{
name = bottom;
position = "{345, 0}";
},
{
name = ogonek;
position = "{669, 0}";
},
{
name = top;
position = "{334, 710}";
}
);
paths = (
{
closed = 1;
nodes = (
"-2 0 LINE",
"197 0 LINE",
"239 139 LINE",
"428 139 LINE",
"471 0 LINE",
"669 0 LINE",
"443 710 LINE",
"225 710 LINE"
);
},
{
closed = 1;
nodes = (
"268 269 LINE",
"334 519 LINE",
"397 269 LINE"
);
},
{
closed = 1;
nodes = (
"396 741 LINE",
"486 773 LINE",
"446 915 LINE",
"307 915 LINE"
);
},
{
closed = 1;
nodes = (
"206 741 LINE",
"296 773 LINE",
"256 915 LINE",
"117 915 LINE"
);
}
);
};
components = (
{
name = A;
},
{
name = dblgravecomb;
transform = "{1, 0, 0, 1, 83, 189}";
}
);
layerId = "985A8054-912F-442C-AEAA-CDACF2D0DECF";
width = 636;
}
);
unicode = 0200;
},
{
glyphname = Adieresis;
lastChange = "2016-11-14 08:37:14 +0000";
layers = (
{
background = {
anchors = (
{
name = bottom;
position = "{347, 0}";
},
{
name = ogonek;
position = "{655, 0}";
},
{
name = top;
position = "{337, 908}";
}
);
paths = (
{
closed = 1;
nodes = (
"18 0 LINE",
"40 0 LINE",
"151 254 LINE",
"522 254 LINE",
"633 0 LINE",
"655 0 LINE",
"346 710 LINE",
"328 710 LINE"
);
},
{
closed = 1;
nodes = (
"159 274 LINE",
"337 681 LINE",
"513 274 LINE"
);
},
{
closed = 1;
nodes = (
"289 841 LINE",
"289 918 LINE",
"269 918 LINE",
"269 841 LINE"
);
},
{
closed = 1;
nodes = (
"405 841 LINE",
"405 918 LINE",
"385 918 LINE",
"385 841 LINE"
);
}
);
};
components = (
{
name = A;
},
{
name = dieresiscomb;
transform = "{1, 0, 0, 1, 244, 191}";
}
);
layerId = "D38D3CE8-FE00-46D7-8A67-935B0885B622";
width = 647;
},
{
background = {
anchors = (
{
name = bottom;
position = "{348, 0}";
},
{
name = ogonek;
position = "{667, 0}";
},
{
name = top;
position = "{339, 907}";
}
);
paths = (
{
closed = 1;
nodes = (
"10 0 LINE",
"106 0 LINE",
"189 208 LINE",
"487 208 LINE",
"571 0 LINE",
"667 0 LINE",
"377 710 LINE",
"301 710 LINE"
);
},
{
closed = 1;
nodes = (
"207 278 LINE",
"339 606 LINE",
"467 278 LINE"
);
},
{
closed = 1;
nodes = (
"295 811 LINE",
"295 913 LINE",
"221 913 LINE",
"221 811 LINE"
);
},
{
closed = 1;
nodes = (
"457 811 LINE",
"457 913 LINE",
"383 913 LINE",
"383 811 LINE"
);
}
);
};
components = (
{
name = A;
},
{
name = dieresiscomb;
transform = "{1, 0, 0, 1, 199, 188}";
}
);
layerId = "51AEF656-B224-4228-B44D-D7CFD243EB09";
width = 652;
},
{
background = {
anchors = (
{
name = bottom;
position = "{345, 0}";
},
{
name = ogonek;
position = "{669, 0}";
},
{
name = top;
position = "{334, 905}";
}
);
paths = (
{
closed = 1;
nodes = (
"-2 0 LINE",
"197 0 LINE",
"239 139 LINE",
"428 139 LINE",
"471 0 LINE",
"669 0 LINE",
"443 710 LINE",
"225 710 LINE"
);
},
{
closed = 1;
nodes = (
"268 269 LINE",
"334 519 LINE",
"397 269 LINE"
);
},
{
closed = 1;
nodes = (
"297 765 LINE",
"297 905 LINE",
"141 905 LINE",
"141 765 LINE"
);
},
{
closed = 1;
nodes = (
"527 765 LINE",
"527 905 LINE",
"371 905 LINE",
"371 765 LINE"
);
}
);
};
components = (
{
name = A;
},
{
name = dieresiscomb;
transform = "{1, 0, 0, 1, 114, 184}";
}
);
layerId = "985A8054-912F-442C-AEAA-CDACF2D0DECF";
width = 636;
}
);
leftKerningGroup = A;
rightKerningGroup = A;
unicode = 00C4;
},
{
glyphname = Adotbelow;
lastChange = "2016-11-14 07:19:54 +0000";
layers = (
{
background = {
anchors = (
{
name = bottom;
position = "{347, -127}";
},
{
name = ogonek;
position = "{655, 0}";
},
{
name = top;
position = "{337, 707}";
}
);
paths = (
{
closed = 1;
nodes = (
"18 0 LINE",
"40 0 LINE",
"151 254 LINE",
"522 254 LINE",
"633 0 LINE",
"655 0 LINE",
"346 710 LINE",
"328 710 LINE"
);
},
{
closed = 1;
nodes = (
"159 274 LINE",
"337 681 LINE",
"513 274 LINE"
);
},
{
closed = 1;
nodes = (
"357 -127 LINE",
"357 -50 LINE",
"337 -50 LINE",
"337 -127 LINE"
);
}
);
};
components = (
{
name = A;
},
{
name = dotbelowcomb;
transform = "{1, 0, 0, 1, 264, 0}";
}
);
layerId = "D38D3CE8-FE00-46D7-8A67-935B0885B622";
width = 647;
},
{
background = {
anchors = (
{
name = bottom;
position = "{348, -187}";
},
{
name = ogonek;
position = "{667, 0}";
},
{
name = top;
position = "{339, 708}";
}
);
paths = (
{
closed = 1;
nodes = (
"10 0 LINE",
"106 0 LINE",
"189 208 LINE",
"487 208 LINE",
"571 0 LINE",
"667 0 LINE",
"377 710 LINE",
"301 710 LINE"
);
},
{
closed = 1;
nodes = (
"207 278 LINE",
"339 606 LINE",
"467 278 LINE"
);
},
{
closed = 1;
nodes = (
"388 -187 LINE",
"388 -81 LINE",
"308 -81 LINE",
"308 -187 LINE"
);
}
);
};
components = (
{
name = A;
},
{
name = dotbelowcomb;
transform = "{1, 0, 0, 1, 237, 0}";
}
);
layerId = "51AEF656-B224-4228-B44D-D7CFD243EB09";
width = 652;
},
{
background = {
anchors = (
{
name = bottom;
position = "{345, -214}";
},
{
name = ogonek;
position = "{669, 0}";
},
{
name = top;
position = "{334, 710}";
}
);
paths = (
{
closed = 1;
nodes = (
"-2 0 LINE",
"197 0 LINE",
"239 139 LINE",
"428 139 LINE",
"471 0 LINE",
"669 0 LINE",
"443 710 LINE",
"225 710 LINE"
);
},
{
closed = 1;
nodes = (
"268 269 LINE",
"334 519 LINE",
"397 269 LINE"
);
},
{
closed = 1;
nodes = (
"430 -214 LINE",
"430 -64 LINE",
"260 -64 LINE",
"260 -214 LINE"
);
}
);
};
components = (
{
name = A;
},
{
name = dotbelowcomb;
transform = "{1, 0, 0, 1, 183, 0}";
}
);
layerId = "985A8054-912F-442C-AEAA-CDACF2D0DECF";
width = 636;
}
);
unicode = 1EA0;
},
{
glyphname = Agrave;
lastChange = "2016-11-14 08:52:26 +0000";
layers = (
{
background = {
anchors = (
{
name = bottom;
position = "{347, 0}";
},
{
name = ogonek;
position = "{655, 0}";
},
{
name = top;
position = "{318, 918}";
}
);
paths = (
{
closed = 1;
nodes = (
"18 0 LINE",
"40 0 LINE",
"151 254 LINE",
"522 254 LINE",
"633 0 LINE",
"655 0 LINE",
"346 710 LINE",
"328 710 LINE"
);
},
{
closed = 1;
nodes = (
"159 274 LINE",
"337 681 LINE",
"513 274 LINE"
);
},
{
closed = 1;
nodes = (
"351 833 LINE",
"367 845 LINE",
"302 918 LINE",
"269 918 LINE"
);
}
);
};
components = (
{
name = A;
},
{
name = gravecomb;
transform = "{1, 0, 0, 1, 203, 191}";
}
);
layerId = "D38D3CE8-FE00-46D7-8A67-935B0885B622";
width = 647;
},
{
background = {
anchors = (
{
name = bottom;
position = "{348, 0}";
},
{
name = ogonek;
position = "{667, 0}";
},
{
name = top;
position = "{308, 917}";
}
);
paths = (
{
closed = 1;
nodes = (
"10 0 LINE",
"106 0 LINE",
"189 208 LINE",
"487 208 LINE",
"571 0 LINE",
"667 0 LINE",
"377 710 LINE",
"301 710 LINE"
);
},
{
closed = 1;
nodes = (
"207 278 LINE",
"339 606 LINE",
"467 278 LINE"
);
},
{
closed = 1;
nodes = (
"324 796 LINE",
"381 816 LINE",
"322 917 LINE",
"235 917 LINE"
);
}
);
};
components = (
{
name = A;
},
{
name = gravecomb;
transform = "{1, 0, 0, 1, 178, 188}";
}
);
layerId = "51AEF656-B224-4228-B44D-D7CFD243EB09";
width = 652;
},
{
background = {
anchors = (
{
name = bottom;
position = "{345, 0}";
},
{
name = ogonek;
position = "{669, 0}";
},
{
name = top;
position = "{294, 914}";
}
);
paths = (
{
closed = 1;
nodes = (
"-2 0 LINE",
"197 0 LINE",
"239 139 LINE",
"428 139 LINE",
"471 0 LINE",
"669 0 LINE",
"443 710 LINE",
"225 710 LINE"
);
},
{
closed = 1;
nodes = (
"268 269 LINE",
"334 519 LINE",
"397 269 LINE"
);
},
{
closed = 1;
nodes = (
"283 740 LINE",
"403 772 LINE",
"353 914 LINE",
"184 914 LINE"
);
}
);
};
components = (
{
name = A;
},
{
name = gravecomb;
transform = "{1, 0, 0, 1, 140, 184}";
}
);
layerId = "985A8054-912F-442C-AEAA-CDACF2D0DECF";
width = 636;
}
);
leftKerningGroup = A;
rightKerningGroup = A;
unicode = 00C0;
},
{
glyphname = Ahookabove;
lastChange = "2016-11-14 09:07:19 +0000";
layers = (
{
background = {
anchors = (
{
name = bottom;
position = "{347, 0}";
},
{
name = ogonek;
position = "{655, 0}";
},
{
name = top;
position = "{337, 913}";
}
);
paths = (
{
closed = 1;
nodes = (
"18 0 LINE",
"40 0 LINE",
"151 254 LINE",
"522 254 LINE",
"633 0 LINE",
"655 0 LINE",
"346 710 LINE",
"328 710 LINE"
);
},
{
closed = 1;
nodes = (
"159 274 LINE",
"337 681 LINE",
"513 274 LINE"
);
},
{
closed = 1;
nodes = (
"309 887 OFFCURVE",
"319 895 OFFCURVE",
"337 895 CURVE SMOOTH",
"366 895 OFFCURVE",
"378 877 OFFCURVE",
"378 856 CURVE SMOOTH",
"378 840 OFFCURVE",
"365 824 OFFCURVE",
"344 800 CURVE",
"356 789 LINE",
"379 815 OFFCURVE",
"396 830 OFFCURVE",
"396 856 CURVE SMOOTH",
"396 892 OFFCURVE",
"371 913 OFFCURVE",
"339 913 CURVE SMOOTH",
"313 913 OFFCURVE",
"298 902 OFFCURVE",
"277 883 CURVE",
"289 870 LINE"
);
}
);
};
components = (
{
name = A;
},
{
name = hookabovecomb;
transform = "{1, 0, 0, 1, 246, 191}";
}
);
layerId = "D38D3CE8-FE00-46D7-8A67-935B0885B622";
width = 647;
},
{
background = {
anchors = (
{
name = bottom;
position = "{348, 0}";
},
{
name = ogonek;
position = "{667, 0}";
},
{
name = top;
position = "{339, 967}";
}
);
paths = (
{
closed = 1;
nodes = (
"10 0 LINE",
"106 0 LINE",
"189 208 LINE",
"487 208 LINE",
"571 0 LINE",
"667 0 LINE",
"377 710 LINE",
"301 710 LINE"
);
},
{
closed = 1;
nodes = (
"207 278 LINE",
"339 606 LINE",
"467 278 LINE"
);
},
{
closed = 1;
nodes = (
"312 899 OFFCURVE",
"322 904 OFFCURVE",
"339 904 CURVE SMOOTH",
"355 904 OFFCURVE",
"366 892 OFFCURVE",
"366 877 CURVE SMOOTH",
"366 861 OFFCURVE",
"360 847 OFFCURVE",
"337 826 CURVE",
"362 797 LINE",
"401 829 OFFCURVE",
"418 858 OFFCURVE",
"418 885 CURVE SMOOTH",
"418 918 OFFCURVE",
"395 951 OFFCURVE",
"347 951 CURVE SMOOTH",
"312 951 OFFCURVE",
"285 937 OFFCURVE",
"260 915 CURVE",
"293 882 LINE"
);
}
);
};
components = (
{
name = A;
},
{
name = hookabovecomb;
transform = "{1, 0, 0, 1, 228, 188}";
}
);
layerId = "51AEF656-B224-4228-B44D-D7CFD243EB09";
width = 652;
},
{
background = {
anchors = (
{
name = bottom;
position = "{345, 0}";
},
{
name = ogonek;
position = "{669, 0}";
},
{
name = top;
position = "{334, 969}";
}
);
paths = (
{
closed = 1;
nodes = (
"-2 0 LINE",
"197 0 LINE",
"239 139 LINE",
"428 139 LINE",
"471 0 LINE",
"669 0 LINE",
"443 710 LINE",
"225 710 LINE"
);
},
{
closed = 1;
nodes = (
"268 269 LINE",
"334 519 LINE",
"397 269 LINE"
);
},
{
closed = 1;
nodes = (
"298 877 OFFCURVE",
"309 887 OFFCURVE",
"328 887 CURVE SMOOTH",
"347 887 OFFCURVE",
"358 874 OFFCURVE",
"358 857 CURVE SMOOTH",
"358 839 OFFCURVE",
"344 824 OFFCURVE",
"322 809 CURVE",
"367 762 LINE",
"417 803 OFFCURVE",
"441 831 OFFCURVE",
"441 885 CURVE SMOOTH",
"441 936 OFFCURVE",
"402 969 OFFCURVE",
"343 969 CURVE SMOOTH",
"304 969 OFFCURVE",
"268 953 OFFCURVE",
"227 910 CURVE",
"278 860 LINE"
);
}
);
};
components = (
{
name = A;
},
{
name = hookabovecomb;
transform = "{1, 0, 0, 1, 203, 188}";
}
);
layerId = "985A8054-912F-442C-AEAA-CDACF2D0DECF";
width = 636;
}
);
unicode = 1EA2;
},
{
glyphname = Ainvertedbreve;
lastChange = "2016-11-15 12:38:25 +0000";
layers = (
{
background = {
anchors = (
{
name = bottom;
position = "{347, 0}";
},
{
name = ogonek;
position = "{655, 0}";
},
{
name = top;
position = "{337, 707}";
}
);
paths = (
{
closed = 1;
nodes = (
"18 0 LINE",
"40 0 LINE",
"151 254 LINE",
"522 254 LINE",
"633 0 LINE",
"655 0 LINE",
"346 710 LINE",
"328 710 LINE"
);
},
{
closed = 1;
nodes = (
"159 274 LINE",
"337 681 LINE",
"513 274 LINE"
);
},
{
closed = 1;
nodes = (
"337 901 CURVE SMOOTH",
"364 901 OFFCURVE",
"389 874 OFFCURVE",
"393 841 CURVE",
"411 841 LINE",
"411 882 OFFCURVE",
"376 918 OFFCURVE",
"337 918 CURVE SMOOTH",
"298 918 OFFCURVE",
"263 882 OFFCURVE",
"263 841 CURVE",
"282 841 LINE",
"282 871 OFFCURVE",
"309 901 OFFCURVE"
);
}
);
};
components = (
{
name = A;
},
{
name = breveinvertedcomb;
transform = "{1, 0, 0, 1, 243, 191}";
}
);
layerId = "D38D3CE8-FE00-46D7-8A67-935B0885B622";
width = 647;
},
{
background = {
anchors = (
{
name = bottom;
position = "{348, 0}";
},
{
name = ogonek;
position = "{667, 0}";
},
{
name = top;
position = "{339, 708}";
}
);
paths = (
{
closed = 1;
nodes = (
"10 0 LINE",
"106 0 LINE",
"189 208 LINE",
"487 208 LINE",
"571 0 LINE",
"667 0 LINE",
"377 710 LINE",
"301 710 LINE"
);
},
{
closed = 1;
nodes = (
"207 278 LINE",
"339 606 LINE",
"467 278 LINE"
);
},
{
closed = 1;
nodes = (
"339 873 CURVE SMOOTH",
"368 873 OFFCURVE",
"393 844 OFFCURVE",
"397 805 CURVE",
"447 805 LINE",
"447 868 OFFCURVE",
"400 916 OFFCURVE",
"339 916 CURVE SMOOTH",
"278 916 OFFCURVE",
"231 868 OFFCURVE",
"231 805 CURVE",
"282 805 LINE",
"282 841 OFFCURVE",
"309 873 OFFCURVE"
);
}
);
};
components = (
{
name = A;
},
{
name = breveinvertedcomb;
transform = "{1, 0, 0, 1, 206, 188}";
}
);
layerId = "51AEF656-B224-4228-B44D-D7CFD243EB09";
width = 652;
},
{
background = {
anchors = (
{
name = bottom;
position = "{345, 0}";
},
{
name = ogonek;
position = "{669, 0}";
},
{
name = top;
position = "{334, 710}";
}
);
paths = (
{
closed = 1;
nodes = (
"-2 0 LINE",
"197 0 LINE",
"239 139 LINE",
"428 139 LINE",
"471 0 LINE",
"669 0 LINE",
"443 710 LINE",
"225 710 LINE"
);
},
{
closed = 1;
nodes = (
"268 269 LINE",
"334 519 LINE",
"397 269 LINE"
);
},
{
closed = 1;
nodes = (
"334 833 CURVE SMOOTH",
"365 833 OFFCURVE",
"391 799 OFFCURVE",
"395 752 CURVE",
"493 752 LINE",
"493 847 OFFCURVE",
"428 914 OFFCURVE",
"334 914 CURVE SMOOTH",
"240 914 OFFCURVE",
"175 847 OFFCURVE",
"175 752 CURVE",
"273 752 LINE",
"273 796 OFFCURVE",
"301 833 OFFCURVE"
);
}
);
};
components = (
{
name = A;
},
{
name = breveinvertedcomb;
transform = "{1, 0, 0, 1, 147, 188}";
}
);
layerId = "985A8054-912F-442C-AEAA-CDACF2D0DECF";
width = 636;
}
);
unicode = 0202;
},
{
glyphname = Amacron;
lastChange = "2016-11-14 08:56:29 +0000";
layers = (
{
background = {
anchors = (
{
name = bottom;
position = "{347, 0}";
},
{
name = ogonek;
position = "{655, 0}";
},
{
name = top;
position = "{337, 894}";
}
);
paths = (
{
closed = 1;
nodes = (
"18 0 LINE",
"40 0 LINE",
"151 254 LINE",
"522 254 LINE",
"633 0 LINE",
"655 0 LINE",
"346 710 LINE",
"328 710 LINE"
);
},
{
closed = 1;
nodes = (
"159 274 LINE",
"337 681 LINE",
"513 274 LINE"
);
},
{
closed = 1;
nodes = (
"477 874 LINE",
"477 894 LINE",
"197 894 LINE",
"197 874 LINE"
);
}
);
};
components = (
{
name = A;
},
{
name = macroncomb;
transform = "{1, 0, 0, 1, 177, 191}";
}
);
layerId = "D38D3CE8-FE00-46D7-8A67-935B0885B622";
width = 647;
},
{
background = {
anchors = (
{
name = bottom;
position = "{348, 0}";
},
{
name = ogonek;
position = "{667, 0}";
},
{
name = top;
position = "{340, 898}";
}
);
paths = (
{
closed = 1;
nodes = (
"10 0 LINE",
"106 0 LINE",
"189 208 LINE",
"487 208 LINE",
"571 0 LINE",
"667 0 LINE",
"377 710 LINE",
"301 710 LINE"
);
},
{
closed = 1;
nodes = (
"207 278 LINE",
"339 606 LINE",
"467 278 LINE"
);
},
{
closed = 1;
nodes = (
"486 840 LINE",
"486 898 LINE",
"194 898 LINE",
"194 840 LINE"
);
}
);
};
components = (
{
name = A;
},
{
name = macroncomb;
transform = "{1, 0, 0, 1, 174, 188}";
}
);
layerId = "51AEF656-B224-4228-B44D-D7CFD243EB09";
width = 652;
},
{
background = {
anchors = (
{
name = bottom;
position = "{345, 0}";
},
{
name = ogonek;
position = "{669, 0}";
},
{
name = top;
position = "{335, 904}";
}
);
paths = (
{
closed = 1;
nodes = (
"-2 0 LINE",
"197 0 LINE",
"239 139 LINE",
"428 139 LINE",
"471 0 LINE",
"669 0 LINE",
"443 710 LINE",
"225 710 LINE"
);
},
{
closed = 1;
nodes = (
"268 269 LINE",
"334 519 LINE",
"397 269 LINE"
);
},
{
closed = 1;
nodes = (
"490 791 LINE",
"490 904 LINE",
"180 904 LINE",
"180 791 LINE"
);
}
);
};
components = (
{
name = A;
},
{
name = macroncomb;
transform = "{1, 0, 0, 1, 156, 184}";
}
);
layerId = "985A8054-912F-442C-AEAA-CDACF2D0DECF";
width = 636;
}
);
leftKerningGroup = A;
rightKerningGroup = A;
unicode = 0100;
},
{
glyphname = Aogonek;
lastChange = "2016-11-15 08:48:58 +0000";
layers = (
{
background = {
anchors = (
{
name = bottom;
position = "{347, 0}";
},
{
name = ogonek;
position = "{655, 0}";
},
{
name = top;
position = "{337, 707}";
}
);
paths = (
{
closed = 1;
nodes = (
"18 0 LINE",
"40 0 LINE",
"151 254 LINE",
"522 254 LINE",
"633 0 LINE",
"655 0 LINE",
"346 710 LINE",
"328 710 LINE"
);
},
{
closed = 1;
nodes = (
"159 274 LINE",
"337 681 LINE",
"513 274 LINE"
);
},
{
closed = 1;
nodes = (
"558 -132 OFFCURVE",
"580 -153 OFFCURVE",
"639 -164 CURVE",
"651 -147 LINE",
"597 -135 OFFCURVE",
"579 -122 OFFCURVE",
"579 -97 CURVE SMOOTH",
"579 -69 OFFCURVE",
"601 -42 OFFCURVE",
"655 0 CURVE",
"645 12 LINE",
"640 12 LINE",
"587 -30 OFFCURVE",
"558 -64 OFFCURVE",
"558 -100 CURVE SMOOTH"
);
}
);
};
components = (
{
name = A;
},
{
name = ogonekcomb;
transform = "{1, 0, 0, 1, 498, 0}";
}
);
layerId = "D38D3CE8-FE00-46D7-8A67-935B0885B622";
width = 647;
},
{
background = {
anchors = (
{
name = bottom;
position = "{348, 0}";
},
{
name = ogonek;
position = "{667, 0}";
},
{
name = top;
position = "{339, 708}";
}
);
paths = (
{
closed = 1;
nodes = (
"10 0 LINE",
"106 0 LINE",
"189 208 LINE",
"487 208 LINE",
"571 0 LINE",
"667 0 LINE",
"377 710 LINE",
"301 710 LINE"
);
},
{
closed = 1;
nodes = (
"207 278 LINE",
"339 606 LINE",
"467 278 LINE"
);
},
{
closed = 1;
nodes = (
"530 -141 OFFCURVE",
"548 -182 OFFCURVE",
"647 -189 CURVE",
"667 -133 LINE",
"619 -130 OFFCURVE",
"589 -122 OFFCURVE",
"589 -95 CURVE SMOOTH",
"589 -70 OFFCURVE",
"612 -42 OFFCURVE",
"667 0 CURVE",
"647 18 LINE",
"623 18 LINE",
"559 -23 OFFCURVE",
"530 -63 OFFCURVE",
"530 -107 CURVE SMOOTH"
);
}
);
};
components = (
{
name = A;
},
{
name = ogonekcomb;
transform = "{1, 0, 0, 1, 470, 0}";
}
);
layerId = "51AEF656-B224-4228-B44D-D7CFD243EB09";
width = 652;
},
{
background = {
anchors = (
{
name = bottom;
position = "{345, 0}";
},
{
name = ogonek;
position = "{669, 0}";
},
{
name = top;
position = "{334, 710}";
}
);
paths = (
{
closed = 1;
nodes = (
"-2 0 LINE",
"197 0 LINE",
"239 139 LINE",
"428 139 LINE",
"471 0 LINE",
"669 0 LINE",
"443 710 LINE",
"225 710 LINE"
);
},
{
closed = 1;
nodes = (
"268 269 LINE",
"334 519 LINE",
"397 269 LINE"
);
},
{
closed = 1;
nodes = (
"480 -162 OFFCURVE",
"529 -203 OFFCURVE",
"632 -215 CURVE",
"667 -115 LINE",
"619 -115 OFFCURVE",
"597 -100 OFFCURVE",
"597 -78 CURVE SMOOTH",
"597 -55 OFFCURVE",
"623 -27 OFFCURVE",
"669 0 CURVE",
"656 24 LINE",
"593 24 LINE",
"518 -14 OFFCURVE",
"480 -67 OFFCURVE",
"480 -115 CURVE SMOOTH"
);
}
);
};
components = (
{
name = A;
},
{
name = ogonekcomb;
transform = "{1, 0, 0, 1, 411, -1}";
}
);
layerId = "985A8054-912F-442C-AEAA-CDACF2D0DECF";
width = 636;
}
);
leftKerningGroup = A;
rightKerningGroup = A;
unicode = 0104;
},
{
glyphname = Aring;
lastChange = "2016-11-14 09:00:09 +0000";
layers = (
{
background = {
anchors = (
{
name = bottom;
position = "{347, 0}";
},
{
name = ogonek;
position = "{655, 0}";
},
{
name = top;
position = "{335, 918}";
}
);
paths = (
{
closed = 1;
nodes = (
"18 0 LINE",
"40 0 LINE",
"151 254 LINE",
"522 254 LINE",
"633 0 LINE",
"655 0 LINE",
"346 710 LINE",
"328 710 LINE"
);
},
{
closed = 1;
nodes = (
"159 274 LINE",
"337 681 LINE",
"513 274 LINE"
);
},
{
closed = 1;
nodes = (
"262 869 CURVE SMOOTH",
"262 827 OFFCURVE",
"295 794 OFFCURVE",
"337 794 CURVE SMOOTH",
"379 794 OFFCURVE",
"412 827 OFFCURVE",
"412 869 CURVE SMOOTH",
"412 911 OFFCURVE",
"379 944 OFFCURVE",
"337 944 CURVE SMOOTH",
"295 944 OFFCURVE",
"262 911 OFFCURVE"
);
},
{
closed = 1;
nodes = (
"337 923 CURVE SMOOTH",
"366 923 OFFCURVE",
"391 902 OFFCURVE",
"391 869 CURVE SMOOTH",
"391 837 OFFCURVE",
"363 815 OFFCURVE",
"337 815 CURVE SMOOTH",
"307 815 OFFCURVE",
"283 839 OFFCURVE",
"283 869 CURVE SMOOTH",
"283 902 OFFCURVE",
"308 923 OFFCURVE"
);
}
);
};
components = (
{
name = A;
},
{
name = ringcomb;
transform = "{1, 0, 0, 1, 255, 191}";
}
);
layerId = "D38D3CE8-FE00-46D7-8A67-935B0885B622";
width = 647;
},
{
background = {
anchors = (
{
name = bottom;
position = "{348, 0}";
},
{
name = ogonek;
position = "{667, 0}";
},
{
name = top;
position = "{339, 939}";
}
);
paths = (
{
closed = 1;
nodes = (
"10 0 LINE",
"106 0 LINE",
"189 208 LINE",
"487 208 LINE",
"571 0 LINE",
"667 0 LINE",
"377 710 LINE",
"301 710 LINE"
);
},
{
closed = 1;
nodes = (
"207 278 LINE",
"339 606 LINE",
"467 278 LINE"
);
},
{
closed = 1;
nodes = (
"244 851 CURVE SMOOTH",
"244 799 OFFCURVE",
"284 765 OFFCURVE",
"339 765 CURVE SMOOTH",
"395 765 OFFCURVE",
"434 799 OFFCURVE",
"434 851 CURVE SMOOTH",
"434 904 OFFCURVE",
"395 939 OFFCURVE",
"339 939 CURVE SMOOTH",
"284 939 OFFCURVE",
"244 904 OFFCURVE"
);
},
{
closed = 1;
nodes = (
"339 899 CURVE SMOOTH",
"366 899 OFFCURVE",
"387 882 OFFCURVE",
"387 851 CURVE SMOOTH",
"387 823 OFFCURVE",
"364 804 OFFCURVE",
"339 804 CURVE SMOOTH",
"312 804 OFFCURVE",
"292 824 OFFCURVE",
"292 851 CURVE SMOOTH",
"292 882 OFFCURVE",
"313 899 OFFCURVE"
);
}
);
};
components = (
{
name = A;
},
{
name = ringcomb;
transform = "{1, 0, 0, 1, 235, 188}";
}
);
layerId = "51AEF656-B224-4228-B44D-D7CFD243EB09";
width = 652;
},
{
background = {
anchors = (
{
name = bottom;
position = "{345, 0}";
},
{
name = ogonek;
position = "{669, 0}";
},
{
name = top;
position = "{334, 914}";
}
);
paths = (
{
closed = 1;
nodes = (
"-2 0 LINE",
"197 0 LINE",
"239 139 LINE",
"428 139 LINE",
"471 0 LINE",
"669 0 LINE",
"443 710 LINE",
"225 710 LINE"
);
},
{
closed = 1;
nodes = (
"268 269 LINE",
"334 519 LINE",
"397 269 LINE"
);
},
{
closed = 1;
nodes = (
"217 827 CURVE SMOOTH",
"217 769 OFFCURVE",
"263 733 OFFCURVE",
"334 733 CURVE SMOOTH",
"405 733 OFFCURVE",
"451 769 OFFCURVE",
"451 827 CURVE SMOOTH",
"451 885 OFFCURVE",
"405 921 OFFCURVE",
"334 921 CURVE SMOOTH",
"263 921 OFFCURVE",
"217 885 OFFCURVE"
);
},
{
closed = 1;
nodes = (
"334 865 CURVE SMOOTH",
"357 865 OFFCURVE",
"374 847 OFFCURVE",
"374 828 CURVE SMOOTH",
"374 808 OFFCURVE",
"356 789 OFFCURVE",
"334 789 CURVE SMOOTH",
"311 789 OFFCURVE",
"294 808 OFFCURVE",
"294 828 CURVE SMOOTH",
"294 847 OFFCURVE",
"311 865 OFFCURVE"
);
}
);
};
components = (
{
name = A;
},
{
name = ringcomb;
transform = "{1, 0, 0, 1, 188, 184}";
}
);
layerId = "985A8054-912F-442C-AEAA-CDACF2D0DECF";
width = 636;
}
);
leftKerningGroup = A;
rightKerningGroup = A;
unicode = 00C5;
},
{
glyphname = Aringacute;
lastChange = "2016-11-15 11:21:12 +0000";
layers = (
{
background = {
anchors = (
{
name = bottom;
position = "{347, 0}";
},
{
name = ogonek;
position = "{655, 0}";
},
{
name = top;
position = "{386, 930}";
}
);
paths = (
{
closed = 1;
nodes = (
"18 0 LINE",
"40 0 LINE",
"151 254 LINE",
"522 254 LINE",
"633 0 LINE",
"655 0 LINE",
"346 710 LINE",
"328 710 LINE"
);
},
{
closed = 1;
nodes = (
"159 274 LINE",
"337 681 LINE",
"513 274 LINE"
);
},
{
closed = 1;
nodes = (
"262 784 CURVE SMOOTH",
"262 742 OFFCURVE",
"295 709 OFFCURVE",
"337 709 CURVE SMOOTH",
"379 709 OFFCURVE",
"412 742 OFFCURVE",
"412 784 CURVE SMOOTH",
"412 826 OFFCURVE",
"379 859 OFFCURVE",
"337 859 CURVE SMOOTH",
"295 859 OFFCURVE",
"262 826 OFFCURVE"
);
},
{
closed = 1;
nodes = (
"337 838 CURVE SMOOTH",
"366 838 OFFCURVE",
"391 817 OFFCURVE",
"391 784 CURVE SMOOTH",
"391 752 OFFCURVE",
"363 730 OFFCURVE",
"337 730 CURVE SMOOTH",
"307 730 OFFCURVE",
"283 754 OFFCURVE",
"283 784 CURVE SMOOTH",
"283 817 OFFCURVE",
"308 838 OFFCURVE"
);
},
{
closed = 1;
nodes = (
"435 930 LINE",
"401 930 LINE",
"337 857 LINE",
"353 845 LINE"
);
}
);
};
components = (
{
name = A;
},
{
alignment = -1;
name = acutecomb;
transform = "{1, 0, 0, 1, 300, 164}";
},
{
alignment = -1;
name = ringcomb;
transform = "{1, 0, 0, 1, 235, 92}";
}
);
layerId = "D38D3CE8-FE00-46D7-8A67-935B0885B622";
width = 647;
},
{
background = {
anchors = (
{
name = bottom;
position = "{348, 0}";
},
{
name = ogonek;
position = "{667, 0}";
},
{
name = top;
position = "{383, 934.062}";
}
);
paths = (
{
closed = 1;
nodes = (
"10 0 LINE",
"106 0 LINE",
"189 208 LINE",
"487 208 LINE",
"571 0 LINE",
"667 0 LINE",
"377 710 LINE",
"301 710 LINE"
);
},
{
closed = 1;
nodes = (
"207 278 LINE",
"339 606 LINE",
"467 278 LINE"
);
},
{
closed = 1;
nodes = (
"244 770 CURVE SMOOTH",
"244 718 OFFCURVE",
"284 684 OFFCURVE",
"339 684 CURVE SMOOTH",
"395 684 OFFCURVE",
"434 718 OFFCURVE",
"434 770 CURVE SMOOTH",
"434 823 OFFCURVE",
"395 858 OFFCURVE",
"339 858 CURVE SMOOTH",
"284 858 OFFCURVE",
"244 823 OFFCURVE"
);
},
{
closed = 1;
nodes = (
"339 818 CURVE SMOOTH",
"366 818 OFFCURVE",
"387 801 OFFCURVE",
"387 770 CURVE SMOOTH",
"387 742 OFFCURVE",
"364 723 OFFCURVE",
"339 723 CURVE SMOOTH",
"312 723 OFFCURVE",
"292 743 OFFCURVE",
"292 770 CURVE SMOOTH",
"292 801 OFFCURVE",
"313 818 OFFCURVE"
);
},
{
closed = 1;
nodes = (
"456 934.062 LINE",
"368 934.062 LINE",
"310 838.173 LINE",
"368 819.185 LINE"
);
}
);
};
components = (
{
name = A;
},
{
alignment = -1;
name = acutecomb;
transform = "{1, 0, 0, 0.9494, 292, 242}";
},
{
alignment = -1;
name = ringcomb;
transform = "{1, 0, 0, 1, 215, 113}";
}
);
layerId = "51AEF656-B224-4228-B44D-D7CFD243EB09";
width = 652;
},
{
background = {
anchors = (
{
name = bottom;
position = "{345, 0}";
},
{
name = ogonek;
position = "{669, 0}";
},
{
name = top;
position = "{362, 934.728}";
}
);
paths = (
{
closed = 1;
nodes = (
"-2 0 LINE",
"197 0 LINE",
"239 139 LINE",
"428 139 LINE",
"471 0 LINE",
"669 0 LINE",
"443 710 LINE",
"225 710 LINE"
);
},
{
closed = 1;
nodes = (
"268 269 LINE",
"334 519 LINE",
"397 269 LINE"
);
},
{
closed = 1;
nodes = (
"217 751 CURVE SMOOTH",
"217 693 OFFCURVE",
"263 657 OFFCURVE",
"334 657 CURVE SMOOTH",
"405 657 OFFCURVE",
"451 693 OFFCURVE",
"451 751 CURVE SMOOTH",
"451 809 OFFCURVE",
"405 845 OFFCURVE",
"334 845 CURVE SMOOTH",
"263 845 OFFCURVE",
"217 809 OFFCURVE"
);
},
{
closed = 1;
nodes = (
"334 789 CURVE SMOOTH",
"357 789 OFFCURVE",
"374 771 OFFCURVE",
"374 752 CURVE SMOOTH",
"374 732 OFFCURVE",
"356 713 OFFCURVE",
"334 713 CURVE SMOOTH",
"311 713 OFFCURVE",
"294 732 OFFCURVE",
"294 752 CURVE SMOOTH",
"294 771 OFFCURVE",
"311 789 OFFCURVE"
);
},
{
closed = 1;
nodes = (
"471 934.728 LINE",
"302 934.728 LINE",
"252 810.677 LINE",
"372 782.722 LINE"
);
}
);
};
components = (
{
name = A;
},
{
alignment = -1;
name = acutecomb;
transform = "{1, 0, 0, 0.9494, 239, 242}";
},
{
alignment = -1;
name = ringcomb;
transform = "{1, 0, 0, 1, 171, 108}";
}
);
layerId = "985A8054-912F-442C-AEAA-CDACF2D0DECF";
width = 636;
}
);
leftKerningGroup = A;
rightKerningGroup = A;
unicode = 01FA;
},
{
glyphname = Atilde;
lastChange = "2016-11-14 09:37:42 +0000";
layers = (
{
background = {
anchors = (
{
name = bottom;
position = "{347, 0}";
},
{
name = ogonek;
position = "{655, 0}";
},
{
name = top;
position = "{337, 918}";
}
);
paths = (
{
closed = 1;
nodes = (
"18 0 LINE",
"40 0 LINE",
"151 254 LINE",
"522 254 LINE",
"633 0 LINE",
"655 0 LINE",
"346 710 LINE",
"328 710 LINE"
);
},
{
closed = 1;
nodes = (
"159 274 LINE",
"337 681 LINE",
"513 274 LINE"
);
},
{
closed = 1;
nodes = (
"394 851 CURVE SMOOTH",
"467 851 OFFCURVE",
"475 909 OFFCURVE",
"475 918 CURVE",
"455 918 LINE",
"455 914 OFFCURVE",
"451 870 OFFCURVE",
"396 870 CURVE SMOOTH",
"345 870 OFFCURVE",
"323 908 OFFCURVE",
"271 908 CURVE SMOOTH",
"205 908 OFFCURVE",
"198 847 OFFCURVE",
"198 841 CURVE",
"218 841 LINE",
"218 847 OFFCURVE",
"226 889 OFFCURVE",
"269 889 CURVE SMOOTH",
"310 889 OFFCURVE",
"335 851 OFFCURVE"
);
}
);
};
components = (
{
name = A;
},
{
name = tildecomb;
transform = "{1, 0, 0, 1, 178, 191}";
}
);
layerId = "D38D3CE8-FE00-46D7-8A67-935B0885B622";
width = 647;
},
{
background = {
anchors = (
{
name = bottom;
position = "{348, 0}";
},
{
name = ogonek;
position = "{667, 0}";
},
{
name = top;
position = "{339, 916}";
}
);
paths = (
{
closed = 1;
nodes = (
"10 0 LINE",
"106 0 LINE",
"189 208 LINE",
"487 208 LINE",
"571 0 LINE",
"667 0 LINE",
"377 710 LINE",
"301 710 LINE"
);
},
{
closed = 1;
nodes = (
"207 278 LINE",
"339 606 LINE",
"467 278 LINE"
);
},
{
closed = 1;
nodes = (
"401 813 CURVE SMOOTH",
"486 813 OFFCURVE",
"507 901 OFFCURVE",
"507 916 CURVE",
"455 916 LINE",
"455 912 OFFCURVE",
"450 867 OFFCURVE",
"399 867 CURVE SMOOTH",
"350 867 OFFCURVE",
"327 910 OFFCURVE",
"270 910 CURVE SMOOTH",
"191 910 OFFCURVE",
"171 824 OFFCURVE",
"171 807 CURVE",
"223 807 LINE",
"223 811 OFFCURVE",
"228 855 OFFCURVE",
"272 855 CURVE SMOOTH",
"315 855 OFFCURVE",
"341 813 OFFCURVE"
);
}
);
};
components = (
{
name = A;
},
{
name = tildecomb;
transform = "{1, 0, 0, 1, 152, 188}";
}
);
layerId = "51AEF656-B224-4228-B44D-D7CFD243EB09";
width = 652;
},
{
background = {
anchors = (
{
name = bottom;
position = "{345, 0}";
},
{
name = ogonek;
position = "{669, 0}";
},
{
name = top;
position = "{334, 914}";
}
);
paths = (
{
closed = 1;
nodes = (
"-2 0 LINE",
"197 0 LINE",
"239 139 LINE",
"428 139 LINE",
"471 0 LINE",
"669 0 LINE",
"443 710 LINE",
"225 710 LINE"
);
},
{
closed = 1;
nodes = (
"268 269 LINE",
"334 519 LINE",
"397 269 LINE"
);
},
{
closed = 1;
nodes = (
"403 756 CURVE SMOOTH",
"506 756 OFFCURVE",
"546 891 OFFCURVE",
"546 914 CURVE",
"446 914 LINE",
"446 911 OFFCURVE",
"440 863 OFFCURVE",
"396 863 CURVE SMOOTH",
"350 863 OFFCURVE",
"326 914 OFFCURVE",
"261 914 CURVE SMOOTH",
"161 914 OFFCURVE",
"122 791 OFFCURVE",
"122 756 CURVE",
"223 756 LINE",
"223 758 OFFCURVE",
"224 804 OFFCURVE",
"269 804 CURVE SMOOTH",
"314 804 OFFCURVE",
"342 756 OFFCURVE"
);
}
);
};
components = (
{
name = A;
},
{
name = tildecomb;
transform = "{1, 0, 0, 1, 98, 184}";
}
);
layerId = "985A8054-912F-442C-AEAA-CDACF2D0DECF";
width = 636;
}
);
leftKerningGroup = A;
rightKerningGroup = A;
unicode = 00C3;
},
{
glyphname = AE;
lastChange = "2016-11-14 07:06:29 +0000";
layers = (
{
anchors = (
{
name = top;
position = "{630, 707}";
}
);
background = {
anchors = (
{
name = top;
position = "{544, 707}";
}
);
paths = (
{
closed = 1;
nodes = (
"-29 0 LINE",
"-4 0 LINE",
"163 254 LINE",
"444 254 LINE",
"444 0 LINE",
"910 0 LINE",
"910 20 LINE",
"464 20 LINE",
"464 353 LINE",
"847 353 LINE",
"847 373 LINE",
"464 373 LINE",
"464 690 LINE",
"901 690 LINE",
"901 710 LINE",
"439 710 LINE"
);
},
{
closed = 1;
nodes = (
"175 274 LINE",
"444 678 LINE",
"444 274 LINE"
);
}
);
};
layerId = "D38D3CE8-FE00-46D7-8A67-935B0885B622";
paths = (
{
closed = 1;
nodes = (
"-84 0 LINE",
"-59 0 LINE",
"153 254 LINE",
"419 254 LINE",
"365 0 LINE",
"808 0 LINE",
"812 20 LINE",
"390 20 LINE",
"460 353 LINE",
"823 353 LINE",
"828 373 LINE",
"465 373 LINE",
"532 690 LINE",
"946 690 LINE",
"951 710 LINE",
"511 710 LINE"
);
},
{
closed = 1;
nodes = (
"169 274 LINE",
"509 678 LINE",
"424 274 LINE"
);
}
);
width = 921;
},
{
anchors = (
{
name = top;
position = "{607, 708}";
}
);
background = {
anchors = (
{
name = top;
position = "{602, 708}";
}
);
paths = (
{
closed = 1;
nodes = (
"-25 0 LINE",
"73 0 LINE",
"203 208 LINE",
"452 208 LINE",
"452 0 LINE",
"925 0 LINE",
"925 80 LINE",
"541 80 LINE",
"541 322 LINE",
"862 322 LINE",
"862 402 LINE",
"541 402 LINE",
"541 630 LINE",
"916 630 LINE",
"916 710 LINE",
"428 710 LINE"
);
},
{
closed = 1;
nodes = (
"243 288 LINE",
"446 605 LINE",
"446 288 LINE"
);
}
);
};
layerId = "51AEF656-B224-4228-B44D-D7CFD243EB09";
paths = (
{
closed = 1;
nodes = (
"-80 0 LINE",
"18 0 LINE",
"183 208 LINE",
"418 208 LINE",
"373 0 LINE",
"823 0 LINE",
"840 80 LINE",
"479 80 LINE",
"531 322 LINE",
"832 322 LINE",
"849 402 LINE",
"548 402 LINE",
"596 630 LINE",
"949 630 LINE",
"966 710 LINE",
"500 710 LINE"
);
},
{
closed = 1;
nodes = (
"240 288 LINE",
"496 605 LINE",
"428 288 LINE"
);
}
);
width = 924;
},
{
anchors = (
{
name = top;
position = "{616, 708}";
}
);
background = {
anchors = (
{
name = top;
position = "{625, 710}";
}
);
paths = (
{
closed = 1;
nodes = (
"-26 0 LINE",
"180 0 LINE",
"255 139 LINE",
"456 139 LINE",
"456 0 LINE",
"941 0 LINE",
"941 170 LINE",
"650 170 LINE",
"650 276 LINE",
"878 276 LINE",
"878 446 LINE",
"650 446 LINE",
"650 540 LINE",
"932 540 LINE",
"932 710 LINE",
"405 710 LINE"
);
},
{
closed = 1;
nodes = (
"337 309 LINE",
"441 495 LINE",
"441 309 LINE"
);
}
);
};
layerId = "985A8054-912F-442C-AEAA-CDACF2D0DECF";
paths = (
{
closed = 1;
nodes = (
"-80 0 LINE",
"126 0 LINE",
"221 139 LINE",
"408 139 LINE",
"378 0 LINE",
"840 0 LINE",
"876 170 LINE",
"609 170 LINE",
"631 276 LINE",
"839 276 LINE",
"875 446 LINE",
"667 446 LINE",
"687 540 LINE",
"946 540 LINE",
"983 710 LINE",
"478 710 LINE"
);
},
{
closed = 1;
nodes = (
"339 309 LINE",
"468 495 LINE",
"429 309 LINE"
);
}
);
width = 935;
}
);
leftKerningGroup = AE;
rightKerningGroup = E;
unicode = 00C6;
},
{
glyphname = AEacute;
lastChange = "2016-11-14 07:24:54 +0000";
layers = (
{
background = {
anchors = (
{
name = top;
position = "{583, 918}";
}
);
paths = (
{
closed = 1;
nodes = (
"-29 0 LINE",
"-4 0 LINE",
"163 254 LINE",
"444 254 LINE",
"444 0 LINE",
"910 0 LINE",
"910 20 LINE",
"464 20 LINE",
"464 353 LINE",
"847 353 LINE",
"847 373 LINE",
"464 373 LINE",
"464 690 LINE",
"901 690 LINE",
"901 710 LINE",
"439 710 LINE"
);
},
{
closed = 1;
nodes = (
"175 274 LINE",
"444 678 LINE",
"444 274 LINE"
);
},
{
closed = 1;
nodes = (
"632 918 LINE",
"598 918 LINE",
"534 845 LINE",
"550 833 LINE"
);
}
);
};
components = (
{
name = AE;
},
{
name = acutecomb;
transform = "{1, 0, 0, 1, 509, 188}";
}
);
layerId = "D38D3CE8-FE00-46D7-8A67-935B0885B622";
width = 921;
},
{
background = {
anchors = (
{
name = top;
position = "{648, 916}";
}
);
paths = (
{
closed = 1;
nodes = (
"-25 0 LINE",
"73 0 LINE",
"203 208 LINE",
"452 208 LINE",
"452 0 LINE",
"925 0 LINE",
"925 80 LINE",
"541 80 LINE",
"541 322 LINE",
"862 322 LINE",
"862 402 LINE",
"541 402 LINE",
"541 630 LINE",
"916 630 LINE",
"916 710 LINE",
"428 710 LINE"
);
},
{
closed = 1;
nodes = (
"243 288 LINE",
"446 605 LINE",
"446 288 LINE"
);
},
{
closed = 1;
nodes = (
"721 916 LINE",
"633 916 LINE",
"575 815 LINE",
"633 795 LINE"
);
}
);
};
components = (
{
name = AE;
},
{
name = acutecomb;
transform = "{1, 0, 0, 1, 491, 186}";
}
);
layerId = "51AEF656-B224-4228-B44D-D7CFD243EB09";
width = 924;
},
{
background = {
anchors = (
{
name = top;
position = "{675, 914}";
}
);
paths = (
{
closed = 1;
nodes = (
"-26 0 LINE",
"180 0 LINE",
"255 139 LINE",
"456 139 LINE",
"456 0 LINE",
"941 0 LINE",
"941 170 LINE",
"650 170 LINE",
"650 276 LINE",
"878 276 LINE",
"878 446 LINE",
"650 446 LINE",
"650 540 LINE",
"932 540 LINE",
"932 710 LINE",
"405 710 LINE"
);
},
{
closed = 1;
nodes = (
"337 309 LINE",
"441 495 LINE",
"441 309 LINE"
);
},
{
closed = 1;
nodes = (
"784 914 LINE",
"615 914 LINE",
"565 772 LINE",
"685 740 LINE"
);
}
);
};
components = (
{
name = AE;
},
{
name = acutecomb;
transform = "{1, 0, 0, 1, 444, 186}";
}
);
layerId = "985A8054-912F-442C-AEAA-CDACF2D0DECF";
width = 935;
}
);
leftKerningGroup = AE;
rightKerningGroup = E;
unicode = 01FC;
},
{
glyphname = B;
lastChange = "2016-11-11 07:20:10 +0000";
layers = (
{
background = {
paths = (
{
closed = 1;
nodes = (
"605 184 CURVE SMOOTH",
"605 265 OFFCURVE",
"554 340 OFFCURVE",
"473 364 CURVE",
"535 392 OFFCURVE",
"575 457 OFFCURVE",
"575 529 CURVE SMOOTH",
"575 618 OFFCURVE",
"513 710 OFFCURVE",
"413 710 CURVE SMOOTH",
"99 710 LINE",
"99 0 LINE",
"428 0 LINE SMOOTH",
"525 0 OFFCURVE",
"605 86 OFFCURVE"
);
},
{
closed = 1;
nodes = (
"585 184 CURVE SMOOTH",
"585 102 OFFCURVE",
"516 20 OFFCURVE",
"428 20 CURVE SMOOTH",
"119 20 LINE",
"119 348 LINE",
"435 348 LINE SMOOTH",
"521 348 OFFCURVE",
"585 269 OFFCURVE"
);
},
{
closed = 1;
nodes = (
"413 690 LINE SMOOTH",
"497 690 OFFCURVE",
"555 614 OFFCURVE",
"555 529 CURVE SMOOTH",
"555 450 OFFCURVE",
"494 368 OFFCURVE",
"407 368 CURVE SMOOTH",
"119 368 LINE",
"119 690 LINE"
);
}
);
};
layerId = "D38D3CE8-FE00-46D7-8A67-935B0885B622";
paths = (
{
closed = 1;
nodes = (
"33 0 LINE",
"346 0 LINE SMOOTH",
"450 0 OFFCURVE",
"558 104 OFFCURVE",
"558 218 CURVE SMOOTH",
"558 284 OFFCURVE",
"525 344 OFFCURVE",
"466 364 CURVE",
"544 398 OFFCURVE",
"603 478 OFFCURVE",
"603 565 CURVE SMOOTH",
"603 639 OFFCURVE",
"562 710 OFFCURVE",
"483 710 CURVE SMOOTH",
"184 710 LINE"
);
},
{
closed = 1;
nodes = (
"57 20 LINE",
"127 348 LINE",
"426 348 LINE SMOOTH",
"495 348 OFFCURVE",
"537 286 OFFCURVE",
"537 215 CURVE SMOOTH",
"537 119 OFFCURVE",
"444 20 OFFCURVE",
"350 20 CURVE SMOOTH"
);
},
{
closed = 1;
nodes = (
"131 368 LINE",
"200 690 LINE",
"478 690 LINE SMOOTH",
"545 690 OFFCURVE",
"583 631 OFFCURVE",
"583 562 CURVE SMOOTH",
"583 468 OFFCURVE",
"497 368 OFFCURVE",
"404 368 CURVE SMOOTH"
);
}
);
width = 628;
},
{
background = {
paths = (
{
closed = 1;
nodes = (
"630 183 CURVE SMOOTH",
"630 271 OFFCURVE",
"579 340 OFFCURVE",
"498 364 CURVE",
"563 393 OFFCURVE",
"600 459 OFFCURVE",
"600 529 CURVE SMOOTH",
"600 618 OFFCURVE",
"538 710 OFFCURVE",
"438 710 CURVE SMOOTH",
"85 710 LINE",
"85 0 LINE",
"422 0 LINE SMOOTH",
"536 0 OFFCURVE",
"630 73 OFFCURVE"
);
},
{
closed = 1;
nodes = (
"539 199 CURVE SMOOTH",
"539 135 OFFCURVE",
"488 78 OFFCURVE",
"422 78 CURVE SMOOTH",
"175 78 LINE",
"175 322 LINE",
"429 322 LINE SMOOTH",
"492 322 OFFCURVE",
"539 264 OFFCURVE"
);
},
{
closed = 1;
nodes = (
"407 632 LINE",
"467 632 OFFCURVE",
"511 580 OFFCURVE",
"511 513 CURVE SMOOTH",
"511 448 OFFCURVE",
"464 395 OFFCURVE",
"401 395 CURVE SMOOTH",
"175 395 LINE",
"175 632 LINE"
);
}
);
};
layerId = "51AEF656-B224-4228-B44D-D7CFD243EB09";
paths = (
{
closed = 1;
nodes = (
"20 0 LINE",
"341 0 LINE SMOOTH",
"465 0 OFFCURVE",
"584 89 OFFCURVE",
"584 221 CURVE SMOOTH",
"584 289 OFFCURVE",
"551 344 OFFCURVE",
"492 364 CURVE",
"574 399 OFFCURVE",
"629 481 OFFCURVE",
"629 565 CURVE SMOOTH",
"629 639 OFFCURVE",
"588 710 OFFCURVE",
"509 710 CURVE SMOOTH",
"171 710 LINE"
);
},
{
closed = 1;
nodes = (
"127 78 LINE",
"178 322 LINE",
"416 322 LINE SMOOTH",
"465 322 OFFCURVE",
"495 277 OFFCURVE",
"495 224 CURVE SMOOTH",
"495 148 OFFCURVE",
"427 78 OFFCURVE",
"357 78 CURVE SMOOTH"
);
},
{
closed = 1;
nodes = (
"194 395 LINE",
"244 632 LINE",
"461 632 LINE",
"507 632 OFFCURVE",
"535 592 OFFCURVE",
"535 539 CURVE SMOOTH",
"535 462 OFFCURVE",
"472 395 OFFCURVE",
"405 395 CURVE SMOOTH"
);
}
);
width = 647;
},
{
background = {
paths = (
{
closed = 1;
nodes = (
"665 182 CURVE SMOOTH",
"665 281 OFFCURVE",
"614 340 OFFCURVE",
"533 364 CURVE",
"601 394 OFFCURVE",
"635 462 OFFCURVE",
"635 528 CURVE SMOOTH",
"635 618 OFFCURVE",
"573 710 OFFCURVE",
"473 710 CURVE SMOOTH",
"61 710 LINE",
"61 0 LINE",
"410 0 LINE SMOOTH",
"550 0 OFFCURVE",
"665 54 OFFCURVE"
);
},
{
closed = 1;
nodes = (
"467 222 CURVE SMOOTH",
"467 185 OFFCURVE",
"442 164 OFFCURVE",
"410 164 CURVE SMOOTH",
"256 164 LINE",
"256 283 LINE",
"417 283 LINE SMOOTH",
"446 283 OFFCURVE",
"467 257 OFFCURVE"
);
},
{
closed = 1;
nodes = (
"395 544 LINE SMOOTH",
"420 544 OFFCURVE",
"442 529 OFFCURVE",
"442 490 CURVE SMOOTH",
"442 446 OFFCURVE",
"415 435 OFFCURVE",
"389 435 CURVE SMOOTH",
"256 435 LINE",
"256 544 LINE"
);
}
);
};
layerId = "985A8054-912F-442C-AEAA-CDACF2D0DECF";
paths = (
{
closed = 1;
nodes = (
"-3 0 LINE",
"330 0 LINE SMOOTH",
"483 0 OFFCURVE",
"621 66 OFFCURVE",
"621 225 CURVE SMOOTH",
"621 297 OFFCURVE",
"586 345 OFFCURVE",
"528 364 CURVE",
"615 400 OFFCURVE",
"665 485 OFFCURVE",
"665 564 CURVE SMOOTH",
"665 639 OFFCURVE",
"624 710 OFFCURVE",
"545 710 CURVE SMOOTH",
"148 710 LINE"
);
},
{
closed = 1;
nodes = (
"227 164 LINE",
"252 283 LINE",
"396 283 LINE SMOOTH",
"416 283 OFFCURVE",
"428 264 OFFCURVE",
"428 238 CURVE SMOOTH",
"428 192 OFFCURVE",
"397 164 OFFCURVE",
"365 164 CURVE SMOOTH"
);
},
{
closed = 1;
nodes = (
"284 435 LINE",
"308 544 LINE",
"431 544 LINE",
"448 544 OFFCURVE",
"461 533 OFFCURVE",
"461 506 CURVE SMOOTH",
"461 451 OFFCURVE",
"428 435 OFFCURVE",
"402 435 CURVE SMOOTH"
);
}
);
width = 667;
}
);
leftKerningGroup = I;
unicode = 0042;
},
{
glyphname = C;
lastChange = "2016-11-15 09:06:13 +0000";
layers = (
{
anchors = (
{
name = bottom;
position = "{277, 0}";
},
{
name = top;
position = "{428, 710}";
}
);
background = {
anchors = (
{
name = bottom;
position = "{380, 0}";
},
{
name = top;
position = "{381, 707}";
}
);
paths = (
{
closed = 1;
nodes = (
"48 360 CURVE SMOOTH",
"48 180 OFFCURVE",
"185 -6 OFFCURVE",
"378 -6 CURVE SMOOTH",
"486 -6 OFFCURVE",
"610 52 OFFCURVE",
"659 159 CURVE",
"640 164 LINE",
"585 60 OFFCURVE",
"476 14 OFFCURVE",
"382 14 CURVE SMOOTH",
"207 14 OFFCURVE",
"68 176 OFFCURVE",
"68 357 CURVE SMOOTH",
"68 521 OFFCURVE",
"181 694 OFFCURVE",
"379 694 CURVE SMOOTH",
"470 694 OFFCURVE",
"568 657 OFFCURVE",
"623 553 CURVE",
"642 559 LINE",
"599 649 OFFCURVE",
"509 714 OFFCURVE",
"383 714 CURVE SMOOTH",
"170 714 OFFCURVE",
"48 530 OFFCURVE"
);
}
);
};
layerId = "D38D3CE8-FE00-46D7-8A67-935B0885B622";
paths = (
{
closed = 1;
nodes = (
"296 -6 CURVE SMOOTH",
"399 -6 OFFCURVE",
"529 52 OFFCURVE",
"598 159 CURVE",
"580 164 LINE",
"506 60 OFFCURVE",
"393 14 OFFCURVE",
"304 14 CURVE SMOOTH",
"163 14 OFFCURVE",
"72 142 OFFCURVE",
"72 293 CURVE SMOOTH",
"72 478 OFFCURVE",
"230 694 OFFCURVE",
"446 694 CURVE SMOOTH",
"532 694 OFFCURVE",
"617 657 OFFCURVE",
"647 553 CURVE",
"667 559 LINE",
"646 649 OFFCURVE",
"574 714 OFFCURVE",
"454 714 CURVE SMOOTH",
"222 714 OFFCURVE",
"52 486 OFFCURVE",
"52 293 CURVE SMOOTH",
"52 140 OFFCURVE",
"141 -6 OFFCURVE"
);
}
);
width = 663;
},
{
anchors = (
{
name = bottom;
position = "{272, 0}";
},
{
name = top;
position = "{422, 710}";
}
);
background = {
anchors = (
{
name = bottom;
position = "{373, 0}";
},
{
name = top;
position = "{376, 708}";
}
);
paths = (
{
closed = 1;
nodes = (
"39 360 CURVE SMOOTH",
"39 180 OFFCURVE",
"177 -6 OFFCURVE",
"372 -6 CURVE SMOOTH",
"482 -6 OFFCURVE",
"609 53 OFFCURVE",
"654 159 CURVE",
"579 200 LINE",
"538 112 OFFCURVE",
"450 75 OFFCURVE",
"376 75 CURVE SMOOTH",
"235 75 OFFCURVE",
"130 208 OFFCURVE",
"130 356 CURVE SMOOTH",
"130 490 OFFCURVE",
"215 633 OFFCURVE",
"373 633 CURVE SMOOTH",
"445 633 OFFCURVE",
"528 603 OFFCURVE",
"570 513 CURVE",
"641 559 LINE",
"597 650 OFFCURVE",
"503 714 OFFCURVE",
"377 714 CURVE SMOOTH",
"163 714 OFFCURVE",
"39 532 OFFCURVE"
);
}
);
};
layerId = "51AEF656-B224-4228-B44D-D7CFD243EB09";
paths = (
{
closed = 1;
nodes = (
"293 -6 CURVE SMOOTH",
"398 -6 OFFCURVE",
"532 53 OFFCURVE",
"597 159 CURVE",
"531 200 LINE",
"474 112 OFFCURVE",
"384 75 OFFCURVE",
"314 75 CURVE SMOOTH",
"203 75 OFFCURVE",
"136 178 OFFCURVE",
"136 299 CURVE SMOOTH",
"136 450 OFFCURVE",
"257 633 OFFCURVE",
"430 633 CURVE SMOOTH",
"498 633 OFFCURVE",
"569 603 OFFCURVE",
"589 513 CURVE",
"670 559 LINE",
"647 650 OFFCURVE",
"571 714 OFFCURVE",
"451 714 CURVE SMOOTH",
"217 714 OFFCURVE",
"45 489 OFFCURVE",
"45 294 CURVE SMOOTH",
"45 141 OFFCURVE",
"135 -6 OFFCURVE"
);
}
);
width = 653;
},
{
anchors = (
{
name = bottom;
position = "{276, 0}";
},
{
name = top;
position = "{427, 710}";
}
);
background = {
anchors = (
{
name = bottom;
position = "{379, 0}";
},
{
name = top;
position = "{385, 710}";
}
);
paths = (
{
closed = 1;
nodes = (
"22 361 CURVE SMOOTH",
"22 179 OFFCURVE",
"169 -6 OFFCURVE",
"379 -6 CURVE SMOOTH",
"500 -6 OFFCURVE",
"641 54 OFFCURVE",
"683 159 CURVE",
"524 254 LINE",
"500 190 OFFCURVE",
"436 167 OFFCURVE",
"383 167 CURVE SMOOTH",
"281 167 OFFCURVE",
"220 256 OFFCURVE",
"220 355 CURVE SMOOTH",
"220 444 OFFCURVE",
"269 541 OFFCURVE",
"381 541 CURVE SMOOTH",
"434 541 OFFCURVE",
"500 522 OFFCURVE",
"527 453 CURVE",
"676 559 LINE",
"627 652 OFFCURVE",
"521 714 OFFCURVE",
"385 714 CURVE SMOOTH",
"157 714 OFFCURVE",
"22 534 OFFCURVE"
);
}
);
};
layerId = "985A8054-912F-442C-AEAA-CDACF2D0DECF";
paths = (
{
closed = 1;
nodes = (
"299 -6 CURVE SMOOTH",
"415 -6 OFFCURVE",
"563 54 OFFCURVE",
"625 159 CURVE",
"486 254 LINE",
"452 190 OFFCURVE",
"388 167 OFFCURVE",
"340 167 CURVE SMOOTH",
"264 167 OFFCURVE",
"227 233 OFFCURVE",
"227 311 CURVE SMOOTH",
"227 410 OFFCURVE",
"294 541 OFFCURVE",
"417 541 CURVE SMOOTH",
"466 541 OFFCURVE",
"523 522 OFFCURVE",
"533 453 CURVE",
"704 559 LINE",
"677 652 OFFCURVE",
"588 714 OFFCURVE",
"458 714 CURVE SMOOTH",
"211 714 OFFCURVE",
"28 495 OFFCURVE",
"28 298 CURVE SMOOTH",
"28 142 OFFCURVE",
"127 -6 OFFCURVE"
);
}
);
width = 664;
}
);
leftKerningGroup = O;
rightKerningGroup = C;
unicode = 0043;
},
{
glyphname = Cacute;
lastChange = "2016-11-14 09:07:19 +0000";
layers = (
{
background = {
anchors = (
{
name = bottom;
position = "{380, 0}";
},
{
name = top;
position = "{420, 918}";
}
);
paths = (
{
closed = 1;
nodes = (
"48 360 CURVE SMOOTH",
"48 180 OFFCURVE",
"185 -6 OFFCURVE",
"378 -6 CURVE SMOOTH",
"486 -6 OFFCURVE",
"610 52 OFFCURVE",
"659 159 CURVE",
"640 164 LINE",
"585 60 OFFCURVE",
"476 14 OFFCURVE",
"382 14 CURVE SMOOTH",
"207 14 OFFCURVE",
"68 176 OFFCURVE",
"68 357 CURVE SMOOTH",
"68 521 OFFCURVE",
"181 694 OFFCURVE",
"379 694 CURVE SMOOTH",
"470 694 OFFCURVE",
"568 657 OFFCURVE",
"623 553 CURVE",
"642 559 LINE",
"599 649 OFFCURVE",
"509 714 OFFCURVE",
"383 714 CURVE SMOOTH",
"170 714 OFFCURVE",
"48 530 OFFCURVE"
);
},
{
closed = 1;
nodes = (
"469 918 LINE",
"435 918 LINE",
"371 845 LINE",
"387 833 LINE"
);
}
);
};
components = (
{
name = C;
},
{
name = acutecomb;
transform = "{1, 0, 0, 1, 307, 191}";
}
);
layerId = "D38D3CE8-FE00-46D7-8A67-935B0885B622";
width = 663;
},
{
background = {
anchors = (
{
name = bottom;
position = "{373, 0}";
},
{
name = top;
position = "{422, 916}";
}
);
paths = (
{
closed = 1;
nodes = (
"39 360 CURVE SMOOTH",
"39 180 OFFCURVE",
"177 -6 OFFCURVE",
"372 -6 CURVE SMOOTH",
"482 -6 OFFCURVE",
"609 53 OFFCURVE",
"654 159 CURVE",
"579 200 LINE",
"538 112 OFFCURVE",
"450 75 OFFCURVE",
"376 75 CURVE SMOOTH",
"235 75 OFFCURVE",
"130 208 OFFCURVE",
"130 356 CURVE SMOOTH",
"130 490 OFFCURVE",
"215 633 OFFCURVE",
"373 633 CURVE SMOOTH",
"445 633 OFFCURVE",
"528 603 OFFCURVE",
"570 513 CURVE",
"641 559 LINE",
"597 650 OFFCURVE",
"503 714 OFFCURVE",
"377 714 CURVE SMOOTH",
"163 714 OFFCURVE",
"39 532 OFFCURVE"
);
},
{
closed = 1;
nodes = (
"495 916 LINE",
"407 916 LINE",
"349 815 LINE",
"407 795 LINE"
);
}
);
};
components = (
{
name = C;
},
{
name = acutecomb;
transform = "{1, 0, 0, 1, 306, 188}";
}
);
layerId = "51AEF656-B224-4228-B44D-D7CFD243EB09";
width = 653;
},
{
background = {
anchors = (
{
name = bottom;
position = "{379, 0}";
},
{
name = top;
position = "{435, 914}";
}
);
paths = (
{
closed = 1;
nodes = (
"22 361 CURVE SMOOTH",
"22 179 OFFCURVE",
"169 -6 OFFCURVE",
"379 -6 CURVE SMOOTH",
"500 -6 OFFCURVE",
"641 54 OFFCURVE",
"683 159 CURVE",
"524 254 LINE",
"500 190 OFFCURVE",
"436 167 OFFCURVE",
"383 167 CURVE SMOOTH",
"281 167 OFFCURVE",
"220 256 OFFCURVE",
"220 355 CURVE SMOOTH",
"220 444 OFFCURVE",
"269 541 OFFCURVE",
"381 541 CURVE SMOOTH",
"434 541 OFFCURVE",
"500 522 OFFCURVE",
"527 453 CURVE",
"676 559 LINE",
"627 652 OFFCURVE",
"521 714 OFFCURVE",
"385 714 CURVE SMOOTH",
"157 714 OFFCURVE",
"22 534 OFFCURVE"
);
},
{
closed = 1;
nodes = (
"544 914 LINE",
"375 914 LINE",
"325 772 LINE",
"445 740 LINE"
);
}
);
};
components = (
{
name = C;
},
{
name = acutecomb;
transform = "{1, 0, 0, 1, 255, 188}";
}
);
layerId = "985A8054-912F-442C-AEAA-CDACF2D0DECF";
width = 664;
}
);
leftKerningGroup = O;
rightKerningGroup = C;
unicode = 0106;
},
{
glyphname = Ccaron;
lastChange = "2016-11-14 09:07:19 +0000";
layers = (
{
background = {
anchors = (
{
name = bottom;
position = "{380, 0}";
},
{
name = top;
position = "{381, 918}";
}
);
paths = (
{
closed = 1;
nodes = (
"48 360 CURVE SMOOTH",
"48 180 OFFCURVE",
"185 -6 OFFCURVE",
"378 -6 CURVE SMOOTH",
"486 -6 OFFCURVE",
"610 52 OFFCURVE",
"659 159 CURVE",
"640 164 LINE",
"585 60 OFFCURVE",
"476 14 OFFCURVE",
"382 14 CURVE SMOOTH",
"207 14 OFFCURVE",
"68 176 OFFCURVE",
"68 357 CURVE SMOOTH",
"68 521 OFFCURVE",
"181 694 OFFCURVE",
"379 694 CURVE SMOOTH",
"470 694 OFFCURVE",
"568 657 OFFCURVE",
"623 553 CURVE",
"642 559 LINE",
"599 649 OFFCURVE",
"509 714 OFFCURVE",
"383 714 CURVE SMOOTH",
"170 714 OFFCURVE",
"48 530 OFFCURVE"
);
},
{
closed = 1;
nodes = (
"280 906 LINE",
"373 832 LINE",
"389 832 LINE",
"482 906 LINE",
"466 918 LINE",
"381 855 LINE",
"296 918 LINE"
);
}
);
};
components = (
{
name = C;
},
{
name = caroncomb;
transform = "{1, 0, 0, 1, 220, 191}";
}
);
layerId = "D38D3CE8-FE00-46D7-8A67-935B0885B622";
width = 663;
},
{
background = {
anchors = (
{
name = bottom;
position = "{373, 0}";
},
{
name = top;
position = "{376, 916}";
}
);
paths = (
{
closed = 1;
nodes = (
"39 360 CURVE SMOOTH",
"39 180 OFFCURVE",
"177 -6 OFFCURVE",
"372 -6 CURVE SMOOTH",
"482 -6 OFFCURVE",
"609 53 OFFCURVE",
"654 159 CURVE",
"579 200 LINE",
"538 112 OFFCURVE",
"450 75 OFFCURVE",
"376 75 CURVE SMOOTH",
"235 75 OFFCURVE",
"130 208 OFFCURVE",
"130 356 CURVE SMOOTH",
"130 490 OFFCURVE",
"215 633 OFFCURVE",
"373 633 CURVE SMOOTH",
"445 633 OFFCURVE",
"528 603 OFFCURVE",
"570 513 CURVE",
"641 559 LINE",
"597 650 OFFCURVE",
"503 714 OFFCURVE",
"377 714 CURVE SMOOTH",
"163 714 OFFCURVE",
"39 532 OFFCURVE"
);
},
{
closed = 1;
nodes = (
"243 892 LINE",
"344 802 LINE",
"408 802 LINE",
"509 892 LINE",
"461 916 LINE",
"376 853 LINE",
"291 916 LINE"
);
}
);
};
components = (
{
name = C;
},
{
name = caroncomb;
transform = "{1, 0, 0, 1, 181, 188}";
}
);
layerId = "51AEF656-B224-4228-B44D-D7CFD243EB09";
width = 653;
},
{
background = {
anchors = (
{
name = bottom;
position = "{379, 0}";
},
{
name = top;
position = "{385, 914}";
}
);
paths = (
{
closed = 1;
nodes = (
"22 361 CURVE SMOOTH",
"22 179 OFFCURVE",
"169 -6 OFFCURVE",
"379 -6 CURVE SMOOTH",
"500 -6 OFFCURVE",
"641 54 OFFCURVE",
"683 159 CURVE",
"524 254 LINE",
"500 190 OFFCURVE",
"436 167 OFFCURVE",
"383 167 CURVE SMOOTH",
"281 167 OFFCURVE",
"220 256 OFFCURVE",
"220 355 CURVE SMOOTH",
"220 444 OFFCURVE",
"269 541 OFFCURVE",
"381 541 CURVE SMOOTH",
"434 541 OFFCURVE",
"500 522 OFFCURVE",
"527 453 CURVE",
"676 559 LINE",
"627 652 OFFCURVE",
"521 714 OFFCURVE",
"385 714 CURVE SMOOTH",
"157 714 OFFCURVE",
"22 534 OFFCURVE"
);
},
{
closed = 1;
nodes = (
"204 872 LINE",
"317 757 LINE",
"453 757 LINE",
"566 872 LINE",
"470 914 LINE",
"385 851 LINE",
"300 914 LINE"
);
}
);
};
components = (
{
name = C;
},
{
name = caroncomb;
transform = "{1, 0, 0, 1, 137, 184}";
}
);
layerId = "985A8054-912F-442C-AEAA-CDACF2D0DECF";
width = 664;
}
);
leftKerningGroup = O;
rightKerningGroup = C;
unicode = 010C;
},
{
glyphname = Ccedilla;
lastChange = "2016-11-15 09:06:13 +0000";
layers = (
{
background = {
anchors = (
{
name = bottom;
position = "{380, 0}";
},
{
name = top;
position = "{381, 707}";
}
);
paths = (
{
closed = 1;
nodes = (
"48 360 CURVE SMOOTH",
"48 180 OFFCURVE",
"185 -6 OFFCURVE",
"378 -6 CURVE SMOOTH",
"486 -6 OFFCURVE",
"610 52 OFFCURVE",
"659 159 CURVE",
"640 164 LINE",
"585 60 OFFCURVE",
"476 14 OFFCURVE",
"382 14 CURVE SMOOTH",
"207 14 OFFCURVE",
"68 176 OFFCURVE",
"68 357 CURVE SMOOTH",
"68 521 OFFCURVE",
"181 694 OFFCURVE",
"379 694 CURVE SMOOTH",
"470 694 OFFCURVE",
"568 657 OFFCURVE",
"623 553 CURVE",
"642 559 LINE",
"599 649 OFFCURVE",
"509 714 OFFCURVE",
"383 714 CURVE SMOOTH",
"170 714 OFFCURVE",
"48 530 OFFCURVE"
);
},
{
closed = 1;
nodes = (
"426 -164 OFFCURVE",
"467 -142 OFFCURVE",
"467 -90 CURVE SMOOTH",
"467 -43 OFFCURVE",
"433 -15 OFFCURVE",
"377 14 CURVE",
"363 0 LINE",
"417 -27 OFFCURVE",
"447 -51 OFFCURVE",
"447 -90 CURVE SMOOTH",
"447 -128 OFFCURVE",
"419 -146 OFFCURVE",
"367 -146 CURVE SMOOTH",
"329 -146 OFFCURVE",
"303 -136 OFFCURVE",
"271 -122 CURVE",
"260 -139 LINE",
"294 -156 OFFCURVE",
"336 -164 OFFCURVE",
"370 -164 CURVE SMOOTH"
);
}
);
};
components = (
{
name = C;
},
{
name = cedillacomb;
transform = "{1, 0, 0, 1, 177, 0}";
}
);
layerId = "D38D3CE8-FE00-46D7-8A67-935B0885B622";
width = 663;
},
{
background = {
anchors = (
{
name = bottom;
position = "{373, 0}";
},
{
name = top;
position = "{376, 708}";
}
);
paths = (
{
closed = 1;
nodes = (
"39 360 CURVE SMOOTH",
"39 180 OFFCURVE",
"177 -6 OFFCURVE",
"372 -6 CURVE SMOOTH",
"482 -6 OFFCURVE",
"609 53 OFFCURVE",
"654 159 CURVE",
"579 200 LINE",
"538 112 OFFCURVE",
"450 75 OFFCURVE",
"376 75 CURVE SMOOTH",
"235 75 OFFCURVE",
"130 208 OFFCURVE",
"130 356 CURVE SMOOTH",
"130 490 OFFCURVE",
"215 633 OFFCURVE",
"373 633 CURVE SMOOTH",
"445 633 OFFCURVE",
"528 603 OFFCURVE",
"570 513 CURVE",
"641 559 LINE",
"597 650 OFFCURVE",
"503 714 OFFCURVE",
"377 714 CURVE SMOOTH",
"163 714 OFFCURVE",
"39 532 OFFCURVE"
);
},
{
closed = 1;
nodes = (
"428 -186 OFFCURVE",
"467 -152 OFFCURVE",
"467 -97 CURVE SMOOTH",
"467 -43 OFFCURVE",
"430 -10 OFFCURVE",
"376 23 CURVE",
"344 0 LINE",
"387 -25 OFFCURVE",
"411 -49 OFFCURVE",
"411 -82 CURVE SMOOTH",
"411 -114 OFFCURVE",
"387 -131 OFFCURVE",
"346 -131 CURVE SMOOTH",
"317 -131 OFFCURVE",
"295 -122 OFFCURVE",
"269 -109 CURVE",
"245 -158 LINE",
"283 -177 OFFCURVE",
"326 -186 OFFCURVE",
"361 -186 CURVE SMOOTH"
);
}
);
};
components = (
{
name = C;
},
{
name = cedillacomb;
transform = "{1, 0, 0, 1, 162, 0}";
}
);
layerId = "51AEF656-B224-4228-B44D-D7CFD243EB09";
width = 653;
},
{
background = {
anchors = (
{
name = bottom;
position = "{379, 0}";
},
{
name = top;
position = "{385, 710}";
}
);
paths = (
{
closed = 1;
nodes = (
"22 361 CURVE SMOOTH",
"22 179 OFFCURVE",
"169 -6 OFFCURVE",
"379 -6 CURVE SMOOTH",
"500 -6 OFFCURVE",
"641 54 OFFCURVE",
"683 159 CURVE",
"524 254 LINE",
"500 190 OFFCURVE",
"436 167 OFFCURVE",
"383 167 CURVE SMOOTH",
"281 167 OFFCURVE",
"220 256 OFFCURVE",
"220 355 CURVE SMOOTH",
"220 444 OFFCURVE",
"269 541 OFFCURVE",
"381 541 CURVE SMOOTH",
"434 541 OFFCURVE",
"500 522 OFFCURVE",
"527 453 CURVE",
"676 559 LINE",
"627 652 OFFCURVE",
"521 714 OFFCURVE",
"385 714 CURVE SMOOTH",
"157 714 OFFCURVE",
"22 534 OFFCURVE"
);
},
{
closed = 1;
nodes = (
"447 -220 OFFCURVE",
"485 -166 OFFCURVE",
"485 -107 CURVE SMOOTH",
"485 -44 OFFCURVE",
"442 -2 OFFCURVE",
"392 36 CURVE",
"332 0 LINE",
"359 -23 OFFCURVE",
"374 -46 OFFCURVE",
"374 -69 CURVE SMOOTH",
"374 -94 OFFCURVE",
"356 -108 OFFCURVE",
"332 -108 CURVE SMOOTH",
"317 -108 OFFCURVE",
"299 -102 OFFCURVE",
"284 -89 CURVE",
"240 -186 LINE",
"283 -209 OFFCURVE",
"327 -220 OFFCURVE",
"364 -220 CURVE SMOOTH"
);
}
);
};
components = (
{
name = C;
},
{
name = cedillacomb;
transform = "{1, 0, 0, 1, 154, 0}";
}
);
layerId = "985A8054-912F-442C-AEAA-CDACF2D0DECF";
width = 664;
}
);
leftKerningGroup = O;
rightKerningGroup = C;
unicode = 00C7;
},
{
glyphname = Ccircumflex;
lastChange = "2016-11-14 09:07:19 +0000";
layers = (
{
background = {
anchors = (
{
name = bottom;
position = "{380, 0}";
},
{
name = top;
position = "{381, 918}";
}
);
paths = (
{
closed = 1;
nodes = (
"48 360 CURVE SMOOTH",
"48 180 OFFCURVE",
"185 -6 OFFCURVE",
"378 -6 CURVE SMOOTH",
"486 -6 OFFCURVE",
"610 52 OFFCURVE",
"659 159 CURVE",
"640 164 LINE",
"585 60 OFFCURVE",
"476 14 OFFCURVE",
"382 14 CURVE SMOOTH",
"207 14 OFFCURVE",
"68 176 OFFCURVE",
"68 357 CURVE SMOOTH",
"68 521 OFFCURVE",
"181 694 OFFCURVE",
"379 694 CURVE SMOOTH",
"470 694 OFFCURVE",
"568 657 OFFCURVE",
"623 553 CURVE",
"642 559 LINE",
"599 649 OFFCURVE",
"509 714 OFFCURVE",
"383 714 CURVE SMOOTH",
"170 714 OFFCURVE",
"48 530 OFFCURVE"
);
},
{
closed = 1;
nodes = (
"296 832 LINE",
"381 895 LINE",
"466 832 LINE",
"482 844 LINE",
"389 918 LINE",
"373 918 LINE",
"280 844 LINE"
);
}
);
};
components = (
{
name = C;
},
{
name = circumflexcomb;
transform = "{1, 0, 0, 1, 233, 191}";
}
);
layerId = "D38D3CE8-FE00-46D7-8A67-935B0885B622";
width = 663;
},
{
background = {
anchors = (
{
name = bottom;
position = "{373, 0}";
},
{
name = top;
position = "{376, 916}";
}
);
paths = (
{
closed = 1;
nodes = (
"39 360 CURVE SMOOTH",
"39 180 OFFCURVE",
"177 -6 OFFCURVE",
"372 -6 CURVE SMOOTH",
"482 -6 OFFCURVE",
"609 53 OFFCURVE",
"654 159 CURVE",
"579 200 LINE",
"538 112 OFFCURVE",
"450 75 OFFCURVE",
"376 75 CURVE SMOOTH",
"235 75 OFFCURVE",
"130 208 OFFCURVE",
"130 356 CURVE SMOOTH",
"130 490 OFFCURVE",
"215 633 OFFCURVE",
"373 633 CURVE SMOOTH",
"445 633 OFFCURVE",
"528 603 OFFCURVE",
"570 513 CURVE",
"641 559 LINE",
"597 650 OFFCURVE",
"503 714 OFFCURVE",
"377 714 CURVE SMOOTH",
"163 714 OFFCURVE",
"39 532 OFFCURVE"
);
},
{
closed = 1;
nodes = (
"291 802 LINE",
"376 865 LINE",
"461 802 LINE",
"509 826 LINE",
"408 916 LINE",
"344 916 LINE",
"243 826 LINE"
);
}
);
};
components = (
{
name = C;
},
{
name = circumflexcomb;
transform = "{1, 0, 0, 1, 195, 188}";
}
);
layerId = "51AEF656-B224-4228-B44D-D7CFD243EB09";
width = 653;
},
{
background = {
anchors = (
{
name = bottom;
position = "{379, 0}";
},
{
name = top;
position = "{385, 914}";
}
);
paths = (
{
closed = 1;
nodes = (
"22 361 CURVE SMOOTH",
"22 179 OFFCURVE",
"169 -6 OFFCURVE",
"379 -6 CURVE SMOOTH",
"500 -6 OFFCURVE",
"641 54 OFFCURVE",
"683 159 CURVE",
"524 254 LINE",
"500 190 OFFCURVE",
"436 167 OFFCURVE",
"383 167 CURVE SMOOTH",
"281 167 OFFCURVE",
"220 256 OFFCURVE",
"220 355 CURVE SMOOTH",
"220 444 OFFCURVE",
"269 541 OFFCURVE",
"381 541 CURVE SMOOTH",
"434 541 OFFCURVE",
"500 522 OFFCURVE",
"527 453 CURVE",
"676 559 LINE",
"627 652 OFFCURVE",
"521 714 OFFCURVE",
"385 714 CURVE SMOOTH",
"157 714 OFFCURVE",
"22 534 OFFCURVE"
);
},
{
closed = 1;
nodes = (
"300 757 LINE",
"385 820 LINE",
"470 757 LINE",
"566 799 LINE",
"453 914 LINE",
"317 914 LINE",
"204 799 LINE"
);
}
);
};
components = (
{
name = C;
},
{
name = circumflexcomb;
transform = "{1, 0, 0, 1, 152, 184}";
}
);
layerId = "985A8054-912F-442C-AEAA-CDACF2D0DECF";
width = 664;
}
);
leftKerningGroup = O;
rightKerningGroup = C;
unicode = 0108;
},
{
glyphname = Cdotaccent;
lastChange = "2016-11-14 09:15:53 +0000";
layers = (
{
background = {
anchors = (
{
name = bottom;
position = "{380, 0}";
},
{
name = top;
position = "{381, 918}";
}
);
paths = (
{
closed = 1;
nodes = (
"48 360 CURVE SMOOTH",
"48 180 OFFCURVE",
"185 -6 OFFCURVE",
"378 -6 CURVE SMOOTH",
"486 -6 OFFCURVE",
"610 52 OFFCURVE",
"659 159 CURVE",
"640 164 LINE",
"585 60 OFFCURVE",
"476 14 OFFCURVE",
"382 14 CURVE SMOOTH",
"207 14 OFFCURVE",
"68 176 OFFCURVE",
"68 357 CURVE SMOOTH",
"68 521 OFFCURVE",
"181 694 OFFCURVE",
"379 694 CURVE SMOOTH",
"470 694 OFFCURVE",
"568 657 OFFCURVE",
"623 553 CURVE",
"642 559 LINE",
"599 649 OFFCURVE",
"509 714 OFFCURVE",
"383 714 CURVE SMOOTH",
"170 714 OFFCURVE",
"48 530 OFFCURVE"
);
},
{
closed = 1;
nodes = (
"391 841 LINE",
"391 918 LINE",
"371 918 LINE",
"371 841 LINE"
);
}
);
};
components = (
{
name = C;
},
{
name = dotaccentcomb;
transform = "{1, 0, 0, 1, 313, 191}";
}
);
layerId = "D38D3CE8-FE00-46D7-8A67-935B0885B622";
width = 663;
},
{
background = {
anchors = (
{
name = bottom;
position = "{373, 0}";
},
{
name = top;
position = "{376, 916}";
}
);
paths = (
{
closed = 1;
nodes = (
"39 360 CURVE SMOOTH",
"39 180 OFFCURVE",
"177 -6 OFFCURVE",
"372 -6 CURVE SMOOTH",
"482 -6 OFFCURVE",
"609 53 OFFCURVE",
"654 159 CURVE",
"579 200 LINE",
"538 112 OFFCURVE",
"450 75 OFFCURVE",
"376 75 CURVE SMOOTH",
"235 75 OFFCURVE",
"130 208 OFFCURVE",
"130 356 CURVE SMOOTH",
"130 490 OFFCURVE",
"215 633 OFFCURVE",
"373 633 CURVE SMOOTH",
"445 633 OFFCURVE",
"528 603 OFFCURVE",
"570 513 CURVE",
"641 559 LINE",
"597 650 OFFCURVE",
"503 714 OFFCURVE",
"377 714 CURVE SMOOTH",
"163 714 OFFCURVE",
"39 532 OFFCURVE"
);
},
{
closed = 1;
nodes = (
"416 810 LINE",
"416 916 LINE",
"336 916 LINE",
"336 810 LINE"
);
}
);
};
components = (
{
name = C;
},
{
name = dotaccentcomb;
transform = "{1, 0, 0, 1, 277, 188}";
}
);
layerId = "51AEF656-B224-4228-B44D-D7CFD243EB09";
width = 653;
},
{
background = {
anchors = (
{
name = bottom;
position = "{379, 0}";
},
{
name = top;
position = "{385, 914}";
}
);
paths = (
{
closed = 1;
nodes = (
"22 361 CURVE SMOOTH",
"22 179 OFFCURVE",
"169 -6 OFFCURVE",
"379 -6 CURVE SMOOTH",
"500 -6 OFFCURVE",
"641 54 OFFCURVE",
"683 159 CURVE",
"524 254 LINE",
"500 190 OFFCURVE",
"436 167 OFFCURVE",
"383 167 CURVE SMOOTH",
"281 167 OFFCURVE",
"220 256 OFFCURVE",
"220 355 CURVE SMOOTH",
"220 444 OFFCURVE",
"269 541 OFFCURVE",
"381 541 CURVE SMOOTH",
"434 541 OFFCURVE",
"500 522 OFFCURVE",
"527 453 CURVE",
"676 559 LINE",
"627 652 OFFCURVE",
"521 714 OFFCURVE",
"385 714 CURVE SMOOTH",
"157 714 OFFCURVE",
"22 534 OFFCURVE"
);
},
{
closed = 1;
nodes = (
"470 764 LINE",
"470 914 LINE",
"300 914 LINE",
"300 764 LINE"
);
}
);
};
components = (
{
name = C;
},
{
alignment = 1;
name = dotaccentcomb;
transform = "{1, 0, 0, 1, 236, 184}";
}
);
layerId = "985A8054-912F-442C-AEAA-CDACF2D0DECF";
width = 664;
}
);
leftKerningGroup = O;
rightKerningGroup = C;
unicode = 010A;
},
{
glyphname = D;
lastChange = "2016-11-14 05:58:32 +0000";
layers = (
{
anchors = (
{
name = bottom;
position = "{247, 0}";
},
{
name = center;
position = "{324, 355}";
},
{
name = top;
position = "{408, 710}";
}
);
background = {
anchors = (
{
name = bottom;
position = "{357, 0}";
},
{
name = center;
position = "{356, 355}";
},
{
name = top;
position = "{353, 707}";
}
);
paths = (
{
closed = 1;
nodes = (
"327 0 LINE SMOOTH",
"531 0 OFFCURVE",
"660 141 OFFCURVE",
"660 356 CURVE SMOOTH",
"660 552 OFFCURVE",
"550 710 OFFCURVE",
"327 710 CURVE SMOOTH",
"99 710 LINE",
"99 0 LINE"
);
},
{
closed = 1;
nodes = (
"640 356 CURVE SMOOTH",
"640 165 OFFCURVE",
"533 20 OFFCURVE",
"327 20 CURVE SMOOTH",
"119 20 LINE",
"119 690 LINE",
"327 690 LINE SMOOTH",
"528 690 OFFCURVE",
"640 550 OFFCURVE"
);
}
);
};
layerId = "D38D3CE8-FE00-46D7-8A67-935B0885B622";
paths = (
{
closed = 1;
nodes = (
"33 0 LINE",
"250 0 LINE SMOOTH",
"483 0 OFFCURVE",
"653 188 OFFCURVE",
"653 440 CURVE SMOOTH",
"653 591 OFFCURVE",
"574 710 OFFCURVE",
"401 710 CURVE SMOOTH",
"184 710 LINE"
);
},
{
closed = 1;
nodes = (
"57 20 LINE",
"200 690 LINE",
"397 690 LINE SMOOTH",
"553 690 OFFCURVE",
"633 584 OFFCURVE",
"633 435 CURVE SMOOTH",
"633 217 OFFCURVE",
"491 20 OFFCURVE",
"254 20 CURVE SMOOTH"
);
}
);
width = 684;
},
{
anchors = (
{
name = bottom;
position = "{241, 0}";
},
{
name = center;
position = "{319, 355}";
},
{
name = top;
position = "{391, 708}";
}
);
background = {
anchors = (
{
name = bottom;
position = "{358, 0}";
},
{
name = center;
position = "{358, 355}";
},
{
name = top;
position = "{340, 708}";
}
);
paths = (
{
closed = 1;
nodes = (
"331 0 LINE SMOOTH",
"540 0 OFFCURVE",
"674 141 OFFCURVE",
"674 356 CURVE SMOOTH",
"674 552 OFFCURVE",
"559 710 OFFCURVE",
"331 710 CURVE SMOOTH",
"85 710 LINE",
"85 0 LINE"
);
},
{
closed = 1;
nodes = (
"583 356 CURVE SMOOTH",
"583 199 OFFCURVE",
"495 80 OFFCURVE",
"331 80 CURVE SMOOTH",
"175 80 LINE",
"175 630 LINE",
"331 630 LINE SMOOTH",
"492 630 OFFCURVE",
"583 516 OFFCURVE"
);
}
);
};
layerId = "51AEF656-B224-4228-B44D-D7CFD243EB09";
paths = (
{
closed = 1;
nodes = (
"20 0 LINE",
"255 0 LINE",
"492 0 OFFCURVE",
"668 186 OFFCURVE",
"668 437 CURVE SMOOTH",
"668 590 OFFCURVE",
"585 710 OFFCURVE",
"406 710 CURVE SMOOTH",
"171 710 LINE"
);
},
{
closed = 1;
nodes = (
"127 80 LINE",
"244 630 LINE",
"389 630 LINE SMOOTH",
"512 630 OFFCURVE",
"575 544 OFFCURVE",
"575 423 CURVE SMOOTH",
"575 242 OFFCURVE",
"458 80 OFFCURVE",
"272 80 CURVE SMOOTH"
);
}
);
width = 692;
},
{
anchors = (
{
name = bottom;
position = "{261, 0}";
},
{
name = center;
position = "{337, 355}";
},
{
name = top;
position = "{412, 710}";
}
);
background = {
anchors = (
{
name = bottom;
position = "{358, 0}";
},
{
name = center;
position = "{358, 355}";
},
{
name = top;
position = "{317, 710}";
}
);
paths = (
{
closed = 1;
nodes = (
"334 0 LINE SMOOTH",
"550 0 OFFCURVE",
"692 141 OFFCURVE",
"692 356 CURVE SMOOTH",
"692 552 OFFCURVE",
"570 710 OFFCURVE",
"334 710 CURVE SMOOTH",
"61 710 LINE",
"61 0 LINE"
);
},
{
closed = 1;
nodes = (
"494 356 CURVE SMOOTH",
"494 249 OFFCURVE",
"436 170 OFFCURVE",
"334 170 CURVE SMOOTH",
"256 170 LINE",
"256 540 LINE",
"334 540 LINE SMOOTH",
"434 540 OFFCURVE",
"494 466 OFFCURVE"
);
}
);
};
layerId = "985A8054-912F-442C-AEAA-CDACF2D0DECF";
paths = (
{
closed = 1;
nodes = (
"-3 0 LINE",
"259 0 LINE",
"502 0 OFFCURVE",
"686 183 OFFCURVE",
"686 433 CURVE SMOOTH",
"686 588 OFFCURVE",
"598 710 OFFCURVE",
"410 710 CURVE SMOOTH",
"148 710 LINE"
);
},
{
closed = 1;
nodes = (
"228 170 LINE",
"307 540 LINE",
"374 540 LINE SMOOTH",
"446 540 OFFCURVE",
"485 486 OFFCURVE",
"485 405 CURVE SMOOTH",
"485 280 OFFCURVE",
"407 170 OFFCURVE",
"295 170 CURVE SMOOTH"
);
}
);
width = 693;
}
);
leftKerningGroup = I;
rightKerningGroup = D;
unicode = 0044;
},
{
glyphname = Eth;
lastChange = "2016-11-11 07:20:10 +0000";
layers = (
{
background = {
anchors = (
{
name = bottom;
position = "{364, 0}";
},
{
name = center;
position = "{363, 355}";
},
{
name = top;
position = "{360, 707}";
}
);
paths = (
{
closed = 1;
nodes = (
"318 347 LINE",
"318 367 LINE",
"35 367 LINE",
"35 347 LINE"
);
},
{
closed = 1;
nodes = (
"334 0 LINE SMOOTH",
"538 0 OFFCURVE",
"667 141 OFFCURVE",
"667 356 CURVE SMOOTH",
"667 552 OFFCURVE",
"557 710 OFFCURVE",
"334 710 CURVE SMOOTH",
"106 710 LINE",
"106 0 LINE"
);
},
{
closed = 1;
nodes = (
"647 356 CURVE SMOOTH",
"647 165 OFFCURVE",
"540 20 OFFCURVE",
"334 20 CURVE SMOOTH",
"126 20 LINE",
"126 690 LINE",
"334 690 LINE SMOOTH",
"535 690 OFFCURVE",
"647 550 OFFCURVE"
);
}
);
};
layerId = "D38D3CE8-FE00-46D7-8A67-935B0885B622";
paths = (
{
closed = 1;
nodes = (
"47 347 LINE",
"316 347 LINE",
"320 367 LINE",
"51 367 LINE"
);
},
{
closed = 1;
nodes = (
"40 0 LINE",
"257 0 LINE SMOOTH",
"490 0 OFFCURVE",
"660 188 OFFCURVE",
"660 440 CURVE SMOOTH",
"660 591 OFFCURVE",
"581 710 OFFCURVE",
"408 710 CURVE SMOOTH",
"191 710 LINE"
);
},
{
closed = 1;
nodes = (
"64 20 LINE",
"207 690 LINE",
"404 690 LINE SMOOTH",
"560 690 OFFCURVE",
"640 584 OFFCURVE",
"640 435 CURVE SMOOTH",
"640 217 OFFCURVE",
"498 20 OFFCURVE",
"261 20 CURVE SMOOTH"
);
}
);
width = 691;
},
{
background = {
anchors = (
{
name = bottom;
position = "{364, 0}";
},
{
name = center;
position = "{364, 355}";
},
{
name = top;
position = "{346, 708}";
}
);
paths = (
{
closed = 1;
nodes = (
"342 323 LINE",
"342 391 LINE",
"34 391 LINE",
"34 323 LINE"
);
},
{
closed = 1;
nodes = (
"337 0 LINE SMOOTH",
"546 0 OFFCURVE",
"680 141 OFFCURVE",
"680 356 CURVE SMOOTH",
"680 552 OFFCURVE",
"565 710 OFFCURVE",
"337 710 CURVE SMOOTH",
"91 710 LINE",
"91 0 LINE"
);
},
{
closed = 1;
nodes = (
"589 356 CURVE SMOOTH",
"589 199 OFFCURVE",
"501 80 OFFCURVE",
"337 80 CURVE SMOOTH",
"181 80 LINE",
"181 630 LINE",
"337 630 LINE SMOOTH",
"498 630 OFFCURVE",
"589 516 OFFCURVE"
);
}
);
};
layerId = "51AEF656-B224-4228-B44D-D7CFD243EB09";
paths = (
{
closed = 1;
nodes = (
"42 323 LINE",
"337 323 LINE",
"351 391 LINE",
"57 391 LINE"
);
},
{
closed = 1;
nodes = (
"27 0 LINE",
"262 0 LINE",
"499 0 OFFCURVE",
"675 186 OFFCURVE",
"675 437 CURVE SMOOTH",
"675 590 OFFCURVE",
"592 710 OFFCURVE",
"413 710 CURVE SMOOTH",
"178 710 LINE"
);
},
{
closed = 1;
nodes = (
"134 80 LINE",
"251 630 LINE",
"396 630 LINE SMOOTH",
"519 630 OFFCURVE",
"582 544 OFFCURVE",
"582 423 CURVE SMOOTH",
"582 242 OFFCURVE",
"465 80 OFFCURVE",
"279 80 CURVE SMOOTH"
);
}
);
width = 699;
},
{
background = {
anchors = (
{
name = bottom;
position = "{362, 0}";
},
{
name = center;
position = "{362, 355}";
},
{
name = top;
position = "{321, 710}";
}
);
paths = (
{
closed = 1;
nodes = (
"374 287 LINE",
"374 427 LINE",
"28 427 LINE",
"28 287 LINE"
);
},
{
closed = 1;
nodes = (
"338 0 LINE SMOOTH",
"554 0 OFFCURVE",
"696 141 OFFCURVE",
"696 356 CURVE SMOOTH",
"696 552 OFFCURVE",
"574 710 OFFCURVE",
"338 710 CURVE SMOOTH",
"65 710 LINE",
"65 0 LINE"
);
},
{
closed = 1;
nodes = (
"498 356 CURVE SMOOTH",
"498 249 OFFCURVE",
"440 170 OFFCURVE",
"338 170 CURVE SMOOTH",
"260 170 LINE",
"260 540 LINE",
"338 540 LINE SMOOTH",
"438 540 OFFCURVE",
"498 466 OFFCURVE"
);
}
);
};
layerId = "985A8054-912F-442C-AEAA-CDACF2D0DECF";
paths = (
{
closed = 1;
nodes = (
"28 287 LINE",
"360 287 LINE",
"390 427 LINE",
"57 427 LINE"
);
},
{
closed = 1;
nodes = (
"0 0 LINE",
"262 0 LINE",
"505 0 OFFCURVE",
"689 183 OFFCURVE",
"689 433 CURVE SMOOTH",
"689 588 OFFCURVE",
"601 710 OFFCURVE",
"413 710 CURVE SMOOTH",
"151 710 LINE"
);
},
{
closed = 1;
nodes = (
"231 170 LINE",
"310 540 LINE",
"377 540 LINE SMOOTH",
"449 540 OFFCURVE",
"488 486 OFFCURVE",
"488 405 CURVE SMOOTH",
"488 280 OFFCURVE",
"410 170 OFFCURVE",
"298 170 CURVE SMOOTH"
);
}
);
width = 696;
}
);
leftKerningGroup = I;
rightKerningGroup = D;
unicode = 00D0;
},
{
glyphname = Dcaron;
lastChange = "2016-11-14 07:53:54 +0000";
layers = (
{
background = {
anchors = (
{
name = bottom;
position = "{357, 0}";
},
{
name = center;
position = "{356, 355}";
},
{
name = top;
position = "{353, 918}";
}
);
paths = (
{
closed = 1;
nodes = (
"327 0 LINE SMOOTH",
"531 0 OFFCURVE",
"660 141 OFFCURVE",
"660 356 CURVE SMOOTH",
"660 552 OFFCURVE",
"550 710 OFFCURVE",
"327 710 CURVE SMOOTH",
"99 710 LINE",
"99 0 LINE"
);
},
{
closed = 1;
nodes = (
"640 356 CURVE SMOOTH",
"640 165 OFFCURVE",
"533 20 OFFCURVE",
"327 20 CURVE SMOOTH",
"119 20 LINE",
"119 690 LINE",
"327 690 LINE SMOOTH",
"528 690 OFFCURVE",
"640 550 OFFCURVE"
);
},
{
closed = 1;
nodes = (
"252 906 LINE",
"345 832 LINE",
"361 832 LINE",
"454 906 LINE",
"438 918 LINE",
"353 855 LINE",
"268 918 LINE"
);
}
);
};
components = (
{
name = D;
},
{
name = caroncomb;
transform = "{1, 0, 0, 1, 200, 191}";
}
);
layerId = "D38D3CE8-FE00-46D7-8A67-935B0885B622";
width = 684;
},
{
background = {
anchors = (
{
name = bottom;
position = "{358, 0}";
},
{
name = center;
position = "{358, 355}";
},
{
name = top;
position = "{340, 916}";
}
);
paths = (
{
closed = 1;
nodes = (
"331 0 LINE SMOOTH",
"540 0 OFFCURVE",
"674 141 OFFCURVE",
"674 356 CURVE SMOOTH",
"674 552 OFFCURVE",
"559 710 OFFCURVE",
"331 710 CURVE SMOOTH",
"85 710 LINE",
"85 0 LINE"
);
},
{
closed = 1;
nodes = (
"583 356 CURVE SMOOTH",
"583 199 OFFCURVE",
"495 80 OFFCURVE",
"331 80 CURVE SMOOTH",
"175 80 LINE",
"175 630 LINE",
"331 630 LINE SMOOTH",
"492 630 OFFCURVE",
"583 516 OFFCURVE"
);
},
{
closed = 1;
nodes = (
"207 892 LINE",
"308 802 LINE",
"372 802 LINE",
"473 892 LINE",
"425 916 LINE",
"340 853 LINE",
"255 916 LINE"
);
}
);
};
components = (
{
name = D;
},
{
name = caroncomb;
transform = "{1, 0, 0, 1, 150, 186}";
}
);
layerId = "51AEF656-B224-4228-B44D-D7CFD243EB09";
width = 692;
},
{
background = {
anchors = (
{
name = bottom;
position = "{358, 0}";
},
{
name = center;
position = "{358, 355}";
},
{
name = top;
position = "{317, 914}";
}
);
paths = (
{
closed = 1;
nodes = (
"334 0 LINE SMOOTH",
"550 0 OFFCURVE",
"692 141 OFFCURVE",
"692 356 CURVE SMOOTH",
"692 552 OFFCURVE",
"570 710 OFFCURVE",
"334 710 CURVE SMOOTH",
"61 710 LINE",
"61 0 LINE"
);
},
{
closed = 1;
nodes = (
"494 356 CURVE SMOOTH",
"494 249 OFFCURVE",
"436 170 OFFCURVE",
"334 170 CURVE SMOOTH",
"256 170 LINE",
"256 540 LINE",
"334 540 LINE SMOOTH",
"434 540 OFFCURVE",
"494 466 OFFCURVE"
);
},
{
closed = 1;
nodes = (
"136 872 LINE",
"249 757 LINE",
"385 757 LINE",
"498 872 LINE",
"402 914 LINE",
"317 851 LINE",
"232 914 LINE"
);
}
);
};
components = (
{
name = D;
},
{
name = caroncomb;
transform = "{1, 0, 0, 1, 122, 184}";
}
);
layerId = "985A8054-912F-442C-AEAA-CDACF2D0DECF";
width = 693;
}
);
leftKerningGroup = I;
rightKerningGroup = D;
unicode = 010E;
},
{
glyphname = Dcroat;
lastChange = "2016-11-11 07:20:09 +0000";
layers = (
{
background = {
anchors = (
{
name = bottom;
position = "{364, 0}";
},
{
name = center;
position = "{363, 355}";
},
{
name = top;
position = "{360, 707}";
}
);
paths = (
{
closed = 1;
nodes = (
"318 347 LINE",
"318 367 LINE",
"35 367 LINE",
"35 347 LINE"
);
},
{
closed = 1;
nodes = (
"334 0 LINE SMOOTH",
"538 0 OFFCURVE",
"667 141 OFFCURVE",
"667 356 CURVE SMOOTH",
"667 552 OFFCURVE",
"557 710 OFFCURVE",
"334 710 CURVE SMOOTH",
"106 710 LINE",
"106 0 LINE"
);
},
{
closed = 1;
nodes = (
"647 356 CURVE SMOOTH",
"647 165 OFFCURVE",
"540 20 OFFCURVE",
"334 20 CURVE SMOOTH",
"126 20 LINE",
"126 690 LINE",
"334 690 LINE SMOOTH",
"535 690 OFFCURVE",
"647 550 OFFCURVE"
);
}
);
};
layerId = "D38D3CE8-FE00-46D7-8A67-935B0885B622";
paths = (
{
closed = 1;
nodes = (
"47 347 LINE",
"316 347 LINE",
"320 367 LINE",
"51 367 LINE"
);
},
{
closed = 1;
nodes = (
"40 0 LINE",
"257 0 LINE SMOOTH",
"490 0 OFFCURVE",
"660 188 OFFCURVE",
"660 440 CURVE SMOOTH",
"660 591 OFFCURVE",
"581 710 OFFCURVE",
"408 710 CURVE SMOOTH",
"191 710 LINE"
);
},
{
closed = 1;
nodes = (
"64 20 LINE",
"207 690 LINE",
"404 690 LINE SMOOTH",
"560 690 OFFCURVE",
"640 584 OFFCURVE",
"640 435 CURVE SMOOTH",
"640 217 OFFCURVE",
"498 20 OFFCURVE",
"261 20 CURVE SMOOTH"
);
}
);
width = 691;
},
{
background = {
anchors = (
{
name = bottom;
position = "{364, 0}";
},
{
name = center;
position = "{364, 355}";
},
{
name = top;
position = "{346, 708}";
}
);
paths = (
{
closed = 1;
nodes = (
"342 323 LINE",
"342 391 LINE",
"34 391 LINE",
"34 323 LINE"
);
},
{
closed = 1;
nodes = (
"337 0 LINE SMOOTH",
"546 0 OFFCURVE",
"680 141 OFFCURVE",
"680 356 CURVE SMOOTH",
"680 552 OFFCURVE",
"565 710 OFFCURVE",
"337 710 CURVE SMOOTH",
"91 710 LINE",
"91 0 LINE"
);
},
{
closed = 1;
nodes = (
"589 356 CURVE SMOOTH",
"589 199 OFFCURVE",
"501 80 OFFCURVE",
"337 80 CURVE SMOOTH",
"181 80 LINE",
"181 630 LINE",
"337 630 LINE SMOOTH",
"498 630 OFFCURVE",
"589 516 OFFCURVE"
);
}
);
};
layerId = "51AEF656-B224-4228-B44D-D7CFD243EB09";
paths = (
{
closed = 1;
nodes = (
"42 323 LINE",
"337 323 LINE",
"351 391 LINE",
"57 391 LINE"
);
},
{
closed = 1;
nodes = (
"27 0 LINE",
"262 0 LINE",
"499 0 OFFCURVE",
"675 186 OFFCURVE",
"675 437 CURVE SMOOTH",
"675 590 OFFCURVE",
"592 710 OFFCURVE",
"413 710 CURVE SMOOTH",
"178 710 LINE"
);
},
{
closed = 1;
nodes = (
"134 80 LINE",
"251 630 LINE",
"396 630 LINE SMOOTH",
"519 630 OFFCURVE",
"582 544 OFFCURVE",
"582 423 CURVE SMOOTH",
"582 242 OFFCURVE",
"465 80 OFFCURVE",
"279 80 CURVE SMOOTH"
);
}
);
width = 699;
},
{
background = {
anchors = (
{
name = bottom;
position = "{362, 0}";
},
{
name = center;
position = "{362, 355}";
},
{
name = top;
position = "{321, 710}";
}
);
paths = (
{
closed = 1;
nodes = (
"374 287 LINE",
"374 427 LINE",
"28 427 LINE",
"28 287 LINE"
);
},
{
closed = 1;
nodes = (
"338 0 LINE SMOOTH",
"554 0 OFFCURVE",
"696 141 OFFCURVE",
"696 356 CURVE SMOOTH",
"696 552 OFFCURVE",
"574 710 OFFCURVE",
"338 710 CURVE SMOOTH",
"65 710 LINE",
"65 0 LINE"
);
},
{
closed = 1;
nodes = (
"498 356 CURVE SMOOTH",
"498 249 OFFCURVE",
"440 170 OFFCURVE",
"338 170 CURVE SMOOTH",
"260 170 LINE",
"260 540 LINE",
"338 540 LINE SMOOTH",
"438 540 OFFCURVE",
"498 466 OFFCURVE"
);
}
);
};
layerId = "985A8054-912F-442C-AEAA-CDACF2D0DECF";
paths = (
{
closed = 1;
nodes = (
"28 287 LINE",
"360 287 LINE",
"390 427 LINE",
"57 427 LINE"
);
},
{
closed = 1;
nodes = (
"0 0 LINE",
"262 0 LINE",
"505 0 OFFCURVE",
"689 183 OFFCURVE",
"689 433 CURVE SMOOTH",
"689 588 OFFCURVE",
"601 710 OFFCURVE",
"413 710 CURVE SMOOTH",
"151 710 LINE"
);
},
{
closed = 1;
nodes = (
"231 170 LINE",
"310 540 LINE",
"377 540 LINE SMOOTH",
"449 540 OFFCURVE",
"488 486 OFFCURVE",
"488 405 CURVE SMOOTH",
"488 280 OFFCURVE",
"410 170 OFFCURVE",
"298 170 CURVE SMOOTH"
);
}
);
width = 696;
}
);
leftKerningGroup = I;
rightKerningGroup = D;
unicode = 0110;
},
{
glyphname = Ddotbelow;
lastChange = "2016-11-14 05:58:39 +0000";
layers = (
{
background = {
anchors = (
{
name = bottom;
position = "{357, -127}";
},
{
name = center;
position = "{356, 355}";
},
{
name = top;
position = "{353, 707}";
}
);
paths = (
{
closed = 1;
nodes = (
"327 0 LINE SMOOTH",
"531 0 OFFCURVE",
"660 141 OFFCURVE",
"660 356 CURVE SMOOTH",
"660 552 OFFCURVE",
"550 710 OFFCURVE",
"327 710 CURVE SMOOTH",
"99 710 LINE",
"99 0 LINE"
);
},
{
closed = 1;
nodes = (
"640 356 CURVE SMOOTH",
"640 165 OFFCURVE",
"533 20 OFFCURVE",
"327 20 CURVE SMOOTH",
"119 20 LINE",
"119 690 LINE",
"327 690 LINE SMOOTH",
"528 690 OFFCURVE",
"640 550 OFFCURVE"
);
},
{
closed = 1;
nodes = (
"367 -127 LINE",
"367 -50 LINE",
"347 -50 LINE",
"347 -127 LINE"
);
}
);
};
components = (
{
name = D;
},
{
name = dotbelowcomb;
transform = "{1, 0, 0, 1, 242, 0}";
}
);
layerId = "D38D3CE8-FE00-46D7-8A67-935B0885B622";
width = 684;
},
{
background = {
anchors = (
{
name = bottom;
position = "{358, -187}";
},
{
name = center;
position = "{358, 355}";
},
{
name = top;
position = "{340, 708}";
}
);
paths = (
{
closed = 1;
nodes = (
"331 0 LINE SMOOTH",
"540 0 OFFCURVE",
"674 141 OFFCURVE",
"674 356 CURVE SMOOTH",
"674 552 OFFCURVE",
"559 710 OFFCURVE",
"331 710 CURVE SMOOTH",
"85 710 LINE",
"85 0 LINE"
);
},
{
closed = 1;
nodes = (
"583 356 CURVE SMOOTH",
"583 199 OFFCURVE",
"495 80 OFFCURVE",
"331 80 CURVE SMOOTH",
"175 80 LINE",
"175 630 LINE",
"331 630 LINE SMOOTH",
"492 630 OFFCURVE",
"583 516 OFFCURVE"
);
},
{
closed = 1;
nodes = (
"398 -187 LINE",
"398 -81 LINE",
"318 -81 LINE",
"318 -187 LINE"
);
}
);
};
components = (
{
name = D;
},
{
name = dotbelowcomb;
transform = "{1, 0, 0, 1, 207, 0}";
}
);
layerId = "51AEF656-B224-4228-B44D-D7CFD243EB09";
width = 692;
},
{
background = {
anchors = (
{
name = bottom;
position = "{358, -214}";
},
{
name = center;
position = "{358, 355}";
},
{
name = top;
position = "{317, 710}";
}
);
paths = (
{
closed = 1;
nodes = (
"334 0 LINE SMOOTH",
"550 0 OFFCURVE",
"692 141 OFFCURVE",
"692 356 CURVE SMOOTH",
"692 552 OFFCURVE",
"570 710 OFFCURVE",
"334 710 CURVE SMOOTH",
"61 710 LINE",
"61 0 LINE"
);
},
{
closed = 1;
nodes = (
"494 356 CURVE SMOOTH",
"494 249 OFFCURVE",
"436 170 OFFCURVE",
"334 170 CURVE SMOOTH",
"256 170 LINE",
"256 540 LINE",
"334 540 LINE SMOOTH",
"434 540 OFFCURVE",
"494 466 OFFCURVE"
);
},
{
closed = 1;
nodes = (
"443 -214 LINE",
"443 -64 LINE",
"273 -64 LINE",
"273 -214 LINE"
);
}
);
};
components = (
{
name = D;
},
{
name = dotbelowcomb;
transform = "{1, 0, 0, 1, 182, 0}";
}
);
layerId = "985A8054-912F-442C-AEAA-CDACF2D0DECF";
width = 693;
}
);
leftKerningGroup = I;
rightKerningGroup = D;
unicode = 1E0C;
},
{
glyphname = E;
lastChange = "2016-11-15 09:06:13 +0000";
layers = (
{
anchors = (
{
name = bottom;
position = "{239, 0}";
},
{
name = ogonek;
position = "{476, 0}";
},
{
name = top;
position = "{390, 710}";
},
{
name = topleft;
position = "{116, 710}";
}
);
background = {
anchors = (
{
name = bottom;
position = "{344, 0}";
},
{
name = ogonek;
position = "{565, 0}";
},
{
name = top;
position = "{344, 707}";
},
{
name = topleft;
position = "{20, 710}";
}
);
paths = (
{
closed = 1;
nodes = (
"119 20 LINE",
"119 353 LINE",
"502 353 LINE",
"502 373 LINE",
"119 373 LINE",
"119 690 LINE",
"556 690 LINE",
"556 710 LINE",
"99 710 LINE",
"99 0 LINE",
"565 0 LINE",
"565 20 LINE"
);
}
);
};
layerId = "D38D3CE8-FE00-46D7-8A67-935B0885B622";
paths = (
{
closed = 1;
nodes = (
"33 0 LINE",
"476 0 LINE",
"480 20 LINE",
"57 20 LINE",
"128 353 LINE",
"491 353 LINE",
"495 373 LINE",
"132 373 LINE",
"200 690 LINE",
"614 690 LINE",
"618 710 LINE",
"184 710 LINE"
);
}
);
width = 588;
},
{
anchors = (
{
name = bottom;
position = "{235, 0}";
},
{
name = ogonek;
position = "{479, 0}";
},
{
name = top;
position = "{385, 710}";
},
{
name = topleft;
position = "{115, 710}";
}
);
background = {
anchors = (
{
name = bottom;
position = "{334, 0}";
},
{
name = ogonek;
position = "{567, 0}";
},
{
name = top;
position = "{334, 708}";
},
{
name = topleft;
position = "{20, 710}";
}
);
paths = (
{
closed = 1;
nodes = (
"175 80 LINE",
"175 325 LINE",
"508 325 LINE",
"508 400 LINE",
"175 400 LINE",
"175 630 LINE",
"558 630 LINE",
"558 710 LINE",
"85 710 LINE",
"85 0 LINE",
"567 0 LINE",
"567 80 LINE"
);
}
);
};
layerId = "51AEF656-B224-4228-B44D-D7CFD243EB09";
paths = (
{
closed = 1;
nodes = (
"20 0 LINE",
"479 0 LINE",
"496 80 LINE",
"127 80 LINE",
"179 325 LINE",
"492 325 LINE",
"508 400 LINE",
"195 400 LINE",
"244 630 LINE",
"604 630 LINE",
"621 710 LINE",
"171 710 LINE"
);
}
);
width = 580;
},
{
anchors = (
{
name = bottom;
position = "{232, 0}";
},
{
name = ogonek;
position = "{480, 0}";
},
{
name = top;
position = "{383, 710}";
},
{
name = topleft;
position = "{115, 710}";
}
);
background = {
anchors = (
{
name = bottom;
position = "{316, 0}";
},
{
name = ogonek;
position = "{567, 0}";
},
{
name = top;
position = "{316, 710}";
},
{
name = topleft;
position = "{20, 710}";
}
);
paths = (
{
closed = 1;
nodes = (
"256 170 LINE",
"256 282 LINE",
"514 282 LINE",
"514 440 LINE",
"256 440 LINE",
"256 540 LINE",
"558 540 LINE",
"558 710 LINE",
"61 710 LINE",
"61 0 LINE",
"567 0 LINE",
"567 170 LINE"
);
}
);
};
layerId = "985A8054-912F-442C-AEAA-CDACF2D0DECF";
paths = (
{
closed = 1;
nodes = (
"-3 0 LINE",
"480 0 LINE",
"516 170 LINE",
"228 170 LINE",
"252 282 LINE",
"490 282 LINE",
"524 440 LINE",
"286 440 LINE",
"307 540 LINE",
"586 540 LINE",
"622 710 LINE",
"148 710 LINE"
);
}
);
width = 575;
}
);
leftKerningGroup = I;
rightKerningGroup = E;
unicode = 0045;
},
{
glyphname = Eacute;
lastChange = "2016-11-14 07:22:25 +0000";
layers = (
{
background = {
anchors = (
{
name = bottom;
position = "{344, 0}";
},
{
name = ogonek;
position = "{565, 0}";
},
{
name = top;
position = "{383, 918}";
},
{
name = topleft;
position = "{20, 710}";
}
);
paths = (
{
closed = 1;
nodes = (
"119 20 LINE",
"119 353 LINE",
"502 353 LINE",
"502 373 LINE",
"119 373 LINE",
"119 690 LINE",
"556 690 LINE",
"556 710 LINE",
"99 710 LINE",
"99 0 LINE",
"565 0 LINE",
"565 20 LINE"
);
},
{
closed = 1;
nodes = (
"432 918 LINE",
"398 918 LINE",
"334 845 LINE",
"350 833 LINE"
);
}
);
};
components = (
{
name = E;
},
{
name = acutecomb;
transform = "{1, 0, 0, 1, 269, 191}";
}
);
layerId = "D38D3CE8-FE00-46D7-8A67-935B0885B622";
width = 588;
},
{
background = {
anchors = (
{
name = bottom;
position = "{334, 0}";
},
{
name = ogonek;
position = "{567, 0}";
},
{
name = top;
position = "{380, 916}";
},
{
name = topleft;
position = "{20, 710}";
}
);
paths = (
{
closed = 1;
nodes = (
"175 80 LINE",
"175 325 LINE",
"508 325 LINE",
"508 400 LINE",
"175 400 LINE",
"175 630 LINE",
"558 630 LINE",
"558 710 LINE",
"85 710 LINE",
"85 0 LINE",
"567 0 LINE",
"567 80 LINE"
);
},
{
closed = 1;
nodes = (
"453 916 LINE",
"365 916 LINE",
"307 815 LINE",
"365 795 LINE"
);
}
);
};
components = (
{
name = E;
},
{
name = acutecomb;
transform = "{1, 0, 0, 1, 269, 188}";
}
);
layerId = "51AEF656-B224-4228-B44D-D7CFD243EB09";
width = 580;
},
{
background = {
anchors = (
{
name = bottom;
position = "{316, 0}";
},
{
name = ogonek;
position = "{567, 0}";
},
{
name = top;
position = "{366, 914}";
},
{
name = topleft;
position = "{20, 710}";
}
);
paths = (
{
closed = 1;
nodes = (
"256 170 LINE",
"256 282 LINE",
"514 282 LINE",
"514 440 LINE",
"256 440 LINE",
"256 540 LINE",
"558 540 LINE",
"558 710 LINE",
"61 710 LINE",
"61 0 LINE",
"567 0 LINE",
"567 170 LINE"
);
},
{
closed = 1;
nodes = (
"475 914 LINE",
"306 914 LINE",
"256 772 LINE",
"376 740 LINE"
);
}
);
};
components = (
{
name = E;
},
{
name = acutecomb;
transform = "{1, 0, 0, 1, 211, 188}";
}
);
layerId = "985A8054-912F-442C-AEAA-CDACF2D0DECF";
width = 575;
}
);
leftKerningGroup = I;
rightKerningGroup = E;
unicode = 00C9;
},
{
glyphname = Ebreve;
lastChange = "2016-11-14 07:39:57 +0000";
layers = (
{
background = {
anchors = (
{
name = bottom;
position = "{344, 0}";
},
{
name = ogonek;
position = "{565, 0}";
},
{
name = top;
position = "{344, 841}";
},
{
name = topleft;
position = "{20, 710}";
}
);
paths = (
{
closed = 1;
nodes = (
"119 20 LINE",
"119 353 LINE",
"502 353 LINE",
"502 373 LINE",
"119 373 LINE",
"119 690 LINE",
"556 690 LINE",
"556 710 LINE",
"99 710 LINE",
"99 0 LINE",
"565 0 LINE",
"565 20 LINE"
);
},
{
closed = 1;
nodes = (
"344 858 CURVE SMOOTH",
"316 858 OFFCURVE",
"289 888 OFFCURVE",
"289 918 CURVE",
"270 918 LINE",
"270 877 OFFCURVE",
"305 841 OFFCURVE",
"344 841 CURVE SMOOTH",
"383 841 OFFCURVE",
"418 877 OFFCURVE",
"418 918 CURVE",
"400 918 LINE",
"396 885 OFFCURVE",
"371 858 OFFCURVE"
);
}
);
};
components = (
{
name = E;
},
{
name = brevecomb;
transform = "{1, 0, 0, 1, 215, 191}";
}
);
layerId = "D38D3CE8-FE00-46D7-8A67-935B0885B622";
width = 588;
},
{
background = {
anchors = (
{
name = bottom;
position = "{334, 0}";
},
{
name = ogonek;
position = "{567, 0}";
},
{
name = top;
position = "{334, 916}";
},
{
name = topleft;
position = "{20, 710}";
}
);
paths = (
{
closed = 1;
nodes = (
"175 80 LINE",
"175 325 LINE",
"508 325 LINE",
"508 400 LINE",
"175 400 LINE",
"175 630 LINE",
"558 630 LINE",
"558 710 LINE",
"85 710 LINE",
"85 0 LINE",
"567 0 LINE",
"567 80 LINE"
);
},
{
closed = 1;
nodes = (
"334 848 CURVE SMOOTH",
"304 848 OFFCURVE",
"277 880 OFFCURVE",
"277 916 CURVE",
"226 916 LINE",
"226 853 OFFCURVE",
"273 805 OFFCURVE",
"334 805 CURVE SMOOTH",
"395 805 OFFCURVE",
"442 853 OFFCURVE",
"442 916 CURVE",
"392 916 LINE",
"388 877 OFFCURVE",
"363 848 OFFCURVE"
);
}
);
};
components = (
{
name = E;
},
{
name = brevecomb;
transform = "{1, 0, 0, 1, 173, 188}";
}
);
layerId = "51AEF656-B224-4228-B44D-D7CFD243EB09";
width = 580;
},
{
background = {
anchors = (
{
name = bottom;
position = "{316, 0}";
},
{
name = ogonek;
position = "{567, 0}";
},
{
name = top;
position = "{316, 914}";
},
{
name = topleft;
position = "{20, 710}";
}
);
paths = (
{
closed = 1;
nodes = (
"256 170 LINE",
"256 282 LINE",
"514 282 LINE",
"514 440 LINE",
"256 440 LINE",
"256 540 LINE",
"558 540 LINE",
"558 710 LINE",
"61 710 LINE",
"61 0 LINE",
"567 0 LINE",
"567 170 LINE"
);
},
{
closed = 1;
nodes = (
"316 833 CURVE SMOOTH",
"283 833 OFFCURVE",
"255 870 OFFCURVE",
"255 914 CURVE",
"157 914 LINE",
"157 819 OFFCURVE",
"222 752 OFFCURVE",
"316 752 CURVE SMOOTH",
"410 752 OFFCURVE",
"475 819 OFFCURVE",
"475 914 CURVE",
"377 914 LINE",
"373 867 OFFCURVE",
"347 833 OFFCURVE"
);
}
);
};
components = (
{
name = E;
},
{
name = brevecomb;
transform = "{1, 0, 0, 1, 120, 184}";
}
);
layerId = "985A8054-912F-442C-AEAA-CDACF2D0DECF";
width = 575;
}
);
leftKerningGroup = I;
rightKerningGroup = E;
unicode = 0114;
},
{
glyphname = Ecaron;
lastChange = "2016-11-14 07:53:54 +0000";
layers = (
{
background = {
anchors = (
{
name = bottom;
position = "{344, 0}";
},
{
name = ogonek;
position = "{565, 0}";
},
{
name = top;
position = "{344, 918}";
},
{
name = topleft;
position = "{20, 710}";
}
);
paths = (
{
closed = 1;
nodes = (
"119 20 LINE",
"119 353 LINE",
"502 353 LINE",
"502 373 LINE",
"119 373 LINE",
"119 690 LINE",
"556 690 LINE",
"556 710 LINE",
"99 710 LINE",
"99 0 LINE",
"565 0 LINE",
"565 20 LINE"
);
},
{
closed = 1;
nodes = (
"243 906 LINE",
"336 832 LINE",
"352 832 LINE",
"445 906 LINE",
"429 918 LINE",
"344 855 LINE",
"259 918 LINE"
);
}
);
};
components = (
{
name = E;
},
{
name = caroncomb;
transform = "{1, 0, 0, 1, 182, 191}";
}
);
layerId = "D38D3CE8-FE00-46D7-8A67-935B0885B622";
width = 588;
},
{
background = {
anchors = (
{
name = bottom;
position = "{334, 0}";
},
{
name = ogonek;
position = "{567, 0}";
},
{
name = top;
position = "{334, 916}";
},
{
name = topleft;
position = "{20, 710}";
}
);
paths = (
{
closed = 1;
nodes = (
"175 80 LINE",
"175 325 LINE",
"508 325 LINE",
"508 400 LINE",
"175 400 LINE",
"175 630 LINE",
"558 630 LINE",
"558 710 LINE",
"85 710 LINE",
"85 0 LINE",
"567 0 LINE",
"567 80 LINE"
);
},
{
closed = 1;
nodes = (
"201 892 LINE",
"302 802 LINE",
"366 802 LINE",
"467 892 LINE",
"419 916 LINE",
"334 853 LINE",
"249 916 LINE"
);
}
);
};
components = (
{
name = E;
},
{
name = caroncomb;
transform = "{1, 0, 0, 1, 144, 188}";
}
);
layerId = "51AEF656-B224-4228-B44D-D7CFD243EB09";
width = 580;
},
{
background = {
anchors = (
{
name = bottom;
position = "{316, 0}";
},
{
name = ogonek;
position = "{567, 0}";
},
{
name = top;
position = "{316, 914}";
},
{
name = topleft;
position = "{20, 710}";
}
);
paths = (
{
closed = 1;
nodes = (
"256 170 LINE",
"256 282 LINE",
"514 282 LINE",
"514 440 LINE",
"256 440 LINE",
"256 540 LINE",
"558 540 LINE",
"558 710 LINE",
"61 710 LINE",
"61 0 LINE",
"567 0 LINE",
"567 170 LINE"
);
},
{
closed = 1;
nodes = (
"135 872 LINE",
"248 757 LINE",
"384 757 LINE",
"497 872 LINE",
"401 914 LINE",
"316 851 LINE",
"231 914 LINE"
);
}
);
};
components = (
{
name = E;
},
{
name = caroncomb;
transform = "{1, 0, 0, 1, 93, 184}";
}
);
layerId = "985A8054-912F-442C-AEAA-CDACF2D0DECF";
width = 575;
}
);
leftKerningGroup = I;
rightKerningGroup = E;
unicode = 011A;
},
{
glyphname = Ecircumflex;
lastChange = "2016-11-14 07:57:27 +0000";
layers = (
{
background = {
anchors = (
{
name = bottom;
position = "{344, 0}";
},
{
name = ogonek;
position = "{565, 0}";
},
{
name = top;
position = "{344, 918}";
},
{
name = topleft;
position = "{20, 710}";
}
);
paths = (
{
closed = 1;
nodes = (
"119 20 LINE",
"119 353 LINE",
"502 353 LINE",
"502 373 LINE",
"119 373 LINE",
"119 690 LINE",
"556 690 LINE",
"556 710 LINE",
"99 710 LINE",
"99 0 LINE",
"565 0 LINE",
"565 20 LINE"
);
},
{
closed = 1;
nodes = (
"259 832 LINE",
"344 895 LINE",
"429 832 LINE",
"445 844 LINE",
"352 918 LINE",
"336 918 LINE",
"243 844 LINE"
);
}
);
};
components = (
{
name = E;
},
{
name = circumflexcomb;
transform = "{1, 0, 0, 1, 195, 191}";
}
);
layerId = "D38D3CE8-FE00-46D7-8A67-935B0885B622";
width = 588;
},
{
background = {
anchors = (
{
name = bottom;
position = "{334, 0}";
},
{
name = ogonek;
position = "{567, 0}";
},
{
name = top;
position = "{334, 916}";
},
{
name = topleft;
position = "{20, 710}";
}
);
paths = (
{
closed = 1;
nodes = (
"175 80 LINE",
"175 325 LINE",
"508 325 LINE",
"508 400 LINE",
"175 400 LINE",
"175 630 LINE",
"558 630 LINE",
"558 710 LINE",
"85 710 LINE",
"85 0 LINE",
"567 0 LINE",
"567 80 LINE"
);
},
{
closed = 1;
nodes = (
"249 802 LINE",
"334 865 LINE",
"419 802 LINE",
"467 826 LINE",
"366 916 LINE",
"302 916 LINE",
"201 826 LINE"
);
}
);
};
components = (
{
name = E;
},
{
name = circumflexcomb;
transform = "{1, 0, 0, 1, 158, 188}";
}
);
layerId = "51AEF656-B224-4228-B44D-D7CFD243EB09";
width = 580;
},
{
background = {
anchors = (
{
name = bottom;
position = "{316, 0}";
},
{
name = ogonek;
position = "{567, 0}";
},
{
name = top;
position = "{316, 914}";
},
{
name = topleft;
position = "{20, 710}";
}
);
paths = (
{
closed = 1;
nodes = (
"256 170 LINE",
"256 282 LINE",
"514 282 LINE",
"514 440 LINE",
"256 440 LINE",
"256 540 LINE",
"558 540 LINE",
"558 710 LINE",
"61 710 LINE",
"61 0 LINE",
"567 0 LINE",
"567 170 LINE"
);
},
{
closed = 1;
nodes = (
"231 757 LINE",
"316 820 LINE",
"401 757 LINE",
"497 799 LINE",
"384 914 LINE",
"248 914 LINE",
"135 799 LINE"
);
}
);
};
components = (
{
name = E;
},
{
name = circumflexcomb;
transform = "{1, 0, 0, 1, 108, 184}";
}
);
layerId = "985A8054-912F-442C-AEAA-CDACF2D0DECF";
width = 575;
}
);
leftKerningGroup = I;
rightKerningGroup = E;
unicode = 00CA;
},
{
glyphname = Ecircumflexacute;
lastChange = "2016-11-15 23:15:38 +0000";
layers = (
{
background = {
anchors = (
{
name = bottom;
position = "{344, 0}";
},
{
name = ogonek;
position = "{565, 0}";
},
{
name = top;
position = "{342, 928}";
},
{
name = topleft;
position = "{20, 710}";
}
);
paths = (
{
closed = 1;
nodes = (
"119 20 LINE",
"119 353 LINE",
"502 353 LINE",
"502 373 LINE",
"119 373 LINE",
"119 690 LINE",
"556 690 LINE",
"556 710 LINE",
"99 710 LINE",
"99 0 LINE",
"565 0 LINE",
"565 20 LINE"
);
},
{
closed = 1;
nodes = (
"256 785 LINE",
"341 848 LINE",
"426 785 LINE",
"442 797 LINE",
"349 871 LINE",
"333 871 LINE",
"240 797 LINE"
);
},
{
closed = 1;
nodes = (
"521 915 LINE",
"487 915 LINE",
"423 842 LINE",
"439 830 LINE"
);
}
);
};
components = (
{
name = E;
},
{
name = circumflexcomb_acutecomb;
transform = "{1, 0, 0, 1, 189, 191}";
}
);
layerId = "D38D3CE8-FE00-46D7-8A67-935B0885B622";
width = 588;
},
{
background = {
anchors = (
{
name = bottom;
position = "{334, 0}";
},
{
name = ogonek;
position = "{567, 0}";
},
{
name = top;
position = "{284, 1124}";
},
{
name = topleft;
position = "{20, 710}";
}
);
paths = (
{
closed = 1;
nodes = (
"175 80 LINE",
"175 325 LINE",
"508 325 LINE",
"508 400 LINE",
"175 400 LINE",
"175 630 LINE",
"558 630 LINE",
"558 710 LINE",
"85 710 LINE",
"85 0 LINE",
"567 0 LINE",
"567 80 LINE"
);
},
{
closed = 1;
nodes = (
"237 778 LINE",
"322 841 LINE",
"407 778 LINE",
"455 802 LINE",
"354 892 LINE",
"290 892 LINE",
"189 802 LINE"
);
},
{
closed = 1;
nodes = (
"565 989 LINE",
"477 989 LINE",
"419 888 LINE",
"477 868 LINE"
);
}
);
};
components = (
{
name = E;
},
{
name = circumflexcomb_acutecomb;
transform = "{1, 0, 0, 1, 153, 188}";
}
);
layerId = "51AEF656-B224-4228-B44D-D7CFD243EB09";
width = 580;
},
{
background = {
anchors = (
{
name = bottom;
position = "{316, 0}";
},
{
name = ogonek;
position = "{567, 0}";
},
{
name = top;
position = "{316, 1118}";
},
{
name = topleft;
position = "{20, 710}";
}
);
paths = (
{
closed = 1;
nodes = (
"256 170 LINE",
"256 282 LINE",
"514 282 LINE",
"514 440 LINE",
"256 440 LINE",
"256 540 LINE",
"558 540 LINE",
"558 710 LINE",
"61 710 LINE",
"61 0 LINE",
"567 0 LINE",
"567 170 LINE"
);
},
{
closed = 1;
nodes = (
"231 757 LINE",
"316 820 LINE",
"401 757 LINE",
"497 799 LINE",
"384 914 LINE",
"248 914 LINE",
"135 799 LINE"
);
},
{
closed = 1;
nodes = (
"645 1041 LINE",
"476 1041 LINE",
"426 899 LINE",
"546 867 LINE"
);
}
);
};
components = (
{
name = E;
},
{
name = circumflexcomb_acutecomb;
transform = "{1, 0, 0, 1, 102, 184}";
}
);
layerId = "985A8054-912F-442C-AEAA-CDACF2D0DECF";
width = 575;
}
);
unicode = 1EBE;
},
{
glyphname = Ecircumflexdotbelow;
lastChange = "2016-11-14 07:57:27 +0000";
layers = (
{
background = {
anchors = (
{
name = bottom;
position = "{344, -127}";
},
{
name = ogonek;
position = "{565, 0}";
},
{
name = top;
position = "{344, 918}";
},
{
name = topleft;
position = "{20, 710}";
}
);
paths = (
{
closed = 1;
nodes = (
"119 20 LINE",
"119 353 LINE",
"502 353 LINE",
"502 373 LINE",
"119 373 LINE",
"119 690 LINE",
"556 690 LINE",
"556 710 LINE",
"99 710 LINE",
"99 0 LINE",
"565 0 LINE",
"565 20 LINE"
);
},
{
closed = 1;
nodes = (
"354 -127 LINE",
"354 -50 LINE",
"334 -50 LINE",
"334 -127 LINE"
);
},
{
closed = 1;
nodes = (
"259 832 LINE",
"344 895 LINE",
"429 832 LINE",
"445 844 LINE",
"352 918 LINE",
"336 918 LINE",
"243 844 LINE"
);
}
);
};
components = (
{
name = E;
},
{
name = dotbelowcomb;
transform = "{1, 0, 0, 1, 234, 0}";
},
{
name = circumflexcomb;
transform = "{1, 0, 0, 1, 195, 191}";
}
);
layerId = "D38D3CE8-FE00-46D7-8A67-935B0885B622";
width = 588;
},
{
background = {
anchors = (
{
name = bottom;
position = "{334, -187}";
},
{
name = ogonek;
position = "{567, 0}";
},
{
name = top;
position = "{334, 916}";
},
{
name = topleft;
position = "{20, 710}";
}
);
paths = (
{
closed = 1;
nodes = (
"175 80 LINE",
"175 325 LINE",
"508 325 LINE",
"508 400 LINE",
"175 400 LINE",
"175 630 LINE",
"558 630 LINE",
"558 710 LINE",
"85 710 LINE",
"85 0 LINE",
"567 0 LINE",
"567 80 LINE"
);
},
{
closed = 1;
nodes = (
"374 -187 LINE",
"374 -81 LINE",
"294 -81 LINE",
"294 -187 LINE"
);
},
{
closed = 1;
nodes = (
"249 802 LINE",
"334 865 LINE",
"419 802 LINE",
"467 826 LINE",
"366 916 LINE",
"302 916 LINE",
"201 826 LINE"
);
}
);
};
components = (
{
name = E;
},
{
name = dotbelowcomb;
transform = "{1, 0, 0, 1, 201, 0}";
},
{
name = circumflexcomb;
transform = "{1, 0, 0, 1, 158, 188}";
}
);
layerId = "51AEF656-B224-4228-B44D-D7CFD243EB09";
width = 580;
},
{
background = {
anchors = (
{
name = bottom;
position = "{316, -214}";
},
{
name = ogonek;
position = "{567, 0}";
},
{
name = top;
position = "{316, 914}";
},
{
name = topleft;
position = "{20, 710}";
}
);
paths = (
{
closed = 1;
nodes = (
"256 170 LINE",
"256 282 LINE",
"514 282 LINE",
"514 440 LINE",
"256 440 LINE",
"256 540 LINE",
"558 540 LINE",
"558 710 LINE",
"61 710 LINE",
"61 0 LINE",
"567 0 LINE",
"567 170 LINE"
);
},
{
closed = 1;
nodes = (
"401 -214 LINE",
"401 -64 LINE",
"231 -64 LINE",
"231 -214 LINE"
);
},
{
closed = 1;
nodes = (
"231 757 LINE",
"316 820 LINE",
"401 757 LINE",
"497 799 LINE",
"384 914 LINE",
"248 914 LINE",
"135 799 LINE"
);
}
);
};
components = (
{
name = E;
},
{
name = dotbelowcomb;
transform = "{1, 0, 0, 1, 153, 0}";
},
{
name = circumflexcomb;
transform = "{1, 0, 0, 1, 108, 184}";
}
);
layerId = "985A8054-912F-442C-AEAA-CDACF2D0DECF";
width = 575;
}
);
unicode = 1EC6;
},
{
glyphname = Ecircumflexgrave;
lastChange = "2016-11-15 23:15:38 +0000";
layers = (
{
background = {
anchors = (
{
name = bottom;
position = "{344, 0}";
},
{
name = ogonek;
position = "{565, 0}";
},
{
name = top;
position = "{345, 988}";
},
{
name = topleft;
position = "{20, 710}";
}
);
paths = (
{
closed = 1;
nodes = (
"119 20 LINE",
"119 353 LINE",
"502 353 LINE",
"502 373 LINE",
"119 373 LINE",
"119 690 LINE",
"556 690 LINE",
"556 710 LINE",
"99 710 LINE",
"99 0 LINE",
"565 0 LINE",
"565 20 LINE"
);
},
{
closed = 1;
nodes = (
"255 785 LINE",
"340 848 LINE",
"425 785 LINE",
"441 797 LINE",
"348 871 LINE",
"332 871 LINE",
"239 797 LINE"
);
},
{
closed = 1;
nodes = (
"244 846 LINE",
"260 858 LINE",
"195 931 LINE",
"162 931 LINE"
);
}
);
};
components = (
{
name = E;
},
{
name = circumflexcomb_gravecomb;
transform = "{1, 0, 0, 1, 138, 191}";
}
);
layerId = "D38D3CE8-FE00-46D7-8A67-935B0885B622";
width = 588;
},
{
background = {
anchors = (
{
name = bottom;
position = "{334, 0}";
},
{
name = ogonek;
position = "{567, 0}";
},
{
name = top;
position = "{337, 896}";
},
{
name = topleft;
position = "{20, 710}";
}
);
paths = (
{
closed = 1;
nodes = (
"175 80 LINE",
"175 325 LINE",
"508 325 LINE",
"508 400 LINE",
"175 400 LINE",
"175 630 LINE",
"558 630 LINE",
"558 710 LINE",
"85 710 LINE",
"85 0 LINE",
"567 0 LINE",
"567 80 LINE"
);
},
{
closed = 1;
nodes = (
"257 779 LINE",
"342 842 LINE",
"427 779 LINE",
"475 803 LINE",
"374 893 LINE",
"310 893 LINE",
"209 803 LINE"
);
},
{
closed = 1;
nodes = (
"189 853 LINE",
"246 873 LINE",
"187 974 LINE",
"100 974 LINE"
);
}
);
};
components = (
{
name = E;
},
{
name = circumflexcomb_gravecomb;
transform = "{1, 0, 0, 1, 60, 188}";
}
);
layerId = "51AEF656-B224-4228-B44D-D7CFD243EB09";
width = 580;
},
{
background = {
anchors = (
{
name = bottom;
position = "{316, 0}";
},
{
name = ogonek;
position = "{567, 0}";
},
{
name = top;
position = "{316, 1118}";
},
{
name = topleft;
position = "{20, 710}";
}
);
paths = (
{
closed = 1;
nodes = (
"256 170 LINE",
"256 282 LINE",
"514 282 LINE",
"514 440 LINE",
"256 440 LINE",
"256 540 LINE",
"558 540 LINE",
"558 710 LINE",
"61 710 LINE",
"61 0 LINE",
"567 0 LINE",
"567 170 LINE"
);
},
{
closed = 1;
nodes = (
"221 757 LINE",
"306 820 LINE",
"391 757 LINE",
"487 799 LINE",
"374 914 LINE",
"238 914 LINE",
"125 799 LINE"
);
},
{
closed = 1;
nodes = (
"70 868 LINE",
"190 900 LINE",
"140 1042 LINE",
"-29 1042 LINE"
);
}
);
};
components = (
{
name = E;
},
{
name = circumflexcomb_gravecomb;
transform = "{1, 0, 0, 1, -24, 184}";
}
);
layerId = "985A8054-912F-442C-AEAA-CDACF2D0DECF";
width = 575;
}
);
unicode = 1EC0;
},
{
glyphname = Ecircumflexhookabove;
lastChange = "2016-11-15 23:15:38 +0000";
layers = (
{
background = {
anchors = (
{
name = bottom;
position = "{344, 0}";
},
{
name = ogonek;
position = "{565, 0}";
},
{
name = top;
position = "{341, 963}";
},
{
name = topleft;
position = "{20, 710}";
}
);
paths = (
{
closed = 1;
nodes = (
"119 20 LINE",
"119 353 LINE",
"502 353 LINE",
"502 373 LINE",
"119 373 LINE",
"119 690 LINE",
"556 690 LINE",
"556 710 LINE",
"99 710 LINE",
"99 0 LINE",
"565 0 LINE",
"565 20 LINE"
);
},
{
closed = 1;
nodes = (
"254 785 LINE",
"339 848 LINE",
"424 785 LINE",
"440 797 LINE",
"347 871 LINE",
"331 871 LINE",
"238 797 LINE"
);
},
{
closed = 1;
nodes = (
"389 945 OFFCURVE",
"399 953 OFFCURVE",
"417 953 CURVE SMOOTH",
"446 953 OFFCURVE",
"458 935 OFFCURVE",
"458 914 CURVE SMOOTH",
"458 898 OFFCURVE",
"445 882 OFFCURVE",
"424 858 CURVE",
"436 847 LINE",
"459 873 OFFCURVE",
"476 888 OFFCURVE",
"476 914 CURVE SMOOTH",
"476 950 OFFCURVE",
"451 971 OFFCURVE",
"419 971 CURVE SMOOTH",
"393 971 OFFCURVE",
"378 960 OFFCURVE",
"357 941 CURVE",
"369 928 LINE"
);
}
);
};
components = (
{
name = E;
},
{
name = circumflexcomb_hookabovecomb;
transform = "{1, 0, 0, 1, 189, 191}";
}
);
layerId = "D38D3CE8-FE00-46D7-8A67-935B0885B622";
width = 588;
},
{
background = {
anchors = (
{
name = bottom;
position = "{334, 0}";
},
{
name = ogonek;
position = "{567, 0}";
},
{
name = top;
position = "{334, 935}";
},
{
name = topleft;
position = "{20, 710}";
}
);
paths = (
{
closed = 1;
nodes = (
"175 80 LINE",
"175 325 LINE",
"508 325 LINE",
"508 400 LINE",
"175 400 LINE",
"175 630 LINE",
"558 630 LINE",
"558 710 LINE",
"85 710 LINE",
"85 0 LINE",
"567 0 LINE",
"567 80 LINE"
);
},
{
closed = 1;
nodes = (
"237 779 LINE",
"322 842 LINE",
"407 779 LINE",
"455 803 LINE",
"354 893 LINE",
"290 893 LINE",
"189 803 LINE"
);
},
{
closed = 1;
nodes = (
"421 941 OFFCURVE",
"431 946 OFFCURVE",
"448 946 CURVE SMOOTH",
"464 946 OFFCURVE",
"475 934 OFFCURVE",
"475 919 CURVE SMOOTH",
"475 903 OFFCURVE",
"469 889 OFFCURVE",
"446 868 CURVE",
"471 839 LINE",
"510 871 OFFCURVE",
"527 900 OFFCURVE",
"527 927 CURVE SMOOTH",
"527 960 OFFCURVE",
"504 993 OFFCURVE",
"456 993 CURVE SMOOTH",
"421 993 OFFCURVE",
"394 979 OFFCURVE",
"369 957 CURVE",
"402 924 LINE"
);
}
);
};
components = (
{
name = E;
},
{
name = circumflexcomb_hookabovecomb;
transform = "{1, 0, 0, 1, 153, 188}";
}
);
layerId = "51AEF656-B224-4228-B44D-D7CFD243EB09";
width = 580;
},
{
background = {
anchors = (
{
name = bottom;
position = "{316, 0}";
},
{
name = ogonek;
position = "{567, 0}";
},
{
name = top;
position = "{316, 1173}";
},
{
name = topleft;
position = "{20, 710}";
}
);
paths = (
{
closed = 1;
nodes = (
"256 170 LINE",
"256 282 LINE",
"514 282 LINE",
"514 440 LINE",
"256 440 LINE",
"256 540 LINE",
"558 540 LINE",
"558 710 LINE",
"61 710 LINE",
"61 0 LINE",
"567 0 LINE",
"567 170 LINE"
);
},
{
closed = 1;
nodes = (
"221 757 LINE",
"306 820 LINE",
"391 757 LINE",
"487 799 LINE",
"374 914 LINE",
"238 914 LINE",
"125 799 LINE"
);
},
{
closed = 1;
nodes = (
"443 960 OFFCURVE",
"454 970 OFFCURVE",
"473 970 CURVE SMOOTH",
"492 970 OFFCURVE",
"503 957 OFFCURVE",
"503 940 CURVE SMOOTH",
"503 922 OFFCURVE",
"489 907 OFFCURVE",
"467 892 CURVE",
"512 845 LINE",
"562 886 OFFCURVE",
"586 914 OFFCURVE",
"586 968 CURVE SMOOTH",
"586 1019 OFFCURVE",
"547 1052 OFFCURVE",
"488 1052 CURVE SMOOTH",
"449 1052 OFFCURVE",
"413 1036 OFFCURVE",
"372 993 CURVE",
"423 943 LINE"
);
}
);
};
components = (
{
name = E;
},
{
name = circumflexcomb_hookabovecomb;
transform = "{1, 0, 0, 1, 102, 184}";
}
);
layerId = "985A8054-912F-442C-AEAA-CDACF2D0DECF";
width = 575;
}
);
unicode = 1EC2;
},
{
glyphname = Ecircumflextilde;
lastChange = "2016-11-15 08:31:28 +0000";
layers = (
{
background = {
anchors = (
{
name = bottom;
position = "{344, 0}";
},
{
name = ogonek;
position = "{565, 0}";
},
{
name = top;
position = "{344, 877}";
},
{
name = topleft;
position = "{20, 710}";
}
);
paths = (
{
closed = 1;
nodes = (
"119 20 LINE",
"119 353 LINE",
"502 353 LINE",
"502 373 LINE",
"119 373 LINE",
"119 690 LINE",
"556 690 LINE",
"556 710 LINE",
"99 710 LINE",
"99 0 LINE",
"565 0 LINE",
"565 20 LINE"
);
},
{
closed = 1;
nodes = (
"255 786 LINE",
"340 849 LINE",
"425 786 LINE",
"441 798 LINE",
"348 872 LINE",
"332 872 LINE",
"239 798 LINE"
);
},
{
closed = 1;
nodes = (
"408 896 CURVE SMOOTH",
"481 896 OFFCURVE",
"489 954 OFFCURVE",
"489 963 CURVE",
"469 963 LINE",
"469 959 OFFCURVE",
"465 915 OFFCURVE",
"410 915 CURVE SMOOTH",
"359 915 OFFCURVE",
"337 953 OFFCURVE",
"285 953 CURVE SMOOTH",
"219 953 OFFCURVE",
"212 892 OFFCURVE",
"212 886 CURVE",
"232 886 LINE",
"232 892 OFFCURVE",
"240 934 OFFCURVE",
"283 934 CURVE SMOOTH",
"324 934 OFFCURVE",
"349 896 OFFCURVE"
);
}
);
};
components = (
{
name = E;
},
{
name = circumflexcomb_tildecomb;
transform = "{1, 0, 0, 1, 172, 191}";
}
);
layerId = "D38D3CE8-FE00-46D7-8A67-935B0885B622";
width = 588;
},
{
background = {
anchors = (
{
name = bottom;
position = "{334, 0}";
},
{
name = ogonek;
position = "{567, 0}";
},
{
name = top;
position = "{338, 896}";
},
{
name = topleft;
position = "{20, 710}";
}
);
paths = (
{
closed = 1;
nodes = (
"175 80 LINE",
"175 325 LINE",
"508 325 LINE",
"508 400 LINE",
"175 400 LINE",
"175 630 LINE",
"558 630 LINE",
"558 710 LINE",
"85 710 LINE",
"85 0 LINE",
"567 0 LINE",
"567 80 LINE"
);
},
{
closed = 1;
nodes = (
"237 776 LINE",
"322 839 LINE",
"407 776 LINE",
"455 800 LINE",
"354 890 LINE",
"290 890 LINE",
"189 800 LINE"
);
},
{
closed = 1;
nodes = (
"390 909 CURVE SMOOTH",
"475 909 OFFCURVE",
"496 997 OFFCURVE",
"496 1012 CURVE",
"444 1012 LINE",
"444 1008 OFFCURVE",
"439 963 OFFCURVE",
"388 963 CURVE SMOOTH",
"339 963 OFFCURVE",
"316 1006 OFFCURVE",
"259 1006 CURVE SMOOTH",
"180 1006 OFFCURVE",
"160 920 OFFCURVE",
"160 903 CURVE",
"212 903 LINE",
"212 907 OFFCURVE",
"217 951 OFFCURVE",
"261 951 CURVE SMOOTH",
"304 951 OFFCURVE",
"330 909 OFFCURVE"
);
}
);
};
components = (
{
name = E;
},
{
name = circumflexcomb_tildecomb;
transform = "{1, 0, 0, 1, 135, 188}";
}
);
layerId = "51AEF656-B224-4228-B44D-D7CFD243EB09";
width = 580;
},
{
background = {
anchors = (
{
name = bottom;
position = "{316, 0}";
},
{
name = ogonek;
position = "{567, 0}";
},
{
name = top;
position = "{316, 1118}";
},
{
name = topleft;
position = "{20, 710}";
}
);
paths = (
{
closed = 1;
nodes = (
"256 170 LINE",
"256 282 LINE",
"514 282 LINE",
"514 440 LINE",
"256 440 LINE",
"256 540 LINE",
"558 540 LINE",
"558 710 LINE",
"61 710 LINE",
"61 0 LINE",
"567 0 LINE",
"567 170 LINE"
);
},
{
closed = 1;
nodes = (
"228 757 LINE",
"313 820 LINE",
"398 757 LINE",
"494 799 LINE",
"381 914 LINE",
"245 914 LINE",
"132 799 LINE"
);
},
{
closed = 1;
nodes = (
"382 960 CURVE SMOOTH",
"485 960 OFFCURVE",
"525 1095 OFFCURVE",
"525 1118 CURVE",
"425 1118 LINE",
"425 1115 OFFCURVE",
"419 1067 OFFCURVE",
"375 1067 CURVE SMOOTH",
"329 1067 OFFCURVE",
"305 1118 OFFCURVE",
"240 1118 CURVE SMOOTH",
"140 1118 OFFCURVE",
"101 995 OFFCURVE",
"101 960 CURVE",
"202 960 LINE",
"202 962 OFFCURVE",
"203 1008 OFFCURVE",
"248 1008 CURVE SMOOTH",
"293 1008 OFFCURVE",
"321 960 OFFCURVE"
);
}
);
};
components = (
{
name = E;
},
{
name = circumflexcomb_tildecomb;
transform = "{1, 0, 0, 1, 87, 184}";
}
);
layerId = "985A8054-912F-442C-AEAA-CDACF2D0DECF";
width = 575;
}
);
unicode = 1EC4;
},
{
glyphname = Edblgrave;
lastChange = "2016-11-14 09:41:13 +0000";
layers = (
{
background = {
anchors = (
{
name = bottom;
position = "{344, 0}";
},
{
name = ogonek;
position = "{565, 0}";
},
{
name = top;
position = "{344, 707}";
},
{
name = topleft;
position = "{20, 710}";
}
);
paths = (
{
closed = 1;
nodes = (
"119 20 LINE",
"119 353 LINE",
"502 353 LINE",
"502 373 LINE",
"119 373 LINE",
"119 690 LINE",
"556 690 LINE",
"556 710 LINE",
"99 710 LINE",
"99 0 LINE",
"565 0 LINE",
"565 20 LINE"
);
},
{
closed = 1;
nodes = (
"396 833 LINE",
"412 845 LINE",
"348 918 LINE",
"314 918 LINE"
);
},
{
closed = 1;
nodes = (
"296 833 LINE",
"312 845 LINE",
"248 918 LINE",
"214 918 LINE"
);
}
);
};
components = (
{
name = E;
},
{
name = dblgravecomb;
transform = "{1, 0, 0, 1, 137, 191}";
}
);
layerId = "D38D3CE8-FE00-46D7-8A67-935B0885B622";
width = 588;
},
{
background = {
anchors = (
{
name = bottom;
position = "{334, 0}";
},
{
name = ogonek;
position = "{567, 0}";
},
{
name = top;
position = "{334, 708}";
},
{
name = topleft;
position = "{20, 710}";
}
);
paths = (
{
closed = 1;
nodes = (
"175 80 LINE",
"175 325 LINE",
"508 325 LINE",
"508 400 LINE",
"175 400 LINE",
"175 630 LINE",
"558 630 LINE",
"558 710 LINE",
"85 710 LINE",
"85 0 LINE",
"567 0 LINE",
"567 80 LINE"
);
},
{
closed = 1;
nodes = (
"391 796 LINE",
"437 816 LINE",
"383 917 LINE",
"307 917 LINE"
);
},
{
closed = 1;
nodes = (
"255 796 LINE",
"301 816 LINE",
"247 917 LINE",
"171 917 LINE"
);
}
);
};
components = (
{
name = E;
},
{
name = dblgravecomb;
transform = "{1, 0, 0, 1, 107, 189}";
}
);
layerId = "51AEF656-B224-4228-B44D-D7CFD243EB09";
width = 580;
},
{
background = {
anchors = (
{
name = bottom;
position = "{316, 0}";
},
{
name = ogonek;
position = "{567, 0}";
},
{
name = top;
position = "{316, 710}";
},
{
name = topleft;
position = "{20, 710}";
}
);
paths = (
{
closed = 1;
nodes = (
"256 170 LINE",
"256 282 LINE",
"514 282 LINE",
"514 440 LINE",
"256 440 LINE",
"256 540 LINE",
"558 540 LINE",
"558 710 LINE",
"61 710 LINE",
"61 0 LINE",
"567 0 LINE",
"567 170 LINE"
);
},
{
closed = 1;
nodes = (
"378 741 LINE",
"468 773 LINE",
"428 915 LINE",
"289 915 LINE"
);
},
{
closed = 1;
nodes = (
"188 741 LINE",
"278 773 LINE",
"238 915 LINE",
"99 915 LINE"
);
}
);
};
components = (
{
name = E;
},
{
name = dblgravecomb;
transform = "{1, 0, 0, 1, 56, 189}";
}
);
layerId = "985A8054-912F-442C-AEAA-CDACF2D0DECF";
width = 575;
}
);
unicode = 0204;
},
{
glyphname = Edieresis;
lastChange = "2016-11-14 08:37:14 +0000";
layers = (
{
background = {
anchors = (
{
name = bottom;
position = "{344, 0}";
},
{
name = ogonek;
position = "{565, 0}";
},
{
name = top;
position = "{344, 908}";
},
{
name = topleft;
position = "{20, 710}";
}
);
paths = (
{
closed = 1;
nodes = (
"119 20 LINE",
"119 353 LINE",
"502 353 LINE",
"502 373 LINE",
"119 373 LINE",
"119 690 LINE",
"556 690 LINE",
"556 710 LINE",
"99 710 LINE",
"99 0 LINE",
"565 0 LINE",
"565 20 LINE"
);
},
{
closed = 1;
nodes = (
"296 841 LINE",
"296 918 LINE",
"276 918 LINE",
"276 841 LINE"
);
},
{
closed = 1;
nodes = (
"412 841 LINE",
"412 918 LINE",
"392 918 LINE",
"392 841 LINE"
);
}
);
};
components = (
{
name = E;
},
{
name = dieresiscomb;
transform = "{1, 0, 0, 1, 219, 191}";
}
);
layerId = "D38D3CE8-FE00-46D7-8A67-935B0885B622";
width = 588;
},
{
background = {
anchors = (
{
name = bottom;
position = "{334, 0}";
},
{
name = ogonek;
position = "{567, 0}";
},
{
name = top;
position = "{334, 907}";
},
{
name = topleft;
position = "{20, 710}";
}
);
paths = (
{
closed = 1;
nodes = (
"175 80 LINE",
"175 325 LINE",
"508 325 LINE",
"508 400 LINE",
"175 400 LINE",
"175 630 LINE",
"558 630 LINE",
"558 710 LINE",
"85 710 LINE",
"85 0 LINE",
"567 0 LINE",
"567 80 LINE"
);
},
{
closed = 1;
nodes = (
"290 811 LINE",
"290 913 LINE",
"216 913 LINE",
"216 811 LINE"
);
},
{
closed = 1;
nodes = (
"452 811 LINE",
"452 913 LINE",
"378 913 LINE",
"378 811 LINE"
);
}
);
};
components = (
{
name = E;
},
{
name = dieresiscomb;
transform = "{1, 0, 0, 1, 165, 188}";
}
);
layerId = "51AEF656-B224-4228-B44D-D7CFD243EB09";
width = 580;
},
{
background = {
anchors = (
{
name = bottom;
position = "{316, 0}";
},
{
name = ogonek;
position = "{567, 0}";
},
{
name = top;
position = "{316, 905}";
},
{
name = topleft;
position = "{20, 710}";
}
);
paths = (
{
closed = 1;
nodes = (
"256 170 LINE",
"256 282 LINE",
"514 282 LINE",
"514 440 LINE",
"256 440 LINE",
"256 540 LINE",
"558 540 LINE",
"558 710 LINE",
"61 710 LINE",
"61 0 LINE",
"567 0 LINE",
"567 170 LINE"
);
},
{
closed = 1;
nodes = (
"279 765 LINE",
"279 905 LINE",
"123 905 LINE",
"123 765 LINE"
);
},
{
closed = 1;
nodes = (
"509 765 LINE",
"509 905 LINE",
"353 905 LINE",
"353 765 LINE"
);
}
);
};
components = (
{
name = E;
},
{
name = dieresiscomb;
transform = "{1, 0, 0, 1, 87, 184}";
}
);
layerId = "985A8054-912F-442C-AEAA-CDACF2D0DECF";
width = 575;
}
);
leftKerningGroup = I;
rightKerningGroup = E;
unicode = 00CB;
},
{
glyphname = Edotaccent;
lastChange = "2016-11-14 08:44:09 +0000";
layers = (
{
background = {
anchors = (
{
name = bottom;
position = "{344, 0}";
},
{
name = ogonek;
position = "{565, 0}";
},
{
name = top;
position = "{344, 918}";
},
{
name = topleft;
position = "{20, 710}";
}
);
paths = (
{
closed = 1;
nodes = (
"119 20 LINE",
"119 353 LINE",
"502 353 LINE",
"502 373 LINE",
"119 373 LINE",
"119 690 LINE",
"556 690 LINE",
"556 710 LINE",
"99 710 LINE",
"99 0 LINE",
"565 0 LINE",
"565 20 LINE"
);
},
{
closed = 1;
nodes = (
"354 841 LINE",
"354 918 LINE",
"334 918 LINE",
"334 841 LINE"
);
}
);
};
components = (
{
name = E;
},
{
name = dotaccentcomb;
transform = "{1, 0, 0, 1, 275, 191}";
}
);
layerId = "D38D3CE8-FE00-46D7-8A67-935B0885B622";
width = 588;
},
{
background = {
anchors = (
{
name = bottom;
position = "{334, 0}";
},
{
name = ogonek;
position = "{567, 0}";
},
{
name = top;
position = "{334, 916}";
},
{
name = topleft;
position = "{20, 710}";
}
);
paths = (
{
closed = 1;
nodes = (
"175 80 LINE",
"175 325 LINE",
"508 325 LINE",
"508 400 LINE",
"175 400 LINE",
"175 630 LINE",
"558 630 LINE",
"558 710 LINE",
"85 710 LINE",
"85 0 LINE",
"567 0 LINE",
"567 80 LINE"
);
},
{
closed = 1;
nodes = (
"374 810 LINE",
"374 916 LINE",
"294 916 LINE",
"294 810 LINE"
);
}
);
};
components = (
{
name = E;
},
{
name = dotaccentcomb;
transform = "{1, 0, 0, 1, 240, 188}";
}
);
layerId = "51AEF656-B224-4228-B44D-D7CFD243EB09";
width = 580;
},
{
background = {
anchors = (
{
name = bottom;
position = "{316, 0}";
},
{
name = ogonek;
position = "{567, 0}";
},
{
name = top;
position = "{316, 914}";
},
{
name = topleft;
position = "{20, 710}";
}
);
paths = (
{
closed = 1;
nodes = (
"256 170 LINE",
"256 282 LINE",
"514 282 LINE",
"514 440 LINE",
"256 440 LINE",
"256 540 LINE",
"558 540 LINE",
"558 710 LINE",
"61 710 LINE",
"61 0 LINE",
"567 0 LINE",
"567 170 LINE"
);
},
{
closed = 1;
nodes = (
"401 764 LINE",
"401 914 LINE",
"231 914 LINE",
"231 764 LINE"
);
}
);
};
components = (
{
name = E;
},
{
name = dotaccentcomb;
transform = "{1, 0, 0, 1, 192, 184}";
}
);
layerId = "985A8054-912F-442C-AEAA-CDACF2D0DECF";
width = 575;
}
);
leftKerningGroup = I;
rightKerningGroup = E;
unicode = 0116;
},
{
glyphname = Edotbelow;
lastChange = "2016-11-14 07:23:06 +0000";
layers = (
{
background = {
anchors = (
{
name = bottom;
position = "{344, -127}";
},
{
name = ogonek;
position = "{565, 0}";
},
{
name = top;
position = "{344, 707}";
},
{
name = topleft;
position = "{20, 710}";
}
);
paths = (
{
closed = 1;
nodes = (
"119 20 LINE",
"119 353 LINE",
"502 353 LINE",
"502 373 LINE",
"119 373 LINE",
"119 690 LINE",
"556 690 LINE",
"556 710 LINE",
"99 710 LINE",
"99 0 LINE",
"565 0 LINE",
"565 20 LINE"
);
},
{
closed = 1;
nodes = (
"354 -127 LINE",
"354 -50 LINE",
"334 -50 LINE",
"334 -127 LINE"
);
}
);
};
components = (
{
name = E;
},
{
name = dotbelowcomb;
transform = "{1, 0, 0, 1, 234, 0}";
}
);
layerId = "D38D3CE8-FE00-46D7-8A67-935B0885B622";
width = 588;
},
{
background = {
anchors = (
{
name = bottom;
position = "{334, -187}";
},
{
name = ogonek;
position = "{567, 0}";
},
{
name = top;
position = "{334, 708}";
},
{
name = topleft;
position = "{20, 710}";
}
);
paths = (
{
closed = 1;
nodes = (
"175 80 LINE",
"175 325 LINE",
"508 325 LINE",
"508 400 LINE",
"175 400 LINE",
"175 630 LINE",
"558 630 LINE",
"558 710 LINE",
"85 710 LINE",
"85 0 LINE",
"567 0 LINE",
"567 80 LINE"
);
},
{
closed = 1;
nodes = (
"374 -187 LINE",
"374 -81 LINE",
"294 -81 LINE",
"294 -187 LINE"
);
}
);
};
components = (
{
name = E;
},
{
name = dotbelowcomb;
transform = "{1, 0, 0, 1, 201, 0}";
}
);
layerId = "51AEF656-B224-4228-B44D-D7CFD243EB09";
width = 580;
},
{
background = {
anchors = (
{
name = bottom;
position = "{316, -214}";
},
{
name = ogonek;
position = "{567, 0}";
},
{
name = top;
position = "{316, 710}";
},
{
name = topleft;
position = "{20, 710}";
}
);
paths = (
{
closed = 1;
nodes = (
"256 170 LINE",
"256 282 LINE",
"514 282 LINE",
"514 440 LINE",
"256 440 LINE",
"256 540 LINE",
"558 540 LINE",
"558 710 LINE",
"61 710 LINE",
"61 0 LINE",
"567 0 LINE",
"567 170 LINE"
);
},
{
closed = 1;
nodes = (
"401 -214 LINE",
"401 -64 LINE",
"231 -64 LINE",
"231 -214 LINE"
);
}
);
};
components = (
{
name = E;
},
{
name = dotbelowcomb;
transform = "{1, 0, 0, 1, 153, 0}";
}
);
layerId = "985A8054-912F-442C-AEAA-CDACF2D0DECF";
width = 575;
}
);
leftKerningGroup = I;
rightKerningGroup = E;
unicode = 1EB8;
},
{
glyphname = Egrave;
lastChange = "2016-11-14 08:52:17 +0000";
layers = (
{
background = {
anchors = (
{
name = bottom;
position = "{344, 0}";
},
{
name = ogonek;
position = "{565, 0}";
},
{
name = top;
position = "{325, 918}";
},
{
name = topleft;
position = "{20, 710}";
}
);
paths = (
{
closed = 1;
nodes = (
"119 20 LINE",
"119 353 LINE",
"502 353 LINE",
"502 373 LINE",
"119 373 LINE",
"119 690 LINE",
"556 690 LINE",
"556 710 LINE",
"99 710 LINE",
"99 0 LINE",
"565 0 LINE",
"565 20 LINE"
);
},
{
closed = 1;
nodes = (
"358 833 LINE",
"374 845 LINE",
"309 918 LINE",
"276 918 LINE"
);
}
);
};
components = (
{
name = E;
},
{
name = gravecomb;
transform = "{1, 0, 0, 1, 178, 191}";
}
);
layerId = "D38D3CE8-FE00-46D7-8A67-935B0885B622";
width = 588;
},
{
background = {
anchors = (
{
name = bottom;
position = "{334, 0}";
},
{
name = ogonek;
position = "{567, 0}";
},
{
name = top;
position = "{303, 917}";
},
{
name = topleft;
position = "{20, 710}";
}
);
paths = (
{
closed = 1;
nodes = (
"175 80 LINE",
"175 325 LINE",
"508 325 LINE",
"508 400 LINE",
"175 400 LINE",
"175 630 LINE",
"558 630 LINE",
"558 710 LINE",
"85 710 LINE",
"85 0 LINE",
"567 0 LINE",
"567 80 LINE"
);
},
{
closed = 1;
nodes = (
"319 796 LINE",
"376 816 LINE",
"317 917 LINE",
"230 917 LINE"
);
}
);
};
components = (
{
name = E;
},
{
name = gravecomb;
transform = "{1, 0, 0, 1, 144, 188}";
}
);
layerId = "51AEF656-B224-4228-B44D-D7CFD243EB09";
width = 580;
},
{
background = {
anchors = (
{
name = bottom;
position = "{316, 0}";
},
{
name = ogonek;
position = "{567, 0}";
},
{
name = top;
position = "{276, 914}";
},
{
name = topleft;
position = "{20, 710}";
}
);
paths = (
{
closed = 1;
nodes = (
"256 170 LINE",
"256 282 LINE",
"514 282 LINE",
"514 440 LINE",
"256 440 LINE",
"256 540 LINE",
"558 540 LINE",
"558 710 LINE",
"61 710 LINE",
"61 0 LINE",
"567 0 LINE",
"567 170 LINE"
);
},
{
closed = 1;
nodes = (
"265 740 LINE",
"385 772 LINE",
"335 914 LINE",
"166 914 LINE"
);
}
);
};
components = (
{
name = E;
},
{
name = gravecomb;
transform = "{1, 0, 0, 1, 113, 184}";
}
);
layerId = "985A8054-912F-442C-AEAA-CDACF2D0DECF";
width = 575;
}
);
leftKerningGroup = I;
rightKerningGroup = E;
unicode = 00C8;
},
{
glyphname = Ehookabove;
lastChange = "2016-11-14 09:07:19 +0000";
layers = (
{
background = {
anchors = (
{
name = bottom;
position = "{344, 0}";
},
{
name = ogonek;
position = "{565, 0}";
},
{
name = top;
position = "{344, 913}";
},
{
name = topleft;
position = "{20, 710}";
}
);
paths = (
{
closed = 1;
nodes = (
"119 20 LINE",
"119 353 LINE",
"502 353 LINE",
"502 373 LINE",
"119 373 LINE",
"119 690 LINE",
"556 690 LINE",
"556 710 LINE",
"99 710 LINE",
"99 0 LINE",
"565 0 LINE",
"565 20 LINE"
);
},
{
closed = 1;
nodes = (
"316 887 OFFCURVE",
"326 895 OFFCURVE",
"344 895 CURVE SMOOTH",
"373 895 OFFCURVE",
"385 877 OFFCURVE",
"385 856 CURVE SMOOTH",
"385 840 OFFCURVE",
"372 824 OFFCURVE",
"351 800 CURVE",
"363 789 LINE",
"386 815 OFFCURVE",
"403 830 OFFCURVE",
"403 856 CURVE SMOOTH",
"403 892 OFFCURVE",
"378 913 OFFCURVE",
"346 913 CURVE SMOOTH",
"320 913 OFFCURVE",
"305 902 OFFCURVE",
"284 883 CURVE",
"296 870 LINE"
);
}
);
};
components = (
{
name = E;
},
{
name = hookabovecomb;
transform = "{1, 0, 0, 1, 221, 191}";
}
);
layerId = "D38D3CE8-FE00-46D7-8A67-935B0885B622";
width = 588;
},
{
background = {
anchors = (
{
name = bottom;
position = "{334, 0}";
},
{
name = ogonek;
position = "{567, 0}";
},
{
name = top;
position = "{334, 967}";
},
{
name = topleft;
position = "{20, 710}";
}
);
paths = (
{
closed = 1;
nodes = (
"175 80 LINE",
"175 325 LINE",
"508 325 LINE",
"508 400 LINE",
"175 400 LINE",
"175 630 LINE",
"558 630 LINE",
"558 710 LINE",
"85 710 LINE",
"85 0 LINE",
"567 0 LINE",
"567 80 LINE"
);
},
{
closed = 1;
nodes = (
"307 899 OFFCURVE",
"317 904 OFFCURVE",
"334 904 CURVE SMOOTH",
"350 904 OFFCURVE",
"361 892 OFFCURVE",
"361 877 CURVE SMOOTH",
"361 861 OFFCURVE",
"355 847 OFFCURVE",
"332 826 CURVE",
"357 797 LINE",
"396 829 OFFCURVE",
"413 858 OFFCURVE",
"413 885 CURVE SMOOTH",
"413 918 OFFCURVE",
"390 951 OFFCURVE",
"342 951 CURVE SMOOTH",
"307 951 OFFCURVE",
"280 937 OFFCURVE",
"255 915 CURVE",
"288 882 LINE"
);
}
);
};
components = (
{
name = E;
},
{
name = hookabovecomb;
transform = "{1, 0, 0, 1, 194, 188}";
}
);
layerId = "51AEF656-B224-4228-B44D-D7CFD243EB09";
width = 580;
},
{
background = {
anchors = (
{
name = bottom;
position = "{316, 0}";
},
{
name = ogonek;
position = "{567, 0}";
},
{
name = top;
position = "{316, 969}";
},
{
name = topleft;
position = "{20, 710}";
}
);
paths = (
{
closed = 1;
nodes = (
"256 170 LINE",
"256 282 LINE",
"514 282 LINE",
"514 440 LINE",
"256 440 LINE",
"256 540 LINE",
"558 540 LINE",
"558 710 LINE",
"61 710 LINE",
"61 0 LINE",
"567 0 LINE",
"567 170 LINE"
);
},
{
closed = 1;
nodes = (
"280 877 OFFCURVE",
"291 887 OFFCURVE",
"310 887 CURVE SMOOTH",
"329 887 OFFCURVE",
"340 874 OFFCURVE",
"340 857 CURVE SMOOTH",
"340 839 OFFCURVE",
"326 824 OFFCURVE",
"304 809 CURVE",
"349 762 LINE",
"399 803 OFFCURVE",
"423 831 OFFCURVE",
"423 885 CURVE SMOOTH",
"423 936 OFFCURVE",
"384 969 OFFCURVE",
"325 969 CURVE SMOOTH",
"286 969 OFFCURVE",
"250 953 OFFCURVE",
"209 910 CURVE",
"260 860 LINE"
);
}
);
};
components = (
{
name = E;
},
{
name = hookabovecomb;
transform = "{1, 0, 0, 1, 176, 188}";
}
);
layerId = "985A8054-912F-442C-AEAA-CDACF2D0DECF";
width = 575;
}
);
unicode = 1EBA;
},
{
glyphname = Einvertedbreve;
lastChange = "2016-11-15 12:38:25 +0000";
layers = (
{
background = {
anchors = (
{
name = bottom;
position = "{344, 0}";
},
{
name = ogonek;
position = "{565, 0}";
},
{
name = top;
position = "{344, 707}";
},
{
name = topleft;
position = "{20, 710}";
}
);
paths = (
{
closed = 1;
nodes = (
"119 20 LINE",
"119 353 LINE",
"502 353 LINE",
"502 373 LINE",
"119 373 LINE",
"119 690 LINE",
"556 690 LINE",
"556 710 LINE",
"99 710 LINE",
"99 0 LINE",
"565 0 LINE",
"565 20 LINE"
);
},
{
closed = 1;
nodes = (
"344 901 CURVE SMOOTH",
"371 901 OFFCURVE",
"396 874 OFFCURVE",
"400 841 CURVE",
"418 841 LINE",
"418 882 OFFCURVE",
"383 918 OFFCURVE",
"344 918 CURVE SMOOTH",
"305 918 OFFCURVE",
"270 882 OFFCURVE",
"270 841 CURVE",
"289 841 LINE",
"289 871 OFFCURVE",
"316 901 OFFCURVE"
);
}
);
};
components = (
{
name = E;
},
{
name = breveinvertedcomb;
transform = "{1, 0, 0, 1, 218, 191}";
}
);
layerId = "D38D3CE8-FE00-46D7-8A67-935B0885B622";
width = 588;
},
{
background = {
anchors = (
{
name = bottom;
position = "{334, 0}";
},
{
name = ogonek;
position = "{567, 0}";
},
{
name = top;
position = "{334, 708}";
},
{
name = topleft;
position = "{20, 710}";
}
);
paths = (
{
closed = 1;
nodes = (
"175 80 LINE",
"175 325 LINE",
"508 325 LINE",
"508 400 LINE",
"175 400 LINE",
"175 630 LINE",
"558 630 LINE",
"558 710 LINE",
"85 710 LINE",
"85 0 LINE",
"567 0 LINE",
"567 80 LINE"
);
},
{
closed = 1;
nodes = (
"334 873 CURVE SMOOTH",
"363 873 OFFCURVE",
"388 844 OFFCURVE",
"392 805 CURVE",
"442 805 LINE",
"442 868 OFFCURVE",
"395 916 OFFCURVE",
"334 916 CURVE SMOOTH",
"273 916 OFFCURVE",
"226 868 OFFCURVE",
"226 805 CURVE",
"277 805 LINE",
"277 841 OFFCURVE",
"304 873 OFFCURVE"
);
}
);
};
components = (
{
name = E;
},
{
name = breveinvertedcomb;
transform = "{1, 0, 0, 1, 172, 188}";
}
);
layerId = "51AEF656-B224-4228-B44D-D7CFD243EB09";
width = 580;
},
{
background = {
anchors = (
{
name = bottom;
position = "{316, 0}";
},
{
name = ogonek;
position = "{567, 0}";
},
{
name = top;
position = "{316, 710}";
},
{
name = topleft;
position = "{20, 710}";
}
);
paths = (
{
closed = 1;
nodes = (
"256 170 LINE",
"256 282 LINE",
"514 282 LINE",
"514 440 LINE",
"256 440 LINE",
"256 540 LINE",
"558 540 LINE",
"558 710 LINE",
"61 710 LINE",
"61 0 LINE",
"567 0 LINE",
"567 170 LINE"
);
},
{
closed = 1;
nodes = (
"316 833 CURVE SMOOTH",
"347 833 OFFCURVE",
"373 799 OFFCURVE",
"377 752 CURVE",
"475 752 LINE",
"475 847 OFFCURVE",
"410 914 OFFCURVE",
"316 914 CURVE SMOOTH",
"222 914 OFFCURVE",
"157 847 OFFCURVE",
"157 752 CURVE",
"255 752 LINE",
"255 796 OFFCURVE",
"283 833 OFFCURVE"
);
}
);
};
components = (
{
name = E;
},
{
name = breveinvertedcomb;
transform = "{1, 0, 0, 1, 120, 188}";
}
);
layerId = "985A8054-912F-442C-AEAA-CDACF2D0DECF";
width = 575;
}
);
unicode = 0206;
},
{
glyphname = Emacron;
lastChange = "2016-11-14 08:56:29 +0000";
layers = (
{
background = {
anchors = (
{
name = bottom;
position = "{344, 0}";
},
{
name = ogonek;
position = "{565, 0}";
},
{
name = top;
position = "{344, 894}";
},
{
name = topleft;
position = "{20, 710}";
}
);
paths = (
{
closed = 1;
nodes = (
"119 20 LINE",
"119 353 LINE",
"502 353 LINE",
"502 373 LINE",
"119 373 LINE",
"119 690 LINE",
"556 690 LINE",
"556 710 LINE",
"99 710 LINE",
"99 0 LINE",
"565 0 LINE",
"565 20 LINE"
);
},
{
closed = 1;
nodes = (
"484 874 LINE",
"484 894 LINE",
"204 894 LINE",
"204 874 LINE"
);
}
);
};
components = (
{
name = E;
},
{
name = macroncomb;
transform = "{1, 0, 0, 1, 152, 191}";
}
);
layerId = "D38D3CE8-FE00-46D7-8A67-935B0885B622";
width = 588;
},
{
background = {
anchors = (
{
name = bottom;
position = "{334, 0}";
},
{
name = ogonek;
position = "{567, 0}";
},
{
name = top;
position = "{335, 898}";
},
{
name = topleft;
position = "{20, 710}";
}
);
paths = (
{
closed = 1;
nodes = (
"175 80 LINE",
"175 325 LINE",
"508 325 LINE",
"508 400 LINE",
"175 400 LINE",
"175 630 LINE",
"558 630 LINE",
"558 710 LINE",
"85 710 LINE",
"85 0 LINE",
"567 0 LINE",
"567 80 LINE"
);
},
{
closed = 1;
nodes = (
"481 840 LINE",
"481 898 LINE",
"189 898 LINE",
"189 840 LINE"
);
}
);
};
components = (
{
name = E;
},
{
name = macroncomb;
transform = "{1, 0, 0, 1, 140, 188}";
}
);
layerId = "51AEF656-B224-4228-B44D-D7CFD243EB09";
width = 580;
},
{
background = {
anchors = (
{
name = bottom;
position = "{316, 0}";
},
{
name = ogonek;
position = "{567, 0}";
},
{
name = top;
position = "{317, 904}";
},
{
name = topleft;
position = "{20, 710}";
}
);
paths = (
{
closed = 1;
nodes = (
"256 170 LINE",
"256 282 LINE",
"514 282 LINE",
"514 440 LINE",
"256 440 LINE",
"256 540 LINE",
"558 540 LINE",
"558 710 LINE",
"61 710 LINE",
"61 0 LINE",
"567 0 LINE",
"567 170 LINE"
);
},
{
closed = 1;
nodes = (
"472 791 LINE",
"472 904 LINE",
"162 904 LINE",
"162 791 LINE"
);
}
);
};
components = (
{
name = E;
},
{
name = macroncomb;
transform = "{1, 0, 0, 1, 129, 184}";
}
);
layerId = "985A8054-912F-442C-AEAA-CDACF2D0DECF";
width = 575;
}
);
leftKerningGroup = I;
rightKerningGroup = E;
unicode = 0112;
},
{
glyphname = Eogonek;
lastChange = "2016-11-15 08:49:02 +0000";
layers = (
{
background = {
anchors = (
{
name = bottom;
position = "{344, 0}";
},
{
name = ogonek;
position = "{565, 0}";
},
{
name = top;
position = "{344, 707}";
},
{
name = topleft;
position = "{20, 710}";
}
);
paths = (
{
closed = 1;
nodes = (
"119 20 LINE",
"119 353 LINE",
"502 353 LINE",
"502 373 LINE",
"119 373 LINE",
"119 690 LINE",
"556 690 LINE",
"556 710 LINE",
"99 710 LINE",
"99 0 LINE",
"565 0 LINE",
"565 20 LINE"
);
},
{
closed = 1;
nodes = (
"468 -132 OFFCURVE",
"490 -153 OFFCURVE",
"549 -164 CURVE",
"561 -147 LINE",
"507 -135 OFFCURVE",
"489 -122 OFFCURVE",
"489 -97 CURVE SMOOTH",
"489 -69 OFFCURVE",
"511 -42 OFFCURVE",
"565 0 CURVE",
"555 12 LINE",
"550 12 LINE",
"497 -30 OFFCURVE",
"468 -64 OFFCURVE",
"468 -100 CURVE SMOOTH"
);
}
);
};
components = (
{
name = E;
},
{
name = ogonekcomb;
transform = "{1, 0, 0, 1, 408, 0}";
}
);
layerId = "D38D3CE8-FE00-46D7-8A67-935B0885B622";
width = 588;
},
{
background = {
anchors = (
{
name = bottom;
position = "{334, 0}";
},
{
name = ogonek;
position = "{567, 0}";
},
{
name = top;
position = "{334, 708}";
},
{
name = topleft;
position = "{20, 710}";
}
);
paths = (
{
closed = 1;
nodes = (
"175 80 LINE",
"175 325 LINE",
"508 325 LINE",
"508 400 LINE",
"175 400 LINE",
"175 630 LINE",
"558 630 LINE",
"558 710 LINE",
"85 710 LINE",
"85 0 LINE",
"567 0 LINE",
"567 80 LINE"
);
},
{
closed = 1;
nodes = (
"430 -141 OFFCURVE",
"448 -182 OFFCURVE",
"547 -189 CURVE",
"567 -133 LINE",
"519 -130 OFFCURVE",
"489 -122 OFFCURVE",
"489 -95 CURVE SMOOTH",
"489 -70 OFFCURVE",
"512 -42 OFFCURVE",
"567 0 CURVE",
"547 18 LINE",
"523 18 LINE",
"459 -23 OFFCURVE",
"430 -63 OFFCURVE",
"430 -107 CURVE SMOOTH"
);
}
);
};
components = (
{
name = E;
},
{
name = ogonekcomb;
transform = "{1, 0, 0, 1, 371, 0}";
}
);
layerId = "51AEF656-B224-4228-B44D-D7CFD243EB09";
width = 580;
},
{
background = {
anchors = (
{
name = bottom;
position = "{316, 0}";
},
{
name = ogonek;
position = "{567, 0}";
},
{
name = top;
position = "{316, 710}";
},
{
name = topleft;
position = "{20, 710}";
}
);
paths = (
{
closed = 1;
nodes = (
"256 170 LINE",
"256 282 LINE",
"514 282 LINE",
"514 440 LINE",
"256 440 LINE",
"256 540 LINE",
"558 540 LINE",
"558 710 LINE",
"61 710 LINE",
"61 0 LINE",
"567 0 LINE",
"567 170 LINE"
);
},
{
closed = 1;
nodes = (
"378 -162 OFFCURVE",
"427 -203 OFFCURVE",
"530 -215 CURVE",
"565 -115 LINE",
"517 -115 OFFCURVE",
"495 -100 OFFCURVE",
"495 -78 CURVE SMOOTH",
"495 -55 OFFCURVE",
"521 -27 OFFCURVE",
"567 0 CURVE",
"554 24 LINE",
"491 24 LINE",
"416 -14 OFFCURVE",
"378 -67 OFFCURVE",
"378 -115 CURVE SMOOTH"
);
}
);
};
components = (
{
name = E;
},
{
name = ogonekcomb;
transform = "{1, 0, 0, 1, 313, -1}";
}
);
layerId = "985A8054-912F-442C-AEAA-CDACF2D0DECF";
width = 575;
}
);
leftKerningGroup = I;
rightKerningGroup = E;
unicode = 0118;
},
{
glyphname = Etilde;
lastChange = "2016-11-14 09:37:42 +0000";
layers = (
{
background = {
anchors = (
{
name = bottom;
position = "{344, 0}";
},
{
name = ogonek;
position = "{565, 0}";
},
{
name = top;
position = "{344, 918}";
},
{
name = topleft;
position = "{20, 710}";
}
);
paths = (
{
closed = 1;
nodes = (
"119 20 LINE",
"119 353 LINE",
"502 353 LINE",
"502 373 LINE",
"119 373 LINE",
"119 690 LINE",
"556 690 LINE",
"556 710 LINE",
"99 710 LINE",
"99 0 LINE",
"565 0 LINE",
"565 20 LINE"
);
},
{
closed = 1;
nodes = (
"401 851 CURVE SMOOTH",
"474 851 OFFCURVE",
"482 909 OFFCURVE",
"482 918 CURVE",
"462 918 LINE",
"462 914 OFFCURVE",
"458 870 OFFCURVE",
"403 870 CURVE SMOOTH",
"352 870 OFFCURVE",
"330 908 OFFCURVE",
"278 908 CURVE SMOOTH",
"212 908 OFFCURVE",
"205 847 OFFCURVE",
"205 841 CURVE",
"225 841 LINE",
"225 847 OFFCURVE",
"233 889 OFFCURVE",
"276 889 CURVE SMOOTH",
"317 889 OFFCURVE",
"342 851 OFFCURVE"
);
}
);
};
components = (
{
name = E;
},
{
name = tildecomb;
transform = "{1, 0, 0, 1, 153, 191}";
}
);
layerId = "D38D3CE8-FE00-46D7-8A67-935B0885B622";
width = 588;
},
{
background = {
anchors = (
{
name = bottom;
position = "{334, 0}";
},
{
name = ogonek;
position = "{567, 0}";
},
{
name = top;
position = "{334, 916}";
},
{
name = topleft;
position = "{20, 710}";
}
);
paths = (
{
closed = 1;
nodes = (
"175 80 LINE",
"175 325 LINE",
"508 325 LINE",
"508 400 LINE",
"175 400 LINE",
"175 630 LINE",
"558 630 LINE",
"558 710 LINE",
"85 710 LINE",
"85 0 LINE",
"567 0 LINE",
"567 80 LINE"
);
},
{
closed = 1;
nodes = (
"396 813 CURVE SMOOTH",
"481 813 OFFCURVE",
"502 901 OFFCURVE",
"502 916 CURVE",
"450 916 LINE",
"450 912 OFFCURVE",
"445 867 OFFCURVE",
"394 867 CURVE SMOOTH",
"345 867 OFFCURVE",
"322 910 OFFCURVE",
"265 910 CURVE SMOOTH",
"186 910 OFFCURVE",
"166 824 OFFCURVE",
"166 807 CURVE",
"218 807 LINE",
"218 811 OFFCURVE",
"223 855 OFFCURVE",
"267 855 CURVE SMOOTH",
"310 855 OFFCURVE",
"336 813 OFFCURVE"
);
}
);
};
components = (
{
name = E;
},
{
name = tildecomb;
transform = "{1, 0, 0, 1, 118, 188}";
}
);
layerId = "51AEF656-B224-4228-B44D-D7CFD243EB09";
width = 580;
},
{
background = {
anchors = (
{
name = bottom;
position = "{316, 0}";
},
{
name = ogonek;
position = "{567, 0}";
},
{
name = top;
position = "{316, 914}";
},
{
name = topleft;
position = "{20, 710}";
}
);
paths = (
{
closed = 1;
nodes = (
"256 170 LINE",
"256 282 LINE",
"514 282 LINE",
"514 440 LINE",
"256 440 LINE",
"256 540 LINE",
"558 540 LINE",
"558 710 LINE",
"61 710 LINE",
"61 0 LINE",
"567 0 LINE",
"567 170 LINE"
);
},
{
closed = 1;
nodes = (
"385 756 CURVE SMOOTH",
"488 756 OFFCURVE",
"528 891 OFFCURVE",
"528 914 CURVE",
"428 914 LINE",
"428 911 OFFCURVE",
"422 863 OFFCURVE",
"378 863 CURVE SMOOTH",
"332 863 OFFCURVE",
"308 914 OFFCURVE",
"243 914 CURVE SMOOTH",
"143 914 OFFCURVE",
"104 791 OFFCURVE",
"104 756 CURVE",
"205 756 LINE",
"205 758 OFFCURVE",
"206 804 OFFCURVE",
"251 804 CURVE SMOOTH",
"296 804 OFFCURVE",
"324 756 OFFCURVE"
);
}
);
};
components = (
{
name = E;
},
{
name = tildecomb;
transform = "{1, 0, 0, 1, 71, 184}";
}
);
layerId = "985A8054-912F-442C-AEAA-CDACF2D0DECF";
width = 575;
}
);
leftKerningGroup = I;
rightKerningGroup = E;
unicode = 1EBC;
},
{
glyphname = F;
lastChange = "2016-11-11 07:20:09 +0000";
layers = (
{
background = {
paths = (
{
closed = 1;
nodes = (
"119 0 LINE",
"119 354 LINE",
"492 354 LINE",
"492 374 LINE",
"119 374 LINE",
"119 690 LINE",
"556 690 LINE",
"556 710 LINE",
"99 710 LINE",
"99 0 LINE"
);
}
);
};
layerId = "D38D3CE8-FE00-46D7-8A67-935B0885B622";
paths = (
{
closed = 1;
nodes = (
"33 0 LINE",
"53 0 LINE",
"128 354 LINE",
"482 354 LINE",
"486 374 LINE",
"133 374 LINE",
"200 690 LINE",
"614 690 LINE",
"618 710 LINE",
"184 710 LINE"
);
}
);
width = 588;
},
{
background = {
paths = (
{
closed = 1;
nodes = (
"175 0 LINE",
"175 318 LINE",
"494 318 LINE",
"494 393 LINE",
"175 393 LINE",
"175 630 LINE",
"554 630 LINE",
"554 710 LINE",
"85 710 LINE",
"85 0 LINE"
);
}
);
};
layerId = "51AEF656-B224-4228-B44D-D7CFD243EB09";
paths = (
{
closed = 1;
nodes = (
"20 0 LINE",
"110 0 LINE",
"178 318 LINE",
"477 318 LINE",
"493 393 LINE",
"194 393 LINE",
"244 630 LINE",
"600 630 LINE",
"617 710 LINE",
"171 710 LINE"
);
}
);
width = 565;
},
{
background = {
paths = (
{
closed = 1;
nodes = (
"256 0 LINE",
"256 264 LINE",
"494 264 LINE",
"494 422 LINE",
"256 422 LINE",
"256 540 LINE",
"548 540 LINE",
"548 710 LINE",
"61 710 LINE",
"61 0 LINE"
);
}
);
};
layerId = "985A8054-912F-442C-AEAA-CDACF2D0DECF";
paths = (
{
closed = 1;
nodes = (
"-3 0 LINE",
"192 0 LINE",
"248 264 LINE",
"467 264 LINE",
"500 422 LINE",
"282 422 LINE",
"307 540 LINE",
"576 540 LINE",
"612 710 LINE",
"148 710 LINE"
);
}
);
width = 546;
}
);
leftKerningGroup = I;
unicode = 0046;
},
{
glyphname = G;
lastChange = "2016-11-11 07:20:10 +0000";
layers = (
{
anchors = (
{
name = bottom;
position = "{301, 0}";
},
{
name = top;
position = "{441, 707}";
}
);
background = {
anchors = (
{
name = bottom;
position = "{382, 0}";
},
{
name = top;
position = "{370, 707}";
}
);
paths = (
{
closed = 1;
nodes = (
"383 -5 CURVE SMOOTH",
"485 -5 OFFCURVE",
"575 42 OFFCURVE",
"651 136 CURVE",
"651 164 LINE",
"568 60 OFFCURVE",
"481 15 OFFCURVE",
"383 15 CURVE SMOOTH",
"208 15 OFFCURVE",
"68 177 OFFCURVE",
"68 355 CURVE SMOOTH",
"68 522 OFFCURVE",
"184 695 OFFCURVE",
"371 695 CURVE SMOOTH",
"481 695 OFFCURVE",
"569 654 OFFCURVE",
"623 554 CURVE",
"642 560 LINE",
"597 650 OFFCURVE",
"518 715 OFFCURVE",
"371 715 CURVE SMOOTH",
"182 715 OFFCURVE",
"48 540 OFFCURVE",
"48 355 CURVE SMOOTH",
"48 180 OFFCURVE",
"186 -5 OFFCURVE"
);
},
{
closed = 1;
nodes = (
"639 0 LINE",
"659 0 LINE",
"659 338 LINE",
"472 338 LINE",
"472 318 LINE",
"639 318 LINE"
);
}
);
};
layerId = "D38D3CE8-FE00-46D7-8A67-935B0885B622";
paths = (
{
closed = 1;
nodes = (
"302 -5 CURVE SMOOTH",
"398 -5 OFFCURVE",
"494 42 OFFCURVE",
"586 136 CURVE",
"592 164 LINE",
"491 60 OFFCURVE",
"399 15 OFFCURVE",
"306 15 CURVE SMOOTH",
"164 15 OFFCURVE",
"72 144 OFFCURVE",
"72 293 CURVE SMOOTH",
"72 479 OFFCURVE",
"236 695 OFFCURVE",
"439 695 CURVE SMOOTH",
"544 695 OFFCURVE",
"618 654 OFFCURVE",
"648 554 CURVE",
"668 560 LINE",
"645 650 OFFCURVE",
"583 715 OFFCURVE",
"444 715 CURVE SMOOTH",
"238 715 OFFCURVE",
"52 498 OFFCURVE",
"52 292 CURVE SMOOTH",
"52 142 OFFCURVE",
"142 -5 OFFCURVE"
);
},
{
closed = 1;
nodes = (
"545 0 LINE",
"565 0 LINE",
"637 338 LINE",
"459 338 LINE",
"455 318 LINE",
"613 318 LINE"
);
}
);
width = 688;
},
{
anchors = (
{
name = bottom;
position = "{316, 0}";
},
{
name = top;
position = "{447, 708}";
}
);
background = {
anchors = (
{
name = bottom;
position = "{375, 0}";
},
{
name = top;
position = "{369, 708}";
}
);
paths = (
{
closed = 1;
nodes = (
"370 -5 CURVE SMOOTH",
"457 -5 OFFCURVE",
"532 32 OFFCURVE",
"597 109 CURVE",
"597 202 LINE",
"531 116 OFFCURVE",
"458 76 OFFCURVE",
"377 76 CURVE SMOOTH",
"237 76 OFFCURVE",
"130 203 OFFCURVE",
"130 355 CURVE SMOOTH",
"130 499 OFFCURVE",
"223 634 OFFCURVE",
"368 634 CURVE SMOOTH",
"455 634 OFFCURVE",
"530 594 OFFCURVE",
"572 512 CURVE",
"641 560 LINE",
"595 652 OFFCURVE",
"507 715 OFFCURVE",
"370 715 CURVE SMOOTH",
"180 715 OFFCURVE",
"39 548 OFFCURVE",
"39 357 CURVE SMOOTH",
"39 174 OFFCURVE",
"182 -5 OFFCURVE"
);
},
{
closed = 1;
nodes = (
"586 0 LINE",
"662 0 LINE",
"662 354 LINE",
"433 354 LINE",
"433 286 LINE",
"586 286 LINE"
);
}
);
};
layerId = "51AEF656-B224-4228-B44D-D7CFD243EB09";
paths = (
{
closed = 1;
nodes = (
"292 -5 CURVE SMOOTH",
"374 -5 OFFCURVE",
"452 32 OFFCURVE",
"530 109 CURVE",
"549 202 LINE",
"469 116 OFFCURVE",
"392 76 OFFCURVE",
"316 76 CURVE SMOOTH",
"206 76 OFFCURVE",
"136 175 OFFCURVE",
"136 297 CURVE SMOOTH",
"136 462 OFFCURVE",
"268 634 OFFCURVE",
"426 634 CURVE SMOOTH",
"508 634 OFFCURVE",
"570 594 OFFCURVE",
"592 512 CURVE",
"671 560 LINE",
"646 652 OFFCURVE",
"575 715 OFFCURVE",
"445 715 CURVE SMOOTH",
"238 715 OFFCURVE",
"45 508 OFFCURVE",
"45 292 CURVE SMOOTH",
"45 137 OFFCURVE",
"139 -5 OFFCURVE"
);
},
{
closed = 1;
nodes = (
"496 0 LINE",
"572 0 LINE",
"647 354 LINE",
"427 354 LINE",
"412 286 LINE",
"557 286 LINE"
);
}
);
width = 686;
},
{
anchors = (
{
name = bottom;
position = "{295, 0}";
},
{
name = top;
position = "{459, 708}";
}
);
background = {
anchors = (
{
name = bottom;
position = "{368, 0}";
},
{
name = top;
position = "{387, 710}";
}
);
paths = (
{
closed = 1;
nodes = (
"368 -5 CURVE SMOOTH",
"440 -5 OFFCURVE",
"498 18 OFFCURVE",
"553 68 CURVE",
"553 258 LINE",
"506 200 OFFCURVE",
"448 168 OFFCURVE",
"385 168 CURVE SMOOTH",
"287 168 OFFCURVE",
"221 243 OFFCURVE",
"221 354 CURVE SMOOTH",
"221 464 OFFCURVE",
"287 542 OFFCURVE",
"380 542 CURVE SMOOTH",
"442 542 OFFCURVE",
"504 505 OFFCURVE",
"532 449 CURVE",
"677 560 LINE",
"626 656 OFFCURVE",
"515 715 OFFCURVE",
"387 715 CURVE SMOOTH",
"182 715 OFFCURVE",
"23 560 OFFCURVE",
"23 361 CURVE SMOOTH",
"23 130 OFFCURVE",
"183 -5 OFFCURVE"
);
},
{
closed = 1;
nodes = (
"543 0 LINE",
"704 0 LINE",
"704 378 LINE",
"412 378 LINE",
"412 238 LINE",
"543 238 LINE"
);
}
);
};
layerId = "985A8054-912F-442C-AEAA-CDACF2D0DECF";
paths = (
{
closed = 1;
nodes = (
"290 -5 CURVE SMOOTH",
"357 -5 OFFCURVE",
"415 18 OFFCURVE",
"477 68 CURVE",
"518 258 LINE",
"463 200 OFFCURVE",
"402 168 OFFCURVE",
"344 168 CURVE SMOOTH",
"271 168 OFFCURVE",
"229 224 OFFCURVE",
"229 307 CURVE SMOOTH",
"229 438 OFFCURVE",
"319 542 OFFCURVE",
"419 542 CURVE SMOOTH",
"476 542 OFFCURVE",
"525 505 OFFCURVE",
"539 449 CURVE",
"707 560 LINE",
"679 656 OFFCURVE",
"584 715 OFFCURVE",
"463 715 CURVE SMOOTH",
"240 715 OFFCURVE",
"28 525 OFFCURVE",
"28 282 CURVE SMOOTH",
"28 102 OFFCURVE",
"141 -5 OFFCURVE"
);
},
{
closed = 1;
nodes = (
"454 0 LINE",
"614 0 LINE",
"695 378 LINE",
"411 378 LINE",
"382 238 LINE",
"504 238 LINE"
);
}
);
width = 711;
}
);
leftKerningGroup = O;
rightKerningGroup = G;
unicode = 0047;
},
{
glyphname = Gbreve;
lastChange = "2016-11-14 07:40:19 +0000";
layers = (
{
background = {
anchors = (
{
name = bottom;
position = "{382, 0}";
},
{
name = top;
position = "{370, 841}";
}
);
paths = (
{
closed = 1;
nodes = (
"383 -5 CURVE SMOOTH",
"485 -5 OFFCURVE",
"575 42 OFFCURVE",
"651 136 CURVE",
"651 164 LINE",
"568 60 OFFCURVE",
"481 15 OFFCURVE",
"383 15 CURVE SMOOTH",
"208 15 OFFCURVE",
"68 177 OFFCURVE",
"68 355 CURVE SMOOTH",
"68 522 OFFCURVE",
"184 695 OFFCURVE",
"371 695 CURVE SMOOTH",
"481 695 OFFCURVE",
"569 654 OFFCURVE",
"623 554 CURVE",
"642 560 LINE",
"597 650 OFFCURVE",
"518 715 OFFCURVE",
"371 715 CURVE SMOOTH",
"182 715 OFFCURVE",
"48 540 OFFCURVE",
"48 355 CURVE SMOOTH",
"48 180 OFFCURVE",
"186 -5 OFFCURVE"
);
},
{
closed = 1;
nodes = (
"639 0 LINE",
"659 0 LINE",
"659 338 LINE",
"472 338 LINE",
"472 318 LINE",
"639 318 LINE"
);
},
{
closed = 1;
nodes = (
"370 858 CURVE SMOOTH",
"342 858 OFFCURVE",
"315 888 OFFCURVE",
"315 918 CURVE",
"296 918 LINE",
"296 877 OFFCURVE",
"331 841 OFFCURVE",
"370 841 CURVE SMOOTH",
"409 841 OFFCURVE",
"444 877 OFFCURVE",
"444 918 CURVE",
"426 918 LINE",
"422 885 OFFCURVE",
"397 858 OFFCURVE"
);
}
);
};
components = (
{
name = G;
},
{
name = brevecomb;
transform = "{1, 0, 0, 1, 266, 188}";
}
);
layerId = "D38D3CE8-FE00-46D7-8A67-935B0885B622";
width = 688;
},
{
background = {
anchors = (
{
name = bottom;
position = "{375, 0}";
},
{
name = top;
position = "{369, 916}";
}
);
paths = (
{
closed = 1;
nodes = (
"370 -5 CURVE SMOOTH",
"457 -5 OFFCURVE",
"532 32 OFFCURVE",
"597 109 CURVE",
"597 202 LINE",
"531 116 OFFCURVE",
"458 76 OFFCURVE",
"377 76 CURVE SMOOTH",
"237 76 OFFCURVE",
"130 203 OFFCURVE",
"130 355 CURVE SMOOTH",
"130 499 OFFCURVE",
"223 634 OFFCURVE",
"368 634 CURVE SMOOTH",
"455 634 OFFCURVE",
"530 594 OFFCURVE",
"572 512 CURVE",
"641 560 LINE",
"595 652 OFFCURVE",
"507 715 OFFCURVE",
"370 715 CURVE SMOOTH",
"180 715 OFFCURVE",
"39 548 OFFCURVE",
"39 357 CURVE SMOOTH",
"39 174 OFFCURVE",
"182 -5 OFFCURVE"
);
},
{
closed = 1;
nodes = (
"586 0 LINE",
"662 0 LINE",
"662 354 LINE",
"433 354 LINE",
"433 286 LINE",
"586 286 LINE"
);
},
{
closed = 1;
nodes = (
"369 848 CURVE SMOOTH",
"339 848 OFFCURVE",
"312 880 OFFCURVE",
"312 916 CURVE",
"261 916 LINE",
"261 853 OFFCURVE",
"308 805 OFFCURVE",
"369 805 CURVE SMOOTH",
"430 805 OFFCURVE",
"477 853 OFFCURVE",
"477 916 CURVE",
"427 916 LINE",
"423 877 OFFCURVE",
"398 848 OFFCURVE"
);
}
);
};
components = (
{
name = G;
},
{
name = brevecomb;
transform = "{1, 0, 0, 1, 235, 186}";
}
);
layerId = "51AEF656-B224-4228-B44D-D7CFD243EB09";
width = 686;
},
{
background = {
anchors = (
{
name = bottom;
position = "{368, 0}";
},
{
name = top;
position = "{387, 914}";
}
);
paths = (
{
closed = 1;
nodes = (
"368 -5 CURVE SMOOTH",
"440 -5 OFFCURVE",
"498 18 OFFCURVE",
"553 68 CURVE",
"553 258 LINE",
"506 200 OFFCURVE",
"448 168 OFFCURVE",
"385 168 CURVE SMOOTH",
"287 168 OFFCURVE",
"221 243 OFFCURVE",
"221 354 CURVE SMOOTH",
"221 464 OFFCURVE",
"287 542 OFFCURVE",
"380 542 CURVE SMOOTH",
"442 542 OFFCURVE",
"504 505 OFFCURVE",
"532 449 CURVE",
"677 560 LINE",
"626 656 OFFCURVE",
"515 715 OFFCURVE",
"387 715 CURVE SMOOTH",
"182 715 OFFCURVE",
"23 560 OFFCURVE",
"23 361 CURVE SMOOTH",
"23 130 OFFCURVE",
"183 -5 OFFCURVE"
);
},
{
closed = 1;
nodes = (
"543 0 LINE",
"704 0 LINE",
"704 378 LINE",
"412 378 LINE",
"412 238 LINE",
"543 238 LINE"
);
},
{
closed = 1;
nodes = (
"387 833 CURVE SMOOTH",
"354 833 OFFCURVE",
"326 870 OFFCURVE",
"326 914 CURVE",
"228 914 LINE",
"228 819 OFFCURVE",
"293 752 OFFCURVE",
"387 752 CURVE SMOOTH",
"481 752 OFFCURVE",
"546 819 OFFCURVE",
"546 914 CURVE",
"448 914 LINE",
"444 867 OFFCURVE",
"418 833 OFFCURVE"
);
}
);
};
components = (
{
name = G;
},
{
name = brevecomb;
transform = "{1, 0, 0, 1, 196, 182}";
}
);
layerId = "985A8054-912F-442C-AEAA-CDACF2D0DECF";
width = 711;
}
);
leftKerningGroup = O;
rightKerningGroup = G;
unicode = 011E;
},
{
glyphname = Gcircumflex;
lastChange = "2016-11-14 07:57:27 +0000";
layers = (
{
background = {
anchors = (
{
name = bottom;
position = "{382, 0}";
},
{
name = top;
position = "{370, 918}";
}
);
paths = (
{
closed = 1;
nodes = (
"383 -5 CURVE SMOOTH",
"485 -5 OFFCURVE",
"575 42 OFFCURVE",
"651 136 CURVE",
"651 164 LINE",
"568 60 OFFCURVE",
"481 15 OFFCURVE",
"383 15 CURVE SMOOTH",
"208 15 OFFCURVE",
"68 177 OFFCURVE",
"68 355 CURVE SMOOTH",
"68 522 OFFCURVE",
"184 695 OFFCURVE",
"371 695 CURVE SMOOTH",
"481 695 OFFCURVE",
"569 654 OFFCURVE",
"623 554 CURVE",
"642 560 LINE",
"597 650 OFFCURVE",
"518 715 OFFCURVE",
"371 715 CURVE SMOOTH",
"182 715 OFFCURVE",
"48 540 OFFCURVE",
"48 355 CURVE SMOOTH",
"48 180 OFFCURVE",
"186 -5 OFFCURVE"
);
},
{
closed = 1;
nodes = (
"639 0 LINE",
"659 0 LINE",
"659 338 LINE",
"472 338 LINE",
"472 318 LINE",
"639 318 LINE"
);
},
{
closed = 1;
nodes = (
"285 832 LINE",
"370 895 LINE",
"455 832 LINE",
"471 844 LINE",
"378 918 LINE",
"362 918 LINE",
"269 844 LINE"
);
}
);
};
components = (
{
name = G;
},
{
name = circumflexcomb;
transform = "{1, 0, 0, 1, 246, 188}";
}
);
layerId = "D38D3CE8-FE00-46D7-8A67-935B0885B622";
width = 688;
},
{
background = {
anchors = (
{
name = bottom;
position = "{375, 0}";
},
{
name = top;
position = "{369, 916}";
}
);
paths = (
{
closed = 1;
nodes = (
"370 -5 CURVE SMOOTH",
"457 -5 OFFCURVE",
"532 32 OFFCURVE",
"597 109 CURVE",
"597 202 LINE",
"531 116 OFFCURVE",
"458 76 OFFCURVE",
"377 76 CURVE SMOOTH",
"237 76 OFFCURVE",
"130 203 OFFCURVE",
"130 355 CURVE SMOOTH",
"130 499 OFFCURVE",
"223 634 OFFCURVE",
"368 634 CURVE SMOOTH",
"455 634 OFFCURVE",
"530 594 OFFCURVE",
"572 512 CURVE",
"641 560 LINE",
"595 652 OFFCURVE",
"507 715 OFFCURVE",
"370 715 CURVE SMOOTH",
"180 715 OFFCURVE",
"39 548 OFFCURVE",
"39 357 CURVE SMOOTH",
"39 174 OFFCURVE",
"182 -5 OFFCURVE"
);
},
{
closed = 1;
nodes = (
"586 0 LINE",
"662 0 LINE",
"662 354 LINE",
"433 354 LINE",
"433 286 LINE",
"586 286 LINE"
);
},
{
closed = 1;
nodes = (
"284 802 LINE",
"369 865 LINE",
"454 802 LINE",
"502 826 LINE",
"401 916 LINE",
"337 916 LINE",
"236 826 LINE"
);
}
);
};
components = (
{
name = G;
},
{
name = circumflexcomb;
transform = "{1, 0, 0, 1, 220, 186}";
}
);
layerId = "51AEF656-B224-4228-B44D-D7CFD243EB09";
width = 686;
},
{
background = {
anchors = (
{
name = bottom;
position = "{368, 0}";
},
{
name = top;
position = "{387, 914}";
}
);
paths = (
{
closed = 1;
nodes = (
"368 -5 CURVE SMOOTH",
"440 -5 OFFCURVE",
"498 18 OFFCURVE",
"553 68 CURVE",
"553 258 LINE",
"506 200 OFFCURVE",
"448 168 OFFCURVE",
"385 168 CURVE SMOOTH",
"287 168 OFFCURVE",
"221 243 OFFCURVE",
"221 354 CURVE SMOOTH",
"221 464 OFFCURVE",
"287 542 OFFCURVE",
"380 542 CURVE SMOOTH",
"442 542 OFFCURVE",
"504 505 OFFCURVE",
"532 449 CURVE",
"677 560 LINE",
"626 656 OFFCURVE",
"515 715 OFFCURVE",
"387 715 CURVE SMOOTH",
"182 715 OFFCURVE",
"23 560 OFFCURVE",
"23 361 CURVE SMOOTH",
"23 130 OFFCURVE",
"183 -5 OFFCURVE"
);
},
{
closed = 1;
nodes = (
"543 0 LINE",
"704 0 LINE",
"704 378 LINE",
"412 378 LINE",
"412 238 LINE",
"543 238 LINE"
);
},
{
closed = 1;
nodes = (
"302 757 LINE",
"387 820 LINE",
"472 757 LINE",
"568 799 LINE",
"455 914 LINE",
"319 914 LINE",
"206 799 LINE"
);
}
);
};
components = (
{
name = G;
},
{
name = circumflexcomb;
transform = "{1, 0, 0, 1, 184, 182}";
}
);
layerId = "985A8054-912F-442C-AEAA-CDACF2D0DECF";
width = 711;
}
);
leftKerningGroup = O;
rightKerningGroup = G;
unicode = 011C;
},
{
glyphname = Gcommaaccent;
lastChange = "2016-11-15 12:41:00 +0000";
layers = (
{
background = {
anchors = (
{
name = bottom;
position = "{382, 0}";
},
{
name = top;
position = "{370, 707}";
}
);
paths = (
{
closed = 1;
nodes = (
"383 -5 CURVE SMOOTH",
"485 -5 OFFCURVE",
"575 42 OFFCURVE",
"651 136 CURVE",
"651 164 LINE",
"568 60 OFFCURVE",
"481 15 OFFCURVE",
"383 15 CURVE SMOOTH",
"208 15 OFFCURVE",
"68 177 OFFCURVE",
"68 355 CURVE SMOOTH",
"68 522 OFFCURVE",
"184 695 OFFCURVE",
"371 695 CURVE SMOOTH",
"481 695 OFFCURVE",
"569 654 OFFCURVE",
"623 554 CURVE",
"642 560 LINE",
"597 650 OFFCURVE",
"518 715 OFFCURVE",
"371 715 CURVE SMOOTH",
"182 715 OFFCURVE",
"48 540 OFFCURVE",
"48 355 CURVE SMOOTH",
"48 180 OFFCURVE",
"186 -5 OFFCURVE"
);
},
{
closed = 1;
nodes = (
"639 0 LINE",
"659 0 LINE",
"659 338 LINE",
"472 338 LINE",
"472 318 LINE",
"639 318 LINE"
);
},
{
closed = 1;
nodes = (
"379 -167 LINE",
"392 -109 LINE",
"392 -50 LINE",
"366 -50 LINE",
"366 -109 LINE",
"375 -109 LINE",
"365 -167 LINE"
);
}
);
};
components = (
{
name = G;
},
{
name = commaaccentcomb;
transform = "{1, 0, 0, 1, 293, 0}";
}
);
layerId = "D38D3CE8-FE00-46D7-8A67-935B0885B622";
width = 688;
},
{
background = {
anchors = (
{
name = bottom;
position = "{375, 0}";
},
{
name = top;
position = "{369, 708}";
}
);
paths = (
{
closed = 1;
nodes = (
"370 -5 CURVE SMOOTH",
"457 -5 OFFCURVE",
"532 32 OFFCURVE",
"597 109 CURVE",
"597 202 LINE",
"531 116 OFFCURVE",
"458 76 OFFCURVE",
"377 76 CURVE SMOOTH",
"237 76 OFFCURVE",
"130 203 OFFCURVE",
"130 355 CURVE SMOOTH",
"130 499 OFFCURVE",
"223 634 OFFCURVE",
"368 634 CURVE SMOOTH",
"455 634 OFFCURVE",
"530 594 OFFCURVE",
"572 512 CURVE",
"641 560 LINE",
"595 652 OFFCURVE",
"507 715 OFFCURVE",
"370 715 CURVE SMOOTH",
"180 715 OFFCURVE",
"39 548 OFFCURVE",
"39 357 CURVE SMOOTH",
"39 174 OFFCURVE",
"182 -5 OFFCURVE"
);
},
{
closed = 1;
nodes = (
"586 0 LINE",
"662 0 LINE",
"662 354 LINE",
"433 354 LINE",
"433 286 LINE",
"586 286 LINE"
);
},
{
closed = 1;
nodes = (
"381 -213 LINE",
"411 -132 LINE",
"411 -48 LINE",
"333 -48 LINE",
"333 -132 LINE",
"358 -132 LINE",
"338 -213 LINE"
);
}
);
};
components = (
{
name = G;
},
{
name = commaaccentcomb;
transform = "{1, 0, 0, 1, 284, 0}";
}
);
layerId = "51AEF656-B224-4228-B44D-D7CFD243EB09";
width = 686;
},
{
background = {
anchors = (
{
name = bottom;
position = "{368, 0}";
},
{
name = top;
position = "{387, 710}";
}
);
paths = (
{
closed = 1;
nodes = (
"368 -5 CURVE SMOOTH",
"440 -5 OFFCURVE",
"498 18 OFFCURVE",
"553 68 CURVE",
"553 258 LINE",
"506 200 OFFCURVE",
"448 168 OFFCURVE",
"385 168 CURVE SMOOTH",
"287 168 OFFCURVE",
"221 243 OFFCURVE",
"221 354 CURVE SMOOTH",
"221 464 OFFCURVE",
"287 542 OFFCURVE",
"380 542 CURVE SMOOTH",
"442 542 OFFCURVE",
"504 505 OFFCURVE",
"532 449 CURVE",
"677 560 LINE",
"626 656 OFFCURVE",
"515 715 OFFCURVE",
"387 715 CURVE SMOOTH",
"182 715 OFFCURVE",
"23 560 OFFCURVE",
"23 361 CURVE SMOOTH",
"23 130 OFFCURVE",
"183 -5 OFFCURVE"
);
},
{
closed = 1;
nodes = (
"543 0 LINE",
"704 0 LINE",
"704 378 LINE",
"412 378 LINE",
"412 238 LINE",
"543 238 LINE"
);
},
{
closed = 1;
nodes = (
"389 -213 LINE",
"443 -152 LINE",
"443 -46 LINE",
"286 -46 LINE",
"286 -152 LINE",
"343 -152 LINE",
"307 -213 LINE"
);
}
);
};
components = (
{
name = G;
},
{
name = commaaccentcomb;
transform = "{1, 0, 0, 1, 220, 0}";
}
);
layerId = "985A8054-912F-442C-AEAA-CDACF2D0DECF";
width = 711;
}
);
leftKerningGroup = O;
rightKerningGroup = G;
unicode = 0122;
},
{
glyphname = Gdotaccent;
lastChange = "2016-11-14 08:44:13 +0000";
layers = (
{
background = {
anchors = (
{
name = bottom;
position = "{382, 0}";
},
{
name = top;
position = "{370, 918}";
}
);
paths = (
{
closed = 1;
nodes = (
"383 -5 CURVE SMOOTH",
"485 -5 OFFCURVE",
"575 42 OFFCURVE",
"651 136 CURVE",
"651 164 LINE",
"568 60 OFFCURVE",
"481 15 OFFCURVE",
"383 15 CURVE SMOOTH",
"208 15 OFFCURVE",
"68 177 OFFCURVE",
"68 355 CURVE SMOOTH",
"68 522 OFFCURVE",
"184 695 OFFCURVE",
"371 695 CURVE SMOOTH",
"481 695 OFFCURVE",
"569 654 OFFCURVE",
"623 554 CURVE",
"642 560 LINE",
"597 650 OFFCURVE",
"518 715 OFFCURVE",
"371 715 CURVE SMOOTH",
"182 715 OFFCURVE",
"48 540 OFFCURVE",
"48 355 CURVE SMOOTH",
"48 180 OFFCURVE",
"186 -5 OFFCURVE"
);
},
{
closed = 1;
nodes = (
"639 0 LINE",
"659 0 LINE",
"659 338 LINE",
"472 338 LINE",
"472 318 LINE",
"639 318 LINE"
);
},
{
closed = 1;
nodes = (
"380 841 LINE",
"380 918 LINE",
"360 918 LINE",
"360 841 LINE"
);
}
);
};
components = (
{
name = G;
},
{
name = dotaccentcomb;
transform = "{1, 0, 0, 1, 326, 188}";
}
);
layerId = "D38D3CE8-FE00-46D7-8A67-935B0885B622";
width = 688;
},
{
background = {
anchors = (
{
name = bottom;
position = "{375, 0}";
},
{
name = top;
position = "{369, 916}";
}
);
paths = (
{
closed = 1;
nodes = (
"370 -5 CURVE SMOOTH",
"457 -5 OFFCURVE",
"532 32 OFFCURVE",
"597 109 CURVE",
"597 202 LINE",
"531 116 OFFCURVE",
"458 76 OFFCURVE",
"377 76 CURVE SMOOTH",
"237 76 OFFCURVE",
"130 203 OFFCURVE",
"130 355 CURVE SMOOTH",
"130 499 OFFCURVE",
"223 634 OFFCURVE",
"368 634 CURVE SMOOTH",
"455 634 OFFCURVE",
"530 594 OFFCURVE",
"572 512 CURVE",
"641 560 LINE",
"595 652 OFFCURVE",
"507 715 OFFCURVE",
"370 715 CURVE SMOOTH",
"180 715 OFFCURVE",
"39 548 OFFCURVE",
"39 357 CURVE SMOOTH",
"39 174 OFFCURVE",
"182 -5 OFFCURVE"
);
},
{
closed = 1;
nodes = (
"586 0 LINE",
"662 0 LINE",
"662 354 LINE",
"433 354 LINE",
"433 286 LINE",
"586 286 LINE"
);
},
{
closed = 1;
nodes = (
"409 810 LINE",
"409 916 LINE",
"329 916 LINE",
"329 810 LINE"
);
}
);
};
components = (
{
name = G;
},
{
name = dotaccentcomb;
transform = "{1, 0, 0, 1, 302, 186}";
}
);
layerId = "51AEF656-B224-4228-B44D-D7CFD243EB09";
width = 686;
},
{
background = {
anchors = (
{
name = bottom;
position = "{368, 0}";
},
{
name = top;
position = "{387, 914}";
}
);
paths = (
{
closed = 1;
nodes = (
"368 -5 CURVE SMOOTH",
"440 -5 OFFCURVE",
"498 18 OFFCURVE",
"553 68 CURVE",
"553 258 LINE",
"506 200 OFFCURVE",
"448 168 OFFCURVE",
"385 168 CURVE SMOOTH",
"287 168 OFFCURVE",
"221 243 OFFCURVE",
"221 354 CURVE SMOOTH",
"221 464 OFFCURVE",
"287 542 OFFCURVE",
"380 542 CURVE SMOOTH",
"442 542 OFFCURVE",
"504 505 OFFCURVE",
"532 449 CURVE",
"677 560 LINE",
"626 656 OFFCURVE",
"515 715 OFFCURVE",
"387 715 CURVE SMOOTH",
"182 715 OFFCURVE",
"23 560 OFFCURVE",
"23 361 CURVE SMOOTH",
"23 130 OFFCURVE",
"183 -5 OFFCURVE"
);
},
{
closed = 1;
nodes = (
"543 0 LINE",
"704 0 LINE",
"704 378 LINE",
"412 378 LINE",
"412 238 LINE",
"543 238 LINE"
);
},
{
closed = 1;
nodes = (
"472 764 LINE",
"472 914 LINE",
"302 914 LINE",
"302 764 LINE"
);
}
);
};
components = (
{
name = G;
},
{
name = dotaccentcomb;
transform = "{1, 0, 0, 1, 268, 182}";
}
);
layerId = "985A8054-912F-442C-AEAA-CDACF2D0DECF";
width = 711;
}
);
leftKerningGroup = O;
rightKerningGroup = G;
unicode = 0120;
},
{
glyphname = H;
lastChange = "2016-11-14 05:59:00 +0000";
layers = (
{
anchors = (
{
name = bottom;
position = "{296, 0}";
},
{
name = center;
position = "{371, 355}";
},
{
name = top;
position = "{447, 710}";
},
{
name = topleft;
position = "{116, 710}";
}
);
background = {
anchors = (
{
name = bottom;
position = "{366, 0}";
},
{
name = center;
position = "{366, 355}";
},
{
name = top;
position = "{367, 707}";
},
{
name = topleft;
position = "{20, 710}";
}
);
paths = (
{
closed = 1;
nodes = (
"612 710 LINE",
"612 373 LINE",
"119 373 LINE",
"119 710 LINE",
"99 710 LINE",
"99 0 LINE",
"119 0 LINE",
"119 353 LINE",
"612 353 LINE",
"612 0 LINE",
"632 0 LINE",
"632 710 LINE"
);
}
);
};
layerId = "D38D3CE8-FE00-46D7-8A67-935B0885B622";
paths = (
{
closed = 1;
nodes = (
"33 0 LINE",
"53 0 LINE",
"128 353 LINE",
"595 353 LINE",
"520 0 LINE",
"540 0 LINE",
"691 710 LINE",
"671 710 LINE",
"599 373 LINE",
"132 373 LINE",
"204 710 LINE",
"184 710 LINE"
);
}
);
width = 701;
},
{
anchors = (
{
name = bottom;
position = "{302, 0}";
},
{
name = center;
position = "{377, 355}";
},
{
name = top;
position = "{452, 710}";
},
{
name = topleft;
position = "{115, 710}";
}
);
background = {
anchors = (
{
name = bottom;
position = "{371, 0}";
},
{
name = center;
position = "{371, 355}";
},
{
name = top;
position = "{373, 708}";
},
{
name = topleft;
position = "{20, 710}";
}
);
paths = (
{
closed = 1;
nodes = (
"566 710 LINE",
"566 403 LINE",
"175 403 LINE",
"175 710 LINE",
"85 710 LINE",
"85 0 LINE",
"175 0 LINE",
"175 323 LINE",
"566 323 LINE",
"566 0 LINE",
"656 0 LINE",
"656 710 LINE"
);
}
);
};
layerId = "51AEF656-B224-4228-B44D-D7CFD243EB09";
paths = (
{
closed = 1;
nodes = (
"20 0 LINE",
"110 0 LINE",
"179 323 LINE",
"544 323 LINE",
"475 0 LINE",
"565 0 LINE",
"716 710 LINE",
"626 710 LINE",
"561 403 LINE",
"196 403 LINE",
"261 710 LINE",
"171 710 LINE"
);
}
);
width = 713;
},
{
anchors = (
{
name = bottom;
position = "{306, 0}";
},
{
name = center;
position = "{382, 355}";
},
{
name = top;
position = "{457, 710}";
},
{
name = topleft;
position = "{115, 710}";
}
);
background = {
anchors = (
{
name = bottom;
position = "{375, 0}";
},
{
name = center;
position = "{375, 355}";
},
{
name = top;
position = "{378, 709}";
},
{
name = topleft;
position = "{20, 710}";
}
);
paths = (
{
closed = 1;
nodes = (
"494 710 LINE",
"494 448 LINE",
"256 448 LINE",
"256 710 LINE",
"61 710 LINE",
"61 0 LINE",
"256 0 LINE",
"256 278 LINE",
"494 278 LINE",
"494 0 LINE",
"689 0 LINE",
"689 710 LINE"
);
}
);
};
layerId = "985A8054-912F-442C-AEAA-CDACF2D0DECF";
paths = (
{
closed = 1;
nodes = (
"-3 0 LINE",
"192 0 LINE",
"251 278 LINE",
"463 278 LINE",
"404 0 LINE",
"599 0 LINE",
"750 710 LINE",
"555 710 LINE",
"499 448 LINE",
"287 448 LINE",
"343 710 LINE",
"148 710 LINE"
);
}
);
width = 724;
}
);
leftKerningGroup = I;
rightKerningGroup = I;
unicode = 0048;
},
